<svg width="68" height="68" viewBox="0 0 68 68" fill="none" xmlns="http://www.w3.org/2000/svg">
<circle cx="34" cy="34" r="33.5" fill="#019850" stroke="white"/>
<path d="M20.5 22.5L19 22L18.5 23L19.5 25.5L20.5 27.5L21.5 28.5L23.5 30.5C24.3333 31 26 32.1 26 32.5C26 32.9 28 32.3333 29 32L32 30.5L32.5 29.5V27V26.5L31 26L29.5 25L28.5 23.5L28 23H26H22.5L20.5 22.5Z" fill="#017C5F"/>
<path d="M37 26.5L35.5 27V30.5L38 31.5L40.5 32.5L43.5 31.5L45 30.5L47 28.5L47.5 27L48 25.5L49 24L49.5 22L45.5 23H43C42 23.1667 39.9 23.5 39.5 23.5C39.1 23.5 38.6667 23.8333 38.5 24L38 26L37 26.5Z" fill="#017C5F"/>
<path fill-rule="evenodd" clip-rule="evenodd" d="M33.1868 18.0676C30.7668 18.6189 29.5651 21.3943 30.8314 23.5077C31.0787 23.9205 31.5919 24.4757 31.9081 24.6727L32.1112 24.7992V25.458V26.117L31.7702 26.0887C31.0623 26.03 30.5445 25.5133 30.3424 24.6638C30.1497 23.8542 29.7418 23.242 29.1177 22.8258C28.474 22.3965 28.4615 22.395 25.2362 22.3474C23.5477 22.3225 22.208 22.2763 22.0388 22.2372C21.8786 22.2002 21.075 21.9998 20.253 21.7919C19.4309 21.584 18.6812 21.414 18.5869 21.414C18.1383 21.414 17.9533 21.7343 18.0099 22.4133C18.0888 23.3595 18.4454 24.296 19.0063 25.0304C19.3042 25.4206 19.326 25.4743 19.3723 25.9352C19.4741 26.9494 19.9994 28.0374 20.735 28.7577C20.9456 28.964 21.3374 29.414 21.6056 29.7577C22.4965 30.8995 23.3095 31.5828 24.3925 32.1001C25.4725 32.616 26.3089 32.804 27.5175 32.8027C29.0424 32.8009 30.5022 32.3339 31.6425 31.483C31.8144 31.3547 31.9902 31.2288 32.0331 31.2032C32.0944 31.1667 32.1112 31.3929 32.1112 32.254V33.3515L31.6269 33.3525C30.4937 33.3551 29.5222 33.7512 28.7357 34.5314C27.9218 35.3389 27.5319 36.2627 27.5324 37.3827C27.5328 38.5646 28.0128 39.664 28.5282 39.664C28.757 39.664 29.0319 39.4804 29.1194 39.2692C29.2013 39.0716 29.182 38.9737 28.9205 38.2577C28.7379 37.7575 28.7379 37.0317 28.9205 36.5077C29.3371 35.3133 30.3917 34.6015 31.7447 34.6015H32.1112V37.3735V40.1455L31.0956 40.1813C30.2948 40.2097 30.0017 40.2447 29.71 40.3472C27.5899 41.0915 26.9814 43.7343 28.57 45.2981C28.8852 45.6083 29.2544 45.8325 29.763 46.0224C29.9397 46.0884 30.3789 46.1293 31.2008 46.1563L32.3841 46.1952L32.4714 46.6015C32.7577 47.9344 33.3332 49.5506 33.612 49.8046C33.9236 50.0885 34.381 49.9848 34.565 49.5886C34.8134 49.0538 35.1452 48.0493 35.3453 47.2265C35.4664 46.728 35.575 46.2851 35.5864 46.2421C35.6174 46.1262 36.4949 46.1398 36.7842 46.2607C37.5717 46.5897 37.825 47.5995 37.2847 48.255C37.0624 48.5247 36.678 48.7231 36.3737 48.7251C36.1234 48.7268 35.8255 48.8722 35.7381 49.0355C35.6555 49.1899 35.6555 49.513 35.7381 49.6674C35.942 50.0485 36.6807 50.0584 37.4172 49.69C39.3225 48.7368 39.2727 46.0639 37.3329 45.1562C37.015 45.0074 36.8147 44.9613 36.3573 44.9317L35.7817 44.8943L35.8211 44.3885C35.8427 44.1103 35.8607 43.3273 35.8609 42.6483L35.8612 41.414H36.3269C36.9838 41.414 37.3677 41.3203 38.0487 40.9938C38.8853 40.5928 39.4775 40.0005 39.8786 39.164C40.2111 38.4703 40.2987 38.1002 40.2987 37.3897C40.2987 35.2223 38.6496 33.5041 36.4394 33.3685L35.8612 33.3331V32.2448C35.8612 31.391 35.878 31.1667 35.9394 31.2032C35.9824 31.2288 36.1581 31.3547 36.33 31.483C37.4703 32.3339 38.9301 32.8009 40.455 32.8027C41.6636 32.804 42.5 32.616 43.58 32.1001C44.663 31.5828 45.476 30.8995 46.3669 29.7577C46.635 29.414 47.0269 28.964 47.2375 28.7577C47.9786 28.032 48.5215 26.901 48.595 25.9298C48.6248 25.536 48.6584 25.4268 48.8001 25.2645C49.4299 24.5425 49.875 23.4467 49.9634 22.4005C50.0196 21.7363 49.831 21.414 49.3863 21.414C49.2924 21.414 48.496 21.5946 47.6165 21.8153C46.737 22.036 45.8152 22.247 45.568 22.284C45.3051 22.3235 44.0859 22.3518 42.6305 22.3524C39.9195 22.3534 39.6362 22.3815 39.0342 22.7092C38.6559 22.915 38.0549 23.5471 37.8765 23.9267C37.8034 24.0823 37.687 24.43 37.6181 24.6991C37.5492 24.9682 37.413 25.3018 37.3157 25.4403C37.0655 25.7963 36.6234 26.0537 36.2022 26.0887L35.8612 26.117V25.458V24.7992L36.0644 24.6727C36.3806 24.4757 36.8938 23.9205 37.1411 23.5077C37.925 22.1993 37.7962 20.5381 36.8165 19.323C36.4368 18.8519 35.6891 18.3378 35.1289 18.1627C34.5798 17.991 33.7101 17.9484 33.1868 18.0676ZM34.5825 19.3235C36.1122 19.7218 36.8432 21.4016 36.0973 22.8047C35.2122 24.4697 32.7602 24.4697 31.8752 22.8047C31.1364 21.415 31.8564 19.7315 33.3627 19.3267C33.8118 19.206 34.1281 19.2052 34.5825 19.3235ZM20.4266 23.1273C22.0989 23.5646 22.0073 23.5555 25.1425 23.5958C27.9346 23.6317 28.0247 23.6366 28.2675 23.7678C28.7695 24.0393 29.0112 24.3944 29.1749 25.1015C29.4704 26.3774 30.6087 27.3515 31.8043 27.3515H32.1112V28.3689V29.3863L31.7206 29.7652C31.1647 30.3043 30.8347 30.554 30.2917 30.8467C29.3243 31.368 28.5342 31.5604 27.3925 31.5529C26.1875 31.5449 25.1826 31.2272 24.1255 30.52L23.7337 30.2577L24.6087 30.2265C25.4534 30.1963 25.4895 30.1895 25.6497 30.029C25.8823 29.7963 25.8825 29.4068 25.6502 29.1746C25.4897 29.014 25.4554 29.0078 24.5011 28.9663C23.2484 28.9119 22.8706 28.811 22.169 28.3437C21.5904 27.9583 20.9957 27.2185 20.8338 26.6827L20.7922 26.5451L21.1849 26.7047C21.7233 26.9234 22.2574 27.0241 23.1491 27.075C24.1425 27.1317 24.5537 27.0795 24.7629 26.8703C24.9862 26.6469 24.9882 26.2455 24.767 26.0243C24.5694 25.8267 24.3446 25.7905 23.3077 25.7897C22.3394 25.7888 21.9177 25.7009 21.2675 25.3643C20.4815 24.9574 19.6925 24.0321 19.4499 23.2328C19.3377 22.8632 19.3392 22.8367 19.4706 22.8745C19.5307 22.8917 19.961 23.0055 20.4266 23.1273ZM48.6105 22.8983C48.6084 23.0473 48.4071 23.571 48.2297 23.889C47.9387 24.4109 47.2391 25.0878 46.705 25.3643C46.0548 25.7009 45.633 25.7888 44.6647 25.7897C43.6279 25.7905 43.4031 25.8267 43.2054 26.0243C42.9842 26.2455 42.9862 26.6469 43.2096 26.8703C43.4188 27.0795 43.8299 27.1317 44.8234 27.075C45.715 27.0241 46.2492 26.9234 46.7875 26.7047L47.1802 26.5451L47.1387 26.6827C46.9767 27.2185 46.382 27.9583 45.8034 28.3437C45.1019 28.811 44.7241 28.9119 43.4714 28.9663C42.517 29.0078 42.4828 29.014 42.3222 29.1746C42.09 29.4068 42.0902 29.7963 42.3227 30.029C42.483 30.1895 42.519 30.1963 43.3638 30.2265L44.2388 30.2577L43.8469 30.52C42.7899 31.2272 41.785 31.5449 40.58 31.5529C39.4382 31.5604 38.6482 31.368 37.6808 30.8467C37.1377 30.554 36.8077 30.3043 36.2519 29.7652L35.8612 29.3863V28.3689V27.3515H36.1682C37.3637 27.3515 38.502 26.3774 38.7975 25.1015C38.9612 24.3944 39.2029 24.0393 39.705 23.7678C39.9479 23.6366 40.037 23.6317 42.83 23.5967C46.004 23.5569 45.9349 23.5643 47.7362 23.0733C48.6177 22.8331 48.6115 22.8343 48.6105 22.8983ZM34.6112 32.7333V40.164H33.9862H33.3612V32.7333V25.3025H33.9862H34.6112V32.7333ZM37.254 34.7893C38.829 35.3786 39.518 37.2818 38.6926 38.7635C38.218 39.6153 37.2759 40.164 36.2874 40.164H35.8612V37.3734V34.5829L36.3795 34.6195C36.6682 34.6398 37.0557 34.7151 37.254 34.7893ZM32.1112 42.5918C32.1112 43.2397 32.1295 44.0272 32.1519 44.3418L32.1924 44.914H31.3194C30.2296 44.914 29.9034 44.8293 29.4852 44.4382C29.0627 44.043 28.9008 43.6392 28.9375 43.0727C28.9685 42.5958 29.068 42.3512 29.3721 42.0049C29.7663 41.5559 30.1879 41.4312 31.3456 41.4208L32.1112 41.414V42.5918ZM34.611 42.6171C34.6108 43.998 34.5358 44.9775 34.3586 45.914C34.1909 46.8002 34.0187 47.4546 33.9727 47.3802C33.918 47.2917 33.753 46.6359 33.6415 46.0643C33.4662 45.1651 33.3626 43.8992 33.3619 42.6483L33.3612 41.414H33.9862H34.6112L34.611 42.6171ZM31.2675 48.7832C30.8692 48.9537 30.7639 49.47 31.0658 49.7719C31.4453 50.1515 32.0772 49.8888 32.0772 49.3515C32.0772 48.9399 31.6317 48.6272 31.2675 48.7832Z" fill="white"/>
</svg>
