<svg width="11" height="17" viewBox="0 0 11 17" fill="none" xmlns="http://www.w3.org/2000/svg">
<path d="M0.9277 16.4751C0.800186 16.4766 0.673941 16.4498 0.558155 16.3968C0.442369 16.3437 0.339955 16.2657 0.258349 16.1684C0.0937907 16.0027 0.00154512 15.7793 0.00154512 15.5466C0.00154512 15.3138 0.0937907 15.0904 0.258349 14.9247L7.8615 8.21169L0.258349 1.51575C0.0927093 1.34711 0 1.12089 0 0.885347C0 0.649805 0.0927093 0.423581 0.258349 0.254936C0.425329 0.0915745 0.650351 0 0.884791 0C1.11923 0 1.34426 0.0915745 1.51125 0.254936L9.86956 7.61535C9.96214 7.69993 10.036 7.80265 10.0866 7.91703C10.1371 8.0314 10.1632 8.15494 10.1632 8.27984C10.1632 8.40474 10.1371 8.52828 10.0866 8.64265C10.036 8.75702 9.96214 8.85975 9.86956 8.94432L1.51125 16.2366C1.35338 16.3854 1.14532 16.4704 0.9277 16.4751Z" fill="url(#paint0_linear_28_14940)"/>
<defs>
<linearGradient id="paint0_linear_28_14940" x1="0" y1="8.24029" x2="10.1632" y2="8.24029" gradientUnits="userSpaceOnUse">
<stop stop-color="#FFBD33"/>
<stop offset="1" stop-color="#FF8000"/>
</linearGradient>
</defs>
</svg>
