<svg width="24" height="16" viewBox="0 0 24 16" fill="none" xmlns="http://www.w3.org/2000/svg">
<path d="M22.7333 6.66663H1.26667C0.567106 6.66663 0 7.23373 0 7.93329V8.06663C0 8.76619 0.567106 9.33329 1.26667 9.33329H22.7333C23.4329 9.33329 24 8.76619 24 8.06663V7.93329C24 7.23373 23.4329 6.66663 22.7333 6.66663Z" fill="white"/>
<path d="M22.7333 13.3334H1.26667C0.567106 13.3334 0 13.9005 0 14.6V14.7334C0 15.4329 0.567106 16 1.26667 16H22.7333C23.4329 16 24 15.4329 24 14.7334V14.6C24 13.9005 23.4329 13.3334 22.7333 13.3334Z" fill="white"/>
<path d="M22.7333 0H1.26667C0.567106 0 0 0.567106 0 1.26667V1.4C0 2.09956 0.567106 2.66667 1.26667 2.66667H22.7333C23.4329 2.66667 24 2.09956 24 1.4V1.26667C24 0.567106 23.4329 0 22.7333 0Z" fill="white"/>
</svg>
