<svg width="28" height="33" viewBox="0 0 28 33" fill="none" xmlns="http://www.w3.org/2000/svg">
<path d="M25.5172 10.4685H1.96287L0.654297 32.0599H26.8257L25.5172 10.4685Z" fill="#FF9310"/>
<path fill-rule="evenodd" clip-rule="evenodd" d="M12.8132 0.0711412C12.3178 0.185519 11.744 0.419581 11.2894 0.692643C10.9344 0.905927 10.172 1.60473 9.98861 1.88501C9.89672 2.02541 9.756 2.04817 6.76565 2.40716C5.04584 2.6136 3.58785 2.80278 3.52559 2.82759C3.46334 2.85233 3.37088 2.9538 3.32002 3.05296C3.23687 3.21529 3.24972 3.42013 3.44858 5.10709C3.57005 6.13764 3.66967 7.03118 3.66992 7.09275C3.6703 7.18239 3.61514 7.20464 3.39247 7.20464C3.2211 7.20464 3.06296 7.24754 2.98019 7.31652C2.90634 7.37809 2.45739 8.07574 1.98267 8.86692L1.11941 10.3054L0.561085 21.1422C0.253994 27.1025 0.00155823 32.0604 3.82904e-05 32.1598C-0.0017983 32.2769 0.0624824 32.4064 0.182367 32.5274L0.367483 32.7143H13.74H27.1125L27.2976 32.5274C27.4175 32.4064 27.4818 32.2769 27.48 32.1598C27.4784 32.0604 27.226 27.1025 26.9189 21.1422L26.3606 10.3054L25.4973 8.86692C25.0226 8.07574 24.5737 7.37809 24.4998 7.31652C24.3941 7.22836 24.2451 7.20464 23.7983 7.20464C23.2875 7.20464 23.2344 7.19351 23.2647 7.09275C23.3816 6.70314 23.6196 5.56083 23.6196 5.38891C23.6196 5.22825 23.4451 4.91497 23.348 4.9011C23.3406 4.90007 22.2089 4.63296 20.833 4.30747L18.3315 3.71576L18.1968 3.29412C17.7179 1.79557 16.5635 0.655498 15.0383 0.174714C14.4654 -0.0058353 13.3677 -0.0569825 12.8132 0.0711412ZM14.6867 1.23583C15.289 1.40659 15.7734 1.69896 16.2485 2.17872C16.6345 2.56853 17.0332 3.1674 17.0332 3.35741C17.0332 3.38874 16.7554 3.34731 16.4157 3.26541C15.255 2.98551 15.1806 3.03032 14.9183 4.16816C14.5102 5.93849 14.5539 5.81996 14.2854 5.88402C14.1503 5.9163 14.0255 5.91701 13.9985 5.88562C13.9721 5.85505 13.8565 4.99572 13.7415 3.97597C13.6265 2.95623 13.4945 2.04587 13.4482 1.95297C13.3142 1.68458 13.0837 1.64078 12.3368 1.74167C11.9765 1.79033 11.6533 1.83048 11.6184 1.83092C11.4883 1.83259 12.1436 1.46228 12.5085 1.32796C13.2485 1.0556 13.9465 1.02606 14.6867 1.23583ZM12.688 4.43949C12.785 5.30983 12.8764 6.06693 12.8911 6.12198C12.9132 6.20465 12.4639 6.33213 10.3049 6.85569C7.9949 7.41587 7.67172 7.50928 7.51777 7.6617C7.42201 7.75658 7.34361 7.88822 7.34361 7.95433C7.34361 8.02037 7.44335 8.48453 7.56526 8.98577C7.68717 9.48702 7.78692 9.90988 7.78692 9.92548C7.78692 9.94101 7.19161 9.9538 6.46401 9.9538H5.14116L5.10518 9.74601C4.99645 9.1178 4.4171 3.87221 4.4525 3.8364C4.49259 3.79593 11.9146 2.87842 12.3183 2.86403L12.5115 2.85713L12.688 4.43949ZM19.2393 5.07071C20.9693 5.47938 22.3944 5.82251 22.4064 5.83319C22.4183 5.84387 22.2161 6.76822 21.957 7.88726L21.486 9.92183L19.8956 9.9389L18.3053 9.95597L18.2415 9.71513C18.2065 9.58266 17.9756 8.62557 17.7286 7.58824C17.4816 6.55091 17.2368 5.63615 17.1847 5.55546C17.0242 5.30714 16.8312 5.27581 16.2717 5.40733C15.6901 5.54408 15.7132 5.57208 15.8673 4.91618C15.9975 4.36201 16.0084 4.32761 16.0549 4.32761C16.0764 4.32761 17.5094 4.66198 19.2393 5.07071ZM16.7241 8.11851C16.9222 8.95521 17.1018 9.7104 17.1233 9.79678L17.1623 9.9538H13.047H8.93175L8.86842 9.71405C8.83359 9.58221 8.75094 9.23838 8.68482 8.95003L8.56449 8.42578L10.4081 7.97453C11.4221 7.72634 13.1209 7.31006 14.1833 7.04953C15.2457 6.78894 16.1709 6.58058 16.2395 6.58652C16.3483 6.59592 16.4096 6.78945 16.7241 8.11851ZM3.90336 8.96352C3.9456 9.31478 3.98164 9.68131 3.9836 9.77798L3.98708 9.9538H3.32211C2.95638 9.9538 2.65714 9.94095 2.65714 9.92522C2.65714 9.90955 2.87367 9.53394 3.13832 9.09062C3.74079 8.08149 3.79633 8.07222 3.90336 8.96352ZM24.3437 9.09408C24.6073 9.53554 24.8229 9.90955 24.8229 9.92522C24.8229 9.94095 24.3222 9.9538 23.7103 9.9538C22.6806 9.9538 22.6001 9.94549 22.63 9.84191C22.6477 9.78034 22.7376 9.40639 22.8298 9.01077L22.9973 8.29151H23.431H23.8646L24.3437 9.09408ZM25.3296 11.3124C25.3297 11.4266 25.5576 15.994 25.8362 21.4619C26.1147 26.9299 26.3426 31.454 26.3427 31.5155C26.3428 31.6217 25.7005 31.6274 13.74 31.6274C1.7795 31.6274 1.1372 31.6217 1.13733 31.5155C1.13739 31.454 1.36532 26.9299 1.64385 21.4619C1.92238 15.994 2.1503 11.4266 2.15037 11.3124L2.15049 11.1046H13.74H25.3295L25.3296 11.3124ZM8.9902 12.3203C8.12739 12.7264 7.74519 13.7014 8.12593 14.5251C8.27621 14.8501 8.68356 15.2783 8.91237 15.3516C9.032 15.3899 9.04011 15.4647 9.07013 16.8126C9.10445 18.3531 9.15556 18.6618 9.5002 19.4092C10.1401 20.797 11.3351 21.7573 12.8033 22.0634C15.2066 22.5646 17.5416 21.1217 18.2421 18.7025C18.3569 18.3059 18.3829 18.0134 18.4097 16.8126C18.4399 15.4648 18.448 15.3899 18.5676 15.3516C18.7719 15.2861 19.1853 14.8739 19.3261 14.5953C19.894 13.4715 18.9794 12.0941 17.7407 12.2075C16.9202 12.2826 16.3113 12.8805 16.2283 13.6924C16.1648 14.3136 16.5213 15.0013 17.0582 15.2931L17.2865 15.4173V16.6999C17.2865 18.1469 17.2329 18.464 16.8703 19.1606C16.4593 19.9502 15.6764 20.6064 14.8057 20.8912C13.2176 21.4105 11.388 20.656 10.6097 19.1606C10.2471 18.464 10.1935 18.1469 10.1935 16.6999V15.4173L10.4218 15.2931C10.7397 15.1203 11.0566 14.7256 11.1809 14.3475C11.4303 13.5895 11.0768 12.7454 10.3518 12.3681C9.9748 12.1719 9.35207 12.15 8.9902 12.3203ZM9.8731 13.3723C10.0692 13.4747 10.2037 13.7683 10.1499 13.9763C10.1159 14.1074 10.1158 14.1074 9.95619 13.9806C9.75169 13.8182 9.49438 13.819 9.2883 13.9827C9.12896 14.1092 9.12535 14.1092 9.08722 13.9881C9.02104 13.7776 9.12484 13.5273 9.33105 13.4004C9.56892 13.2539 9.63941 13.2503 9.8731 13.3723ZM18.1041 13.3713C18.3098 13.4787 18.4569 13.7843 18.3959 13.9779L18.354 14.1115L18.1917 13.9827C18.0003 13.8307 17.6858 13.8153 17.497 13.9488C17.3797 14.0317 17.3582 14.0319 17.3273 13.9506C17.2678 13.7941 17.417 13.4725 17.594 13.3753C17.8081 13.2579 17.8858 13.2573 18.1041 13.3713Z" fill="white"/>
</svg>
