<svg width="68" height="68" viewBox="0 0 68 68" fill="none" xmlns="http://www.w3.org/2000/svg">
<circle cx="34" cy="34" r="33.5" fill="#FFAA23" stroke="white"/>
<path d="M45.5172 28.4685H21.9629L20.6543 50.0599H46.8257L45.5172 28.4685Z" fill="#FF9310"/>
<path fill-rule="evenodd" clip-rule="evenodd" d="M32.8132 18.0711C32.3178 18.1855 31.744 18.4196 31.2894 18.6926C30.9344 18.9059 30.172 19.6047 29.9886 19.885C29.8967 20.0254 29.756 20.0482 26.7657 20.4072C25.0458 20.6136 23.5878 20.8028 23.5256 20.8276C23.4633 20.8523 23.3709 20.9538 23.32 21.053C23.2369 21.2153 23.2497 21.4201 23.4486 23.1071C23.5701 24.1376 23.6697 25.0312 23.6699 25.0928C23.6703 25.1824 23.6151 25.2046 23.3925 25.2046C23.2211 25.2046 23.063 25.2475 22.9802 25.3165C22.9063 25.3781 22.4574 26.0757 21.9827 26.8669L21.1194 28.3054L20.5611 39.1422C20.254 45.1025 20.0016 50.0604 20 50.1598C19.9982 50.2769 20.0625 50.4064 20.1824 50.5274L20.3675 50.7143H33.74H47.1125L47.2976 50.5274C47.4175 50.4064 47.4818 50.2769 47.48 50.1598C47.4784 50.0604 47.226 45.1025 46.9189 39.1422L46.3606 28.3054L45.4973 26.8669C45.0226 26.0757 44.5737 25.3781 44.4998 25.3165C44.3941 25.2284 44.2451 25.2046 43.7983 25.2046C43.2875 25.2046 43.2344 25.1935 43.2647 25.0928C43.3816 24.7031 43.6196 23.5608 43.6196 23.3889C43.6196 23.2282 43.4451 22.915 43.348 22.9011C43.3406 22.9001 42.2089 22.633 40.833 22.3075L38.3315 21.7158L38.1968 21.2941C37.7179 19.7956 36.5635 18.6555 35.0383 18.1747C34.4654 17.9942 33.3677 17.943 32.8132 18.0711ZM34.6867 19.2358C35.289 19.4066 35.7734 19.699 36.2485 20.1787C36.6345 20.5685 37.0332 21.1674 37.0332 21.3574C37.0332 21.3887 36.7554 21.3473 36.4157 21.2654C35.255 20.9855 35.1806 21.0303 34.9183 22.1682C34.5102 23.9385 34.5539 23.82 34.2854 23.884C34.1503 23.9163 34.0255 23.917 33.9985 23.8856C33.9721 23.8551 33.8565 22.9957 33.7415 21.976C33.6265 20.9562 33.4945 20.0459 33.4482 19.953C33.3142 19.6846 33.0837 19.6408 32.3368 19.7417C31.9765 19.7903 31.6533 19.8305 31.6184 19.8309C31.4883 19.8326 32.1436 19.4623 32.5085 19.328C33.2485 19.0556 33.9465 19.0261 34.6867 19.2358ZM32.688 22.4395C32.785 23.3098 32.8764 24.0669 32.8911 24.122C32.9132 24.2046 32.4639 24.3321 30.3049 24.8557C27.9949 25.4159 27.6717 25.5093 27.5178 25.6617C27.422 25.7566 27.3436 25.8882 27.3436 25.9543C27.3436 26.0204 27.4434 26.4845 27.5653 26.9858C27.6872 27.487 27.7869 27.9099 27.7869 27.9255C27.7869 27.941 27.1916 27.9538 26.464 27.9538H25.1412L25.1052 27.746C24.9964 27.1178 24.4171 21.8722 24.4525 21.8364C24.4926 21.7959 31.9146 20.8784 32.3183 20.864L32.5115 20.8571L32.688 22.4395ZM39.2393 23.0707C40.9693 23.4794 42.3944 23.8225 42.4064 23.8332C42.4183 23.8439 42.2161 24.7682 41.957 25.8873L41.486 27.9218L39.8956 27.9389L38.3053 27.956L38.2415 27.7151C38.2065 27.5827 37.9756 26.6256 37.7286 25.5882C37.4816 24.5509 37.2368 23.6361 37.1847 23.5555C37.0242 23.3071 36.8312 23.2758 36.2717 23.4073C35.6901 23.5441 35.7132 23.5721 35.8673 22.9162C35.9975 22.362 36.0084 22.3276 36.0549 22.3276C36.0764 22.3276 37.5094 22.662 39.2393 23.0707ZM36.7241 26.1185C36.9222 26.9552 37.1018 27.7104 37.1233 27.7968L37.1623 27.9538H33.047H28.9317L28.8684 27.714C28.8336 27.5822 28.7509 27.2384 28.6848 26.95L28.5645 26.4258L30.4081 25.9745C31.4221 25.7263 33.1209 25.3101 34.1833 25.0495C35.2457 24.7889 36.1709 24.5806 36.2395 24.5865C36.3483 24.5959 36.4096 24.7894 36.7241 26.1185ZM23.9034 26.9635C23.9456 27.3148 23.9816 27.6813 23.9836 27.778L23.9871 27.9538H23.3221C22.9564 27.9538 22.6571 27.9409 22.6571 27.9252C22.6571 27.9096 22.8737 27.5339 23.1383 27.0906C23.7408 26.0815 23.7963 26.0722 23.9034 26.9635ZM44.3437 27.0941C44.6073 27.5355 44.8229 27.9096 44.8229 27.9252C44.8229 27.9409 44.3222 27.9538 43.7103 27.9538C42.6806 27.9538 42.6001 27.9455 42.63 27.8419C42.6477 27.7803 42.7376 27.4064 42.8298 27.0108L42.9973 26.2915H43.431H43.8646L44.3437 27.0941ZM45.3296 29.3124C45.3297 29.4266 45.5576 33.994 45.8362 39.4619C46.1147 44.9299 46.3426 49.454 46.3427 49.5155C46.3428 49.6217 45.7005 49.6274 33.74 49.6274C21.7795 49.6274 21.1372 49.6217 21.1373 49.5155C21.1374 49.454 21.3653 44.9299 21.6438 39.4619C21.9224 33.994 22.1503 29.4266 22.1504 29.3124L22.1505 29.1046H33.74H45.3295L45.3296 29.3124ZM28.9902 30.3203C28.1274 30.7264 27.7452 31.7014 28.1259 32.5251C28.2762 32.8501 28.6836 33.2783 28.9124 33.3516C29.032 33.3899 29.0401 33.4647 29.0701 34.8126C29.1045 36.3531 29.1556 36.6618 29.5002 37.4092C30.1401 38.797 31.3351 39.7573 32.8033 40.0634C35.2066 40.5646 37.5416 39.1217 38.2421 36.7025C38.3569 36.3059 38.3829 36.0134 38.4097 34.8126C38.4399 33.4648 38.448 33.3899 38.5676 33.3516C38.7719 33.2861 39.1853 32.8739 39.3261 32.5953C39.894 31.4715 38.9794 30.0941 37.7407 30.2075C36.9202 30.2826 36.3113 30.8805 36.2283 31.6924C36.1648 32.3136 36.5213 33.0013 37.0582 33.2931L37.2865 33.4173V34.6999C37.2865 36.1469 37.2329 36.464 36.8703 37.1606C36.4593 37.9502 35.6764 38.6064 34.8057 38.8912C33.2176 39.4105 31.388 38.656 30.6097 37.1606C30.2471 36.464 30.1935 36.1469 30.1935 34.6999V33.4173L30.4218 33.2931C30.7397 33.1203 31.0566 32.7256 31.1809 32.3475C31.4303 31.5895 31.0768 30.7454 30.3518 30.3681C29.9748 30.1719 29.3521 30.15 28.9902 30.3203ZM29.8731 31.3723C30.0692 31.4747 30.2037 31.7683 30.1499 31.9763C30.1159 32.1074 30.1158 32.1074 29.9562 31.9806C29.7517 31.8182 29.4944 31.819 29.2883 31.9827C29.129 32.1092 29.1254 32.1092 29.0872 31.9881C29.021 31.7776 29.1248 31.5273 29.331 31.4004C29.5689 31.2539 29.6394 31.2503 29.8731 31.3723ZM38.1041 31.3713C38.3098 31.4787 38.4569 31.7843 38.3959 31.9779L38.354 32.1115L38.1917 31.9827C38.0003 31.8307 37.6858 31.8153 37.497 31.9488C37.3797 32.0317 37.3582 32.0319 37.3273 31.9506C37.2678 31.7941 37.417 31.4725 37.5941 31.3753C37.8081 31.2579 37.8858 31.2573 38.1041 31.3713Z" fill="white"/>
</svg>
