<svg preserveAspectRatio="none" width="1110" height="114" viewBox="0 0 1110 114" fill="none" xmlns="http://www.w3.org/2000/svg">
<path d="M9.63581 2.61169C10.6788 2.61169 11.5677 2.69874 12.3025 2.87285C13.0611 3.04697 13.7485 3.35167 14.3648 3.78695C15.0048 4.13517 15.6567 4.61398 16.3204 5.22337L16.0004 13.9725C15.2893 13.7113 14.6256 13.4937 14.0093 13.3196C13.4166 13.1455 12.7766 13.0149 12.0892 12.9278C11.4018 12.8408 10.584 12.7973 9.63581 12.7973C8.04762 12.7973 6.79129 13.929 5.86682 16.1924C4.94235 18.4559 4.27863 22.2428 3.87566 27.5533C3.49639 32.8637 3.30675 40.0893 3.30675 49.2302C3.30675 58.3711 3.49639 65.5968 3.87566 70.9072C4.27863 76.2176 4.94235 80.0046 5.86682 82.268C6.79129 84.5315 8.04762 85.6632 9.63581 85.6632C11.1529 85.6632 12.4211 85.5762 13.4404 85.4021C14.4833 85.1409 15.5026 84.7491 16.4982 84.2268L16.8182 92.8454C15.7989 93.89 14.7441 94.63 13.6537 95.0653C12.587 95.5876 11.2477 95.8488 9.63581 95.8488C7.28908 95.8488 5.40459 94.3689 3.98233 91.4089C2.58377 88.362 1.56449 83.4433 0.924469 76.6529C0.308156 69.8625 0 60.7216 0 49.2302C0 37.7388 0.308156 28.5979 0.924469 21.8076C1.56449 15.0172 2.58377 10.142 3.98233 7.18213C5.40459 4.13517 7.28908 2.61169 9.63581 2.61169Z" fill="#318F28"/>
<path d="M30.803 4.17869C31.0875 4.17869 31.3364 4.48339 31.5497 5.09279C31.7631 5.61512 31.9053 6.3551 31.9764 7.31272L39.8699 94.2818H36.6343L30.2697 20.3711C30.1749 19.1523 30.0682 17.9336 29.9497 16.7148C29.8549 15.4089 29.76 14.1902 29.6652 13.0584H28.6696C28.5748 14.1902 28.48 15.4089 28.3852 16.7148C28.2904 17.9336 28.1837 19.1523 28.0652 20.3711L21.7006 94.2818H18.4649L26.3585 7.31272C26.4296 6.3551 26.5718 5.61512 26.7851 5.09279C26.9985 4.48339 27.2474 4.17869 27.5318 4.17869H30.803ZM35.3543 56.1512V66.0756H22.9095V56.1512H35.3543Z" fill="#318F28"/>
<path d="M66.5042 4.17869C67.3576 4.17869 67.7843 5.78923 67.7843 9.01031L68.8154 94.2818H65.6864L64.7975 13.7113H64.0508L58.5751 80.1787C58.3855 82.7904 57.9351 84.0962 57.224 84.0962H54.415C53.6802 84.0962 53.2061 82.7904 52.9928 80.1787L47.5171 13.7113H46.8059L45.9526 94.2818H42.8236L43.7836 9.01031C43.8311 5.78923 44.2696 4.17869 45.0992 4.17869H48.6549C49.3186 4.17869 49.7571 5.48454 49.9705 8.09622L54.5573 63.0722C54.7469 65.0745 54.901 67.0767 55.0195 69.079C55.1617 71.0813 55.3158 73.1272 55.4817 75.2165H56.1217C56.2877 73.1272 56.4418 71.0813 56.584 69.079C56.7262 67.0767 56.8803 64.9874 57.0462 62.811L61.633 8.09622C61.8226 5.48454 62.273 4.17869 62.9842 4.17869H66.5042Z" fill="#318F28"/>
<path d="M83.2852 2.48111C85.0631 2.48111 86.5683 3.26461 87.8009 4.83161C89.0572 6.39863 90.0528 9.01031 90.7877 12.6667C91.5462 16.236 92.0914 21.0241 92.4233 27.0309C92.7788 33.0378 92.9566 40.4376 92.9566 49.2302C92.9566 58.0229 92.7788 65.4227 92.4233 71.4296C92.0914 77.4364 91.5462 82.268 90.7877 85.9244C90.0528 89.4937 89.0572 92.0619 87.8009 93.6289C86.5683 95.1959 85.0631 95.9794 83.2852 95.9794C81.5074 95.9794 79.9903 95.1959 78.734 93.6289C77.5014 92.0619 76.5058 89.4937 75.7473 85.9244C74.9887 82.268 74.4317 77.4364 74.0761 71.4296C73.7442 65.4227 73.5783 58.0229 73.5783 49.2302C73.5783 40.4376 73.7442 33.0378 74.0761 27.0309C74.4317 21.0241 74.9887 16.236 75.7473 12.6667C76.5058 9.01031 77.5014 6.39863 78.734 4.83161C79.9903 3.26461 81.5074 2.48111 83.2852 2.48111ZM83.2852 12.7973C81.6733 12.7973 80.3933 13.929 79.4451 16.1924C78.5207 18.4559 77.8569 22.2428 77.454 27.5533C77.0747 32.7766 76.8851 40.0023 76.8851 49.2302C76.8851 58.3711 77.0747 65.5968 77.454 70.9072C77.8569 76.2176 78.5207 80.0046 79.4451 82.268C80.3933 84.5315 81.6733 85.6632 83.2852 85.6632C84.8971 85.6632 86.1653 84.5315 87.0898 82.268C88.038 80.0046 88.7017 76.2176 89.0809 70.9072C89.4839 65.5968 89.6854 58.3711 89.6854 49.2302C89.6854 40.0023 89.4839 32.7766 89.0809 27.5533C88.7017 22.2428 88.038 18.4559 87.0898 16.1924C86.1653 13.929 84.8971 12.7973 83.2852 12.7973Z" fill="#318F28"/>
<path d="M114.404 4.17869V13.5808H106.866C105.254 13.5808 104.377 16.6277 104.234 22.7217C104.045 30.3826 103.879 36.9989 103.737 42.5704C103.594 48.142 103.428 53.0172 103.239 57.1959C103.073 61.2875 102.871 64.9439 102.634 68.165C102.397 71.299 102.077 74.3459 101.674 77.3058C101.224 80.8751 100.702 83.9656 100.11 86.5773C99.5172 89.1019 98.8298 91.0607 98.0476 92.4536C97.289 93.7594 96.4357 94.4124 95.4875 94.4124L95.203 85.5326C95.9616 84.6621 96.6253 83.3998 97.1942 81.7457C97.7868 80.0916 98.2965 77.567 98.7231 74.1718C99.0076 71.9084 99.2446 69.6449 99.4343 67.3814C99.6476 65.118 99.8254 62.6369 99.9676 59.9381C100.134 57.1524 100.276 53.9748 100.394 50.4055C100.537 46.7491 100.667 42.5269 100.785 37.7388C100.904 32.8637 101.034 27.1615 101.177 20.6323C101.461 9.66323 103.085 4.17869 106.048 4.17869H114.404ZM114.901 4.17869V94.2818H111.772V4.17869H114.901Z" fill="#318F28"/>
<path d="M124.23 4.17869V94.2818H121.101V4.17869H124.23Z" fill="#318F28"/>
<path d="M146.905 4.17869C146.431 9.1409 145.981 13.7549 145.554 18.0206C145.127 22.2864 144.689 26.1168 144.239 29.512C143.812 32.9072 143.338 35.8671 142.816 38.3918C142.318 40.8293 141.75 42.7881 141.11 44.268C140.47 45.748 139.723 46.6621 138.869 47.0103V47.5326C139.794 47.8809 140.6 48.795 141.287 50.2749C141.975 51.7549 142.579 53.8442 143.101 56.543C143.646 59.1546 144.144 62.3322 144.594 66.0756C145.068 69.732 145.53 73.9542 145.981 78.7423C146.455 83.4433 146.976 88.6231 147.545 94.2818H144.239C143.575 87.4914 142.982 81.4845 142.461 76.2612C141.939 71.0378 141.382 66.6415 140.79 63.0722C140.221 59.4158 139.557 56.6735 138.798 54.8454C138.04 52.9301 137.092 51.9725 135.954 51.9725V42.701C137.021 42.701 137.921 41.7434 138.656 39.8282C139.415 37.8259 140.078 35.0836 140.647 31.6014C141.216 28.1191 141.738 24.071 142.212 19.4571C142.686 14.756 143.184 9.66323 143.705 4.17869H146.905ZM133.5 4.17869V32.3849C133.5 34.9966 133.465 37.5212 133.394 39.9588C133.323 42.3963 133.216 44.7904 133.074 47.1409C133.192 49.5785 133.287 52.016 133.358 54.4536C133.453 56.8912 133.5 59.2417 133.5 61.5052V94.2818H130.407V4.17869H133.5ZM137.269 42.701V51.9725H132.54V42.701H137.269Z" fill="#318F28"/>
<path d="M168.225 4.17869L161.612 72.0825C161.209 76.0871 160.77 79.7869 160.296 83.1821C159.822 86.5773 159.253 89.3631 158.589 91.5395C157.926 93.7159 157.096 94.9347 156.1 95.1959C155.698 95.2829 155.223 95.2394 154.678 95.0653C154.157 94.9782 153.623 94.7606 153.078 94.4124C152.557 94.0642 152.094 93.7159 151.691 93.3677L152.047 84.8797C153.232 85.228 154.157 85.4021 154.82 85.4021C155.508 85.4021 156.041 85.0103 156.42 84.2268C156.823 83.3562 157.167 81.9633 157.452 80.0481C157.736 78.1329 158.068 75.4777 158.447 72.0825L159.265 64.378L159.621 60.3299L165.025 4.17869H168.225ZM152.616 4.17869L157.558 56.2818C157.701 57.6747 157.973 58.3711 158.376 58.3711H160.118L160.581 68.0344H157.523C156.859 68.0344 156.326 67.5556 155.923 66.5979C155.543 65.5533 155.259 63.9863 155.069 61.8969L149.38 4.17869H152.616Z" fill="#318F28"/>
<path d="M179.727 3.13403C181.742 3.13403 183.342 3.83047 184.527 5.22337C185.712 6.52921 186.566 8.87973 187.087 12.2749C187.632 15.6701 187.905 20.4582 187.905 26.6392C187.905 33.0813 187.573 38 186.909 41.3952C186.269 44.7904 185.214 46.7491 183.745 47.2715V47.7938C185.57 48.4032 186.838 50.7537 187.549 54.8454C188.284 58.937 188.652 64.5956 188.652 71.8213C188.652 78.0023 188.391 82.7904 187.869 86.1856C187.348 89.5807 186.506 91.9748 185.345 93.3677C184.207 94.6735 182.702 95.3265 180.829 95.3265C179.431 95.3265 178.222 95.2829 177.202 95.1959C176.207 95.1959 175.282 95.1088 174.429 94.9347C173.576 94.7606 172.687 94.543 171.762 94.2818L172.26 85.1409C172.782 85.2279 173.765 85.315 175.211 85.4021C176.681 85.4891 178.388 85.5326 180.331 85.5326C181.635 85.5326 182.654 85.1409 183.389 84.3574C184.148 83.4868 184.681 81.9198 184.989 79.6564C185.321 77.3929 185.487 74.1283 185.487 69.8625C185.487 65.1615 185.321 61.5487 184.989 59.0241C184.657 56.4994 184.1 54.7148 183.318 53.6701C182.536 52.6254 181.469 52.0596 180.118 51.9725H172.225V43.2234H180.083C181.268 43.1363 182.204 42.701 182.891 41.9175C183.603 41.047 184.112 39.5235 184.42 37.3471C184.729 35.0836 184.883 31.9496 184.883 27.945C184.883 23.8534 184.717 20.7194 184.385 18.543C184.053 16.3666 183.496 14.8866 182.714 14.1031C181.955 13.3196 180.912 12.9278 179.585 12.9278C178.423 12.9278 177.38 12.9278 176.456 12.9278C175.531 12.9278 174.713 12.9714 174.002 13.0584C173.315 13.0584 172.734 13.1455 172.26 13.3196L171.762 4.17869C172.592 3.83047 173.374 3.61283 174.109 3.52577C174.868 3.35166 175.685 3.26461 176.562 3.26461C177.463 3.17755 178.518 3.13403 179.727 3.13403ZM174.82 4.17869V94.2818H171.762V4.17869H174.82Z" fill="#318F28"/>
<path d="M203.412 4.17869C203.696 4.17869 203.945 4.48339 204.158 5.09279C204.372 5.61512 204.514 6.3551 204.585 7.31272L212.479 94.2818H209.243L202.878 20.3711C202.784 19.1523 202.677 17.9336 202.558 16.7148C202.464 15.4089 202.369 14.1902 202.274 13.0584H201.278C201.184 14.1902 201.089 15.4089 200.994 16.7148C200.899 17.9336 200.792 19.1523 200.674 20.3711L194.309 94.2818H191.074L198.967 7.31272C199.038 6.3551 199.181 5.61512 199.394 5.09279C199.607 4.48339 199.856 4.17869 200.141 4.17869H203.412ZM207.963 56.1512V66.0756H195.518V56.1512H207.963Z" fill="#318F28"/>
<path d="M219.059 4.17869V94.2818H215.93V4.17869H219.059ZM230.757 41.134V51.0584H218.775V41.134H230.757ZM233.495 4.17869V94.2818H230.366V4.17869H233.495Z" fill="#318F28"/>
<path d="M242.81 4.17869V94.2818H239.681V4.17869H242.81ZM254.508 41.134V51.0584H242.525V41.134H254.508ZM257.246 4.17869V94.2818H254.117V4.17869H257.246Z" fill="#318F28"/>
<path d="M270.685 3.00344C271.989 3.00344 273.103 3.04697 274.027 3.13403C274.952 3.13403 275.793 3.22108 276.552 3.39519C277.334 3.56931 278.164 3.83047 279.041 4.17869L278.543 13.4502C278.045 13.2761 277.109 13.1455 275.734 13.0584C274.359 12.9714 272.688 12.9278 270.72 12.9278C269.583 12.9278 268.67 13.4502 267.983 14.4949C267.319 15.4525 266.833 17.1936 266.525 19.7182C266.217 22.1558 266.051 25.5945 266.027 30.0344C266.027 33.8648 266.169 37.1294 266.454 39.8282C266.738 42.4399 267.212 44.4422 267.876 45.835C268.54 47.1409 269.44 47.7938 270.578 47.7938H278.578L278.685 57.3265C278.377 57.3265 277.986 57.37 277.512 57.457C277.038 57.457 276.469 57.5006 275.805 57.5876C275.141 57.5876 274.371 57.6312 273.494 57.7182C272.64 57.7182 271.669 57.7182 270.578 57.7182C269.772 57.7182 269.097 58.4582 268.551 59.9381C268.03 61.331 267.627 63.7686 267.343 67.2509L265.209 94.2818H261.867L264.142 66.7285C264.356 64.1168 264.64 61.9404 264.996 60.1993C265.351 58.4582 265.743 57.1088 266.169 56.1512C266.62 55.1065 267.058 54.4101 267.485 54.0619L267.449 53.4089C266.359 52.7995 265.47 51.4937 264.783 49.4914C264.119 47.4021 263.633 44.6598 263.325 41.2646C263.04 37.8694 262.898 33.9084 262.898 29.3815C262.898 22.9393 263.159 17.803 263.68 13.9725C264.225 10.142 265.067 7.35625 266.205 5.61513C267.366 3.874 268.86 3.00344 270.685 3.00344ZM279.041 4.17869V94.2818H275.912V4.17869H279.041Z" fill="#318F28"/>
<path d="M316.337 4.17869C317.191 4.17869 317.617 5.78923 317.617 9.01031L318.648 94.2818H315.519L314.63 13.7113H313.884L308.408 80.1787C308.218 82.7904 307.768 84.0962 307.057 84.0962H304.248C303.513 84.0962 303.039 82.7904 302.826 80.1787L297.35 13.7113H296.639L295.786 94.2818H292.657L293.617 9.01031C293.664 5.78923 294.103 4.17869 294.932 4.17869H298.488C299.152 4.17869 299.59 5.48454 299.803 8.09622L304.39 63.0722C304.58 65.0745 304.734 67.0767 304.852 69.079C304.995 71.0813 305.149 73.1272 305.315 75.2165H305.955C306.121 73.1272 306.275 71.0813 306.417 69.079C306.559 67.0767 306.713 64.9874 306.879 62.811L311.466 8.09622C311.656 5.48454 312.106 4.17869 312.817 4.17869H316.337Z" fill="#318F28"/>
<path d="M333.118 2.48111C334.896 2.48111 336.401 3.26461 337.634 4.83161C338.89 6.39863 339.886 9.01031 340.621 12.6667C341.379 16.236 341.924 21.0241 342.256 27.0309C342.612 33.0378 342.79 40.4376 342.79 49.2302C342.79 58.0229 342.612 65.4227 342.256 71.4296C341.924 77.4364 341.379 82.268 340.621 85.9244C339.886 89.4937 338.89 92.0619 337.634 93.6289C336.401 95.1959 334.896 95.9794 333.118 95.9794C331.34 95.9794 329.823 95.1959 328.567 93.6289C327.334 92.0619 326.339 89.4937 325.58 85.9244C324.822 82.268 324.265 77.4364 323.909 71.4296C323.577 65.4227 323.411 58.0229 323.411 49.2302C323.411 40.4376 323.577 33.0378 323.909 27.0309C324.265 21.0241 324.822 16.236 325.58 12.6667C326.339 9.01031 327.334 6.39863 328.567 4.83161C329.823 3.26461 331.34 2.48111 333.118 2.48111ZM333.118 12.7973C331.506 12.7973 330.226 13.929 329.278 16.1924C328.354 18.4559 327.69 22.2428 327.287 27.5533C326.908 32.7766 326.718 40.0023 326.718 49.2302C326.718 58.3711 326.908 65.5968 327.287 70.9072C327.69 76.2176 328.354 80.0046 329.278 82.268C330.226 84.5315 331.506 85.6632 333.118 85.6632C334.73 85.6632 335.998 84.5315 336.923 82.268C337.871 80.0046 338.535 76.2176 338.914 70.9072C339.317 65.5968 339.518 58.3711 339.518 49.2302C339.518 40.0023 339.317 32.7766 338.914 27.5533C338.535 22.2428 337.871 18.4559 336.923 16.1924C335.998 13.929 334.73 12.7973 333.118 12.7973Z" fill="#318F28"/>
<path d="M375.258 4.17869C374.808 8.96678 374.369 13.4502 373.943 17.6289C373.54 21.8076 373.125 25.638 372.698 29.1203C372.271 32.5155 371.797 35.5189 371.276 38.1306C370.754 40.6552 370.162 42.701 369.498 44.268C368.858 45.748 368.099 46.6621 367.222 47.0103V47.5326C368.147 47.8809 368.953 48.795 369.64 50.2749C370.351 51.7549 370.968 53.8442 371.489 56.543C372.034 59.1546 372.532 62.3322 372.983 66.0756C373.457 69.732 373.919 73.9542 374.369 78.7423C374.843 83.4433 375.353 88.6231 375.898 94.2818H372.591C371.904 87.4914 371.288 81.4845 370.743 76.2612C370.197 71.0378 369.64 66.6415 369.071 63.0722C368.526 59.4158 367.886 56.6735 367.151 54.8454C366.44 52.9301 365.563 51.9725 364.52 51.9725L364.556 42.701C365.528 42.701 366.357 41.7434 367.045 39.8282C367.756 37.8259 368.384 35.0836 368.929 31.6014C369.474 28.1191 369.996 24.071 370.494 19.4571C370.991 14.756 371.513 9.66323 372.058 4.17869H375.258ZM349.658 4.17869C350.203 9.66323 350.712 14.756 351.186 19.4571C351.684 24.071 352.206 28.1191 352.751 31.6014C353.296 35.0836 353.924 37.8259 354.635 39.8282C355.347 41.7434 356.176 42.701 357.124 42.701L357.16 51.9725C356.117 51.9725 355.228 52.9301 354.493 54.8454C353.782 56.6735 353.142 59.4158 352.573 63.0722C352.028 66.6415 351.483 71.0378 350.938 76.2612C350.392 81.4845 349.776 87.4914 349.089 94.2818H345.817C346.363 88.6231 346.86 83.4433 347.311 78.7423C347.785 73.9542 348.247 69.732 348.698 66.0756C349.148 62.3322 349.646 59.1546 350.191 56.543C350.736 53.8442 351.352 51.7549 352.04 50.2749C352.727 48.795 353.533 47.8809 354.458 47.5326V47.0103C353.581 46.6621 352.81 45.748 352.146 44.268C351.506 42.701 350.926 40.6552 350.404 38.1306C349.906 35.5189 349.444 32.5155 349.017 29.1203C348.591 25.638 348.164 21.8076 347.737 17.6289C347.334 13.4502 346.908 8.96678 346.457 4.17869H349.658ZM360.182 42.701V51.9725H356.093V42.701H360.182ZM362.422 4.17869V32.3849C362.422 34.9966 362.387 37.4777 362.316 39.8282C362.268 42.1787 362.15 44.6163 361.96 47.1409C362.102 49.5785 362.209 52.016 362.28 54.4536C362.375 56.8912 362.422 59.2417 362.422 61.5052V94.2818H359.436V61.5052C359.436 59.2417 359.483 56.8912 359.578 54.4536C359.673 52.016 359.779 49.5785 359.898 47.1409C359.732 44.6163 359.613 42.1787 359.542 39.8282C359.471 37.4777 359.436 34.9966 359.436 32.3849V4.17869H362.422ZM365.622 42.701V51.9725H361.747V42.701H365.622Z" fill="#318F28"/>
<path d="M384.617 4.04811C385.778 4.04811 386.952 4.04811 388.137 4.04811C389.346 4.04811 390.531 4.13517 391.693 4.30928C392.878 4.39634 394.016 4.57045 395.106 4.83161L394.964 13.8419H385.115C384.38 13.8419 383.846 14.5384 383.514 15.9313C383.183 17.2371 383.017 19.4135 383.017 22.4605V76C383.017 79.047 383.183 81.2669 383.514 82.6598C383.846 84.0527 384.38 84.7491 385.115 84.7491H394.964L395.106 93.6289C394.016 93.89 392.878 94.0641 391.693 94.1512C390.531 94.2383 389.346 94.2818 388.137 94.2818C386.952 94.3688 385.778 94.4124 384.617 94.4124C383.171 94.4124 382.021 93.0195 381.168 90.2337C380.314 87.3608 379.888 83.5304 379.888 78.7423V19.7182C379.888 14.8431 380.314 11.0126 381.168 8.22681C382.021 5.44101 383.171 4.04811 384.617 4.04811ZM380.492 42.0481H393.577V51.3196H380.492V42.0481Z" fill="#318F28"/>
<path d="M422.99 4.17869L422.706 13.7113H411.043V94.2818H407.914V4.17869C409.194 3.91753 410.463 3.74342 411.719 3.65636C412.999 3.48225 414.267 3.39519 415.523 3.39519C416.78 3.39519 418.024 3.48225 419.257 3.65636C420.513 3.74342 421.758 3.91753 422.99 4.17869ZM416.235 42.9622C418.273 42.9622 419.873 43.8328 421.035 45.5739C422.22 47.228 423.061 49.9702 423.559 53.8007C424.057 57.6312 424.306 62.8545 424.306 69.4708C424.306 75.3036 424.128 79.9611 423.773 83.4433C423.417 86.8385 422.884 89.4066 422.172 91.1478C421.461 92.8889 420.561 94.0206 419.47 94.543C418.403 95.1523 417.147 95.457 415.701 95.457C414.824 95.457 413.971 95.4135 413.141 95.3265C412.311 95.2394 411.47 95.1088 410.617 94.9347C409.787 94.7606 408.91 94.543 407.985 94.2818L408.483 85.1409C409.005 85.2279 409.941 85.315 411.292 85.4021C412.667 85.4891 414.314 85.5326 416.235 85.5326C417.538 85.5326 418.546 85.0974 419.257 84.2268C419.968 83.3562 420.454 81.7457 420.715 79.3952C420.999 76.9576 421.141 73.4754 421.141 68.9485C421.141 64.6827 421.011 61.331 420.75 58.8935C420.513 56.4559 420.039 54.7148 419.328 53.6701C418.617 52.5384 417.586 51.9725 416.235 51.9725H408.448V42.9622H416.235Z" fill="#318F28"/>
<path d="M445.698 4.17869L439.084 72.0825C438.681 76.0871 438.243 79.7869 437.769 83.1821C437.295 86.5773 436.726 89.3631 436.062 91.5395C435.398 93.7159 434.569 94.9347 433.573 95.1959C433.17 95.2829 432.696 95.2394 432.151 95.0653C431.629 94.9782 431.096 94.7606 430.551 94.4124C430.029 94.0642 429.567 93.7159 429.164 93.3677L429.52 84.8797C430.705 85.228 431.629 85.4021 432.293 85.4021C432.98 85.4021 433.514 85.0103 433.893 84.2268C434.296 83.3562 434.64 81.9633 434.924 80.0481C435.209 78.1329 435.54 75.4777 435.92 72.0825L436.738 64.378L437.093 60.3299L442.498 4.17869H445.698ZM430.089 4.17869L435.031 56.2818C435.173 57.6747 435.446 58.3711 435.849 58.3711H437.591L438.053 68.0344H434.995C434.332 68.0344 433.798 67.5556 433.395 66.5979C433.016 65.5533 432.732 63.9863 432.542 61.8969L426.853 4.17869H430.089Z" fill="#318F28"/>
<path d="M458.017 4.17869V94.2818H454.888V4.17869H458.017ZM465.946 4.17869V14.3643H446.995V4.17869H465.946Z" fill="#318F28"/>
<path d="M488.278 4.17869V94.2818H485.256V28.5979C485.256 26.8568 485.267 25.1157 485.291 23.3746C485.315 21.6335 485.362 19.9359 485.433 18.2818H485.256C485.09 19.9359 484.888 21.6335 484.651 23.3746C484.414 25.0286 484.189 26.5956 483.975 28.0756L473.095 94.2818H469.895V4.17869H472.917V69.2096C472.917 71.0378 472.894 72.866 472.846 74.6942C472.823 76.4353 472.787 78.1764 472.74 79.9175H472.882C473.071 78.2635 473.285 76.6094 473.522 74.9553C473.783 73.3013 474.032 71.6907 474.269 70.1237L485.042 4.17869H488.278Z" fill="#318F28"/>
<path d="M529.241 4.17869V94.2818H526.183V4.17869H529.241ZM505.454 4.17869V94.2818H502.396V4.17869H505.454ZM527.072 84.8797V94.2818H505.169L505.134 84.8797H527.072ZM517.33 4.17869V94.2818H514.307V4.17869H517.33Z" fill="#318F28"/>
<path d="M551.916 4.17869C551.442 9.1409 550.991 13.7549 550.565 18.0206C550.138 22.2864 549.7 26.1168 549.249 29.512C548.822 32.9072 548.348 35.8671 547.827 38.3918C547.329 40.8293 546.76 42.7881 546.12 44.268C545.48 45.748 544.733 46.6621 543.88 47.0103V47.5326C544.805 47.8809 545.611 48.795 546.298 50.2749C546.985 51.7549 547.59 53.8442 548.111 56.543C548.657 59.1546 549.154 62.3322 549.605 66.0756C550.079 69.732 550.541 73.9542 550.991 78.7423C551.465 83.4433 551.987 88.6231 552.556 94.2818H549.249C548.585 87.4914 547.993 81.4845 547.471 76.2612C546.95 71.0378 546.393 66.6415 545.8 63.0722C545.231 59.4158 544.568 56.6735 543.809 54.8454C543.05 52.9301 542.102 51.9725 540.964 51.9725V42.701C542.031 42.701 542.932 41.7434 543.667 39.8282C544.425 37.8259 545.089 35.0836 545.658 31.6014C546.227 28.1191 546.748 24.071 547.222 19.4571C547.696 14.756 548.194 9.66323 548.716 4.17869H551.916ZM538.511 4.17869V32.3849C538.511 34.9966 538.476 37.5212 538.404 39.9588C538.333 42.3963 538.227 44.7904 538.084 47.1409C538.203 49.5785 538.298 52.016 538.369 54.4536C538.464 56.8912 538.511 59.2417 538.511 61.5052V94.2818H535.418V4.17869H538.511ZM542.28 42.701V51.9725H537.551V42.701H542.28Z" fill="#318F28"/>
<path d="M559.867 4.17869V94.2818H556.738V4.17869H559.867Z" fill="#318F28"/>
<path d="M583.431 4.17869V94.2818H580.302V13.5808H575.253C574.376 13.5808 573.735 14.2772 573.333 15.6701C572.953 17.063 572.74 19.4135 572.693 22.7217C572.598 28.6415 572.467 34.3001 572.301 39.6976C572.159 45.008 571.969 50.1008 571.732 54.9759C571.495 59.764 571.187 64.4215 570.808 68.9485C570.452 73.3883 570.014 77.6976 569.492 81.8763C568.995 86.055 568.39 90.1901 567.679 94.2818H564.763C565.972 87.0561 566.909 79.4387 567.572 71.4296C568.236 63.3333 568.722 55.063 569.03 46.6186C569.362 38.0871 569.587 29.5556 569.706 21.0241C569.753 15.7136 570.215 11.5785 571.092 8.61856C571.969 5.65865 573.167 4.17869 574.684 4.17869H583.431ZM566.221 93.3677L565.901 114H563.732V93.3677H566.221ZM586.453 84.8797V94.2818H563.732V84.8797H586.453ZM586.453 93.3677V114H584.284L583.999 93.3677H586.453Z" fill="#318F28"/>
<path d="M607.159 4.17869V13.5808H599.622C598.01 13.5808 597.133 16.6277 596.99 22.7217C596.801 30.3826 596.635 36.9989 596.493 42.5704C596.35 48.142 596.184 53.0172 595.995 57.1959C595.829 61.2875 595.627 64.9439 595.39 68.165C595.153 71.299 594.833 74.3459 594.43 77.3058C593.98 80.8751 593.458 83.9656 592.866 86.5773C592.273 89.1019 591.586 91.0607 590.804 92.4536C590.045 93.7594 589.192 94.4124 588.243 94.4124L587.959 85.5326C588.718 84.6621 589.381 83.3998 589.95 81.7457C590.543 80.0916 591.052 77.567 591.479 74.1718C591.763 71.9084 592.001 69.6449 592.19 67.3814C592.404 65.118 592.581 62.6369 592.724 59.9381C592.889 57.1524 593.032 53.9748 593.15 50.4055C593.292 46.7491 593.423 42.5269 593.541 37.7388C593.66 32.8637 593.79 27.1615 593.932 20.6323C594.217 9.66323 595.841 4.17869 598.804 4.17869H607.159ZM607.657 4.17869V94.2818H604.528V4.17869H607.657Z" fill="#318F28"/>
<path d="M632.24 4.17869V94.2818H629.218V28.5979C629.218 26.8568 629.229 25.1157 629.253 23.3746C629.277 21.6335 629.324 19.9359 629.395 18.2818H629.218C629.052 19.9359 628.85 21.6335 628.613 23.3746C628.376 25.0286 628.151 26.5956 627.938 28.0756L617.057 94.2818H613.857V4.17869H616.88V69.2096C616.88 71.0378 616.856 72.866 616.808 74.6942C616.785 76.4353 616.749 78.1764 616.702 79.9175H616.844C617.034 78.2635 617.247 76.6094 617.484 74.9553C617.745 73.3013 617.994 71.6907 618.231 70.1237L629.004 4.17869H632.24Z" fill="#318F28"/>
<path d="M646.406 3.13403C648.421 3.13403 650.021 3.83047 651.206 5.22337C652.391 6.52921 653.245 8.87973 653.766 12.2749C654.311 15.6701 654.584 20.4582 654.584 26.6392C654.584 33.0813 654.252 38 653.588 41.3952C652.948 44.7904 651.893 46.7491 650.424 47.2715V47.7938C652.249 48.4032 653.517 50.7537 654.228 54.8454C654.963 58.937 655.331 64.5956 655.331 71.8213C655.331 78.0023 655.07 82.7904 654.548 86.1856C654.027 89.5807 653.185 91.9748 652.024 93.3677C650.886 94.6735 649.381 95.3265 647.508 95.3265C646.109 95.3265 644.901 95.2829 643.881 95.1959C642.886 95.1959 641.961 95.1088 641.108 94.9347C640.255 94.7606 639.366 94.543 638.441 94.2818L638.939 85.1409C639.46 85.2279 640.444 85.315 641.89 85.4021C643.36 85.4891 645.066 85.5326 647.01 85.5326C648.314 85.5326 649.333 85.1409 650.068 84.3574C650.827 83.4868 651.36 81.9198 651.668 79.6564C652 77.3929 652.166 74.1283 652.166 69.8625C652.166 65.1615 652 61.5487 651.668 59.0241C651.336 56.4994 650.779 54.7148 649.997 53.6701C649.215 52.6254 648.148 52.0596 646.797 51.9725H638.903V43.2234H646.761C647.947 43.1363 648.883 42.701 649.57 41.9175C650.281 41.047 650.791 39.5235 651.099 37.3471C651.407 35.0836 651.561 31.9496 651.561 27.945C651.561 23.8534 651.396 20.7194 651.064 18.543C650.732 16.3666 650.175 14.8866 649.393 14.1031C648.634 13.3196 647.591 12.9278 646.264 12.9278C645.102 12.9278 644.059 12.9278 643.135 12.9278C642.21 12.9278 641.392 12.9714 640.681 13.0584C639.994 13.0584 639.413 13.1455 638.939 13.3196L638.441 4.17869C639.271 3.83047 640.053 3.61283 640.788 3.52577C641.546 3.35166 642.364 3.26461 643.241 3.26461C644.142 3.17755 645.197 3.13403 646.406 3.13403ZM641.499 4.17869V94.2818H638.441V4.17869H641.499Z" fill="#318F28"/>
<path d="M678.873 4.17869V94.2818H675.851V28.5979C675.851 26.8568 675.863 25.1157 675.886 23.3746C675.91 21.6335 675.957 19.9359 676.029 18.2818H675.851C675.685 19.9359 675.483 21.6335 675.246 23.3746C675.009 25.0286 674.784 26.5956 674.571 28.0756L663.69 94.2818H660.49V4.17869H663.513V69.2096C663.513 71.0378 663.489 72.866 663.442 74.6942C663.418 76.4353 663.382 78.1764 663.335 79.9175H663.477C663.667 78.2635 663.88 76.6094 664.117 74.9553C664.378 73.3013 664.627 71.6907 664.864 70.1237L675.637 4.17869H678.873Z" fill="#318F28"/>
<path d="M708.257 4.17869C709.111 4.17869 709.537 5.78923 709.537 9.01031L710.568 94.2818H707.439L706.55 13.7113H705.804L700.328 80.1787C700.138 82.7904 699.688 84.0962 698.977 84.0962H696.168C695.433 84.0962 694.959 82.7904 694.746 80.1787L689.27 13.7113H688.559L687.706 94.2818H684.577L685.537 9.01031C685.584 5.78923 686.022 4.17869 686.852 4.17869H690.408C691.072 4.17869 691.51 5.48454 691.723 8.09622L696.31 63.0722C696.5 65.0745 696.654 67.0767 696.772 69.079C696.915 71.0813 697.069 73.1272 697.235 75.2165H697.875C698.041 73.1272 698.195 71.0813 698.337 69.079C698.479 67.0767 698.633 64.9874 698.799 62.811L703.386 8.09622C703.576 5.48454 704.026 4.17869 704.737 4.17869H708.257Z" fill="#318F28"/>
<path d="M741.56 4.17869V94.2818H738.431V13.5808H733.382C732.505 13.5808 731.865 14.2772 731.462 15.6701C731.082 17.063 730.869 19.4135 730.822 22.7217C730.727 28.6415 730.596 34.3001 730.431 39.6976C730.288 45.008 730.099 50.1008 729.862 54.9759C729.625 59.764 729.316 64.4215 728.937 68.9485C728.582 73.3883 728.143 77.6976 727.622 81.8763C727.124 86.055 726.519 90.1901 725.808 94.2818H722.893C724.102 87.0561 725.038 79.4387 725.701 71.4296C726.365 63.3333 726.851 55.063 727.159 46.6186C727.491 38.0871 727.716 29.5556 727.835 21.0241C727.882 15.7136 728.345 11.5785 729.222 8.61856C730.099 5.65865 731.296 4.17869 732.813 4.17869H741.56ZM724.35 93.3677L724.03 114H721.861V93.3677H724.35ZM744.582 84.8797V94.2818H721.861V84.8797H744.582ZM744.582 93.3677V114H742.413L742.129 93.3677H744.582Z" fill="#318F28"/>
<path d="M765.289 4.17869V13.5808H757.751C756.139 13.5808 755.262 16.6277 755.12 22.7217C754.93 30.3826 754.764 36.9989 754.622 42.5704C754.479 48.142 754.314 53.0172 754.124 57.1959C753.958 61.2875 753.756 64.9439 753.519 68.165C753.282 71.299 752.962 74.3459 752.559 77.3058C752.109 80.8751 751.588 83.9656 750.995 86.5773C750.402 89.1019 749.715 91.0607 748.933 92.4536C748.174 93.7594 747.321 94.4124 746.373 94.4124L746.088 85.5326C746.847 84.6621 747.51 83.3998 748.079 81.7457C748.672 80.0916 749.182 77.567 749.608 74.1718C749.893 71.9084 750.13 69.6449 750.319 67.3814C750.533 65.118 750.71 62.6369 750.853 59.9381C751.019 57.1524 751.161 53.9748 751.279 50.4055C751.422 46.7491 751.552 42.5269 751.671 37.7388C751.789 32.8637 751.919 27.1615 752.062 20.6323C752.346 9.66323 753.97 4.17869 756.933 4.17869H765.289ZM765.786 4.17869V94.2818H762.657V4.17869H765.786Z" fill="#318F28"/>
<path d="M779.24 3.00344C780.544 3.00344 781.658 3.04697 782.582 3.13403C783.507 3.13403 784.348 3.22108 785.107 3.39519C785.889 3.56931 786.719 3.83047 787.596 4.17869L787.098 13.4502C786.6 13.2761 785.664 13.1455 784.289 13.0584C782.914 12.9714 781.243 12.9278 779.275 12.9278C778.138 12.9278 777.225 13.4502 776.538 14.4949C775.874 15.4525 775.388 17.1936 775.08 19.7182C774.772 22.1558 774.606 25.5945 774.582 30.0344C774.582 33.8648 774.724 37.1294 775.009 39.8282C775.293 42.4399 775.767 44.4422 776.431 45.835C777.095 47.1409 777.995 47.7938 779.133 47.7938H787.133L787.24 57.3265C786.932 57.3265 786.541 57.37 786.067 57.457C785.593 57.457 785.024 57.5006 784.36 57.5876C783.696 57.5876 782.926 57.6312 782.049 57.7182C781.195 57.7182 780.224 57.7182 779.133 57.7182C778.327 57.7182 777.652 58.4582 777.107 59.9381C776.585 61.331 776.182 63.7686 775.898 67.2509L773.764 94.2818H770.422L772.697 66.7285C772.911 64.1168 773.195 61.9404 773.551 60.1993C773.906 58.4582 774.297 57.1088 774.724 56.1512C775.175 55.1065 775.613 54.4101 776.04 54.0619L776.004 53.4089C774.914 52.7995 774.025 51.4937 773.337 49.4914C772.674 47.4021 772.188 44.6598 771.88 41.2646C771.595 37.8694 771.453 33.9084 771.453 29.3815C771.453 22.9393 771.714 17.803 772.235 13.9725C772.78 10.142 773.622 7.35625 774.76 5.61513C775.921 3.874 777.415 3.00344 779.24 3.00344ZM787.596 4.17869V94.2818H784.467V4.17869H787.596Z" fill="#318F28"/>
<path d="M809.674 3.13403C811.689 3.13403 813.289 3.83047 814.474 5.22337C815.659 6.52921 816.513 8.87973 817.034 12.2749C817.579 15.6701 817.852 20.4582 817.852 26.6392C817.852 33.0813 817.52 38 816.856 41.3952C816.216 44.7904 815.161 46.7491 813.692 47.2715V47.7938C815.517 48.4032 816.785 50.7537 817.496 54.8454C818.231 58.937 818.599 64.5956 818.599 71.8213C818.599 78.0023 818.338 82.7904 817.816 86.1856C817.295 89.5807 816.453 91.9748 815.292 93.3677C814.154 94.6735 812.649 95.3265 810.776 95.3265C809.378 95.3265 808.169 95.2829 807.149 95.1959C806.154 95.1959 805.229 95.1088 804.376 94.9347C803.523 94.7606 802.634 94.543 801.709 94.2818L802.207 85.1409C802.729 85.2279 803.712 85.315 805.158 85.4021C806.628 85.4891 808.335 85.5326 810.278 85.5326C811.582 85.5326 812.601 85.1409 813.336 84.3574C814.095 83.4868 814.628 81.9198 814.936 79.6564C815.268 77.3929 815.434 74.1283 815.434 69.8625C815.434 65.1615 815.268 61.5487 814.936 59.0241C814.604 56.4994 814.047 54.7148 813.265 53.6701C812.483 52.6254 811.416 52.0596 810.065 51.9725H802.172V43.2234H810.03C811.215 43.1363 812.151 42.701 812.839 41.9175C813.55 41.047 814.059 39.5235 814.367 37.3471C814.676 35.0836 814.83 31.9496 814.83 27.945C814.83 23.8534 814.664 20.7194 814.332 18.543C814 16.3666 813.443 14.8866 812.661 14.1031C811.902 13.3196 810.859 12.9278 809.532 12.9278C808.37 12.9278 807.327 12.9278 806.403 12.9278C805.478 12.9278 804.661 12.9714 803.949 13.0584C803.262 13.0584 802.681 13.1455 802.207 13.3196L801.709 4.17869C802.539 3.83047 803.321 3.61283 804.056 3.52577C804.815 3.35166 805.632 3.26461 806.509 3.26461C807.41 3.17755 808.465 3.13403 809.674 3.13403ZM804.767 4.17869V94.2818H801.709V4.17869H804.767Z" fill="#318F28"/>
<path d="M833.359 4.17869C833.643 4.17869 833.892 4.48339 834.105 5.09279C834.319 5.61512 834.461 6.3551 834.532 7.31272L842.426 94.2818H839.19L832.825 20.3711C832.731 19.1523 832.624 17.9336 832.505 16.7148C832.411 15.4089 832.316 14.1902 832.221 13.0584H831.225C831.131 14.1902 831.036 15.4089 830.941 16.7148C830.846 17.9336 830.739 19.1523 830.621 20.3711L824.256 94.2818H821.021L828.914 7.31272C828.985 6.3551 829.128 5.61512 829.341 5.09279C829.554 4.48339 829.803 4.17869 830.088 4.17869H833.359ZM837.91 56.1512V66.0756H825.465V56.1512H837.91Z" fill="#318F28"/>
<path d="M872.722 4.17869V94.2818H869.664V4.17869H872.722ZM848.935 4.17869V94.2818H845.877V4.17869H848.935ZM870.553 84.8797V94.2818H848.651L848.615 84.8797H870.553ZM860.811 4.17869V94.2818H857.789V4.17869H860.811Z" fill="#318F28"/>
<path d="M887.681 2.48111C889.459 2.48111 890.964 3.26461 892.197 4.83161C893.453 6.39863 894.449 9.01031 895.184 12.6667C895.942 16.236 896.487 21.0241 896.819 27.0309C897.175 33.0378 897.353 40.4376 897.353 49.2302C897.353 58.0229 897.175 65.4227 896.819 71.4296C896.487 77.4364 895.942 82.268 895.184 85.9244C894.449 89.4937 893.453 92.0619 892.197 93.6289C890.964 95.1959 889.459 95.9794 887.681 95.9794C885.903 95.9794 884.386 95.1959 883.13 93.6289C881.897 92.0619 880.902 89.4937 880.143 85.9244C879.385 82.268 878.828 77.4364 878.472 71.4296C878.14 65.4227 877.974 58.0229 877.974 49.2302C877.974 40.4376 878.14 33.0378 878.472 27.0309C878.828 21.0241 879.385 16.236 880.143 12.6667C880.902 9.01031 881.897 6.39863 883.13 4.83161C884.386 3.26461 885.903 2.48111 887.681 2.48111ZM887.681 12.7973C886.069 12.7973 884.789 13.929 883.841 16.1924C882.917 18.4559 882.253 22.2428 881.85 27.5533C881.471 32.7766 881.281 40.0023 881.281 49.2302C881.281 58.3711 881.471 65.5968 881.85 70.9072C882.253 76.2176 882.917 80.0046 883.841 82.268C884.789 84.5315 886.069 85.6632 887.681 85.6632C889.293 85.6632 890.561 84.5315 891.486 82.268C892.434 80.0046 893.098 76.2176 893.477 70.9072C893.88 65.5968 894.081 58.3711 894.081 49.2302C894.081 40.0023 893.88 32.7766 893.477 27.5533C893.098 22.2428 892.434 18.4559 891.486 16.1924C890.561 13.929 889.293 12.7973 887.681 12.7973Z" fill="#318F28"/>
<path d="M907.058 4.04811C908.765 4.04811 910.484 4.09164 912.214 4.17869C913.968 4.26575 915.639 4.52693 917.228 4.9622L917.085 13.8419H908.09C907.26 13.8419 906.644 14.5819 906.241 16.0619C905.861 17.4548 905.672 19.8053 905.672 23.1134V94.2818H902.578V21.0241C902.578 15.9748 902.993 11.8832 903.823 8.74914C904.676 5.61512 905.755 4.04811 907.058 4.04811Z" fill="#318F28"/>
<path d="M929.314 2.48111C931.092 2.48111 932.597 3.26461 933.83 4.83161C935.086 6.39863 936.082 9.01031 936.817 12.6667C937.575 16.236 938.12 21.0241 938.452 27.0309C938.808 33.0378 938.986 40.4376 938.986 49.2302C938.986 58.0229 938.808 65.4227 938.452 71.4296C938.12 77.4364 937.575 82.268 936.817 85.9244C936.082 89.4937 935.086 92.0619 933.83 93.6289C932.597 95.1959 931.092 95.9794 929.314 95.9794C927.536 95.9794 926.019 95.1959 924.763 93.6289C923.53 92.0619 922.535 89.4937 921.776 85.9244C921.018 82.268 920.461 77.4364 920.105 71.4296C919.773 65.4227 919.607 58.0229 919.607 49.2302C919.607 40.4376 919.773 33.0378 920.105 27.0309C920.461 21.0241 921.018 16.236 921.776 12.6667C922.535 9.01031 923.53 6.39863 924.763 4.83161C926.019 3.26461 927.536 2.48111 929.314 2.48111ZM929.314 12.7973C927.702 12.7973 926.422 13.929 925.474 16.1924C924.55 18.4559 923.886 22.2428 923.483 27.5533C923.104 32.7766 922.914 40.0023 922.914 49.2302C922.914 58.3711 923.104 65.5968 923.483 70.9072C923.886 76.2176 924.55 80.0046 925.474 82.268C926.422 84.5315 927.702 85.6632 929.314 85.6632C930.926 85.6632 932.194 84.5315 933.119 82.268C934.067 80.0046 934.731 76.2176 935.11 70.9072C935.513 65.5968 935.714 58.3711 935.714 49.2302C935.714 40.0023 935.513 32.7766 935.11 27.5533C934.731 22.2428 934.067 18.4559 933.119 16.1924C932.194 13.929 930.926 12.7973 929.314 12.7973Z" fill="#318F28"/>
<path d="M957.746 3.13403C959.737 3.13403 961.314 3.83047 962.475 5.22337C963.66 6.52921 964.514 8.87973 965.035 12.2749C965.557 15.6701 965.818 20.4582 965.818 26.6392C965.818 33.0813 965.498 38 964.858 41.3952C964.218 44.7904 963.163 46.7491 961.693 47.2715V47.7938C963.518 48.4032 964.774 50.7537 965.462 54.8454C966.173 58.937 966.529 64.5956 966.529 71.8213C966.529 78.0023 966.268 82.7904 965.746 86.1856C965.225 89.5807 964.395 91.9748 963.258 93.3677C962.143 94.6735 960.662 95.3265 958.813 95.3265C957.699 95.3265 956.656 95.2394 955.684 95.0653C954.712 94.8912 953.788 94.5865 952.911 94.1512C952.057 93.7159 951.228 93.15 950.422 92.4536L950.67 84.0962C951.595 84.4445 952.709 84.8362 954.013 85.2715C955.34 85.6197 956.774 85.7938 958.315 85.7938C959.571 85.7938 960.555 85.4021 961.266 84.6186C962.001 83.748 962.523 82.181 962.831 79.9175C963.163 77.567 963.329 74.2153 963.329 69.8625C963.329 65.2486 963.163 61.6793 962.831 59.1546C962.499 56.543 961.942 54.7148 961.16 53.6701C960.401 52.6254 959.37 52.1031 958.066 52.1031H953.942V43.0928H958.066C959.228 43.0928 960.14 42.6575 960.804 41.7869C961.468 40.9164 961.942 39.3929 962.226 37.2165C962.534 35.0401 962.689 31.9496 962.689 27.945C962.689 23.7663 962.523 20.5888 962.191 18.4124C961.883 16.1489 961.349 14.6254 960.591 13.8419C959.856 12.9714 958.849 12.5361 957.568 12.5361C956.217 12.5361 955.008 12.7102 953.942 13.0584C952.899 13.4066 951.998 13.7113 951.239 13.9725L950.99 5.22337C952.081 4.52692 953.148 4.00458 954.191 3.65636C955.234 3.30814 956.419 3.13403 957.746 3.13403Z" fill="#318F28"/>
<path d="M989.136 4.17869V94.2818H986.007V13.5808H980.958C980.081 13.5808 979.441 14.2772 979.038 15.6701C978.658 17.063 978.445 19.4135 978.398 22.7217C978.303 28.6415 978.172 34.3001 978.006 39.6976C977.864 45.008 977.675 50.1008 977.438 54.9759C977.201 59.764 976.892 64.4215 976.513 68.9485C976.158 73.3883 975.719 77.6976 975.198 81.8763C974.7 86.055 974.095 90.1901 973.384 94.2818H970.469C971.677 87.0561 972.614 79.4387 973.277 71.4296C973.941 63.3333 974.427 55.063 974.735 46.6186C975.067 38.0871 975.292 29.5556 975.411 21.0241C975.458 15.7136 975.92 11.5785 976.798 8.61856C977.675 5.65865 978.872 4.17869 980.389 4.17869H989.136ZM971.926 93.3677L971.606 114H969.437V93.3677H971.926ZM992.158 84.8797V94.2818H969.437V84.8797H992.158ZM992.158 93.3677V114H989.989L989.705 93.3677H992.158Z" fill="#318F28"/>
<path d="M1005.05 2.48111C1006.82 2.48111 1008.33 3.26461 1009.56 4.83161C1010.82 6.39863 1011.81 9.01031 1012.55 12.6667C1013.31 16.236 1013.85 21.0241 1014.18 27.0309C1014.54 33.0378 1014.72 40.4376 1014.72 49.2302C1014.72 58.0229 1014.54 65.4227 1014.18 71.4296C1013.85 77.4364 1013.31 82.268 1012.55 85.9244C1011.81 89.4937 1010.82 92.0619 1009.56 93.6289C1008.33 95.1959 1006.82 95.9794 1005.05 95.9794C1003.27 95.9794 1001.75 95.1959 1000.49 93.6289C999.262 92.0619 998.266 89.4937 997.508 85.9244C996.749 82.268 996.192 77.4364 995.836 71.4296C995.505 65.4227 995.339 58.0229 995.339 49.2302C995.339 40.4376 995.505 33.0378 995.836 27.0309C996.192 21.0241 996.749 16.236 997.508 12.6667C998.266 9.01031 999.262 6.39863 1000.49 4.83161C1001.75 3.26461 1003.27 2.48111 1005.05 2.48111ZM1005.05 12.7973C1003.43 12.7973 1002.15 13.929 1001.21 16.1924C1000.28 18.4559 999.617 22.2428 999.214 27.5533C998.835 32.7766 998.645 40.0023 998.645 49.2302C998.645 58.3711 998.835 65.5968 999.214 70.9072C999.617 76.2176 1000.28 80.0046 1001.21 82.268C1002.15 84.5315 1003.43 85.6632 1005.05 85.6632C1006.66 85.6632 1007.93 84.5315 1008.85 82.268C1009.8 80.0046 1010.46 76.2176 1010.84 70.9072C1011.24 65.5968 1011.45 58.3711 1011.45 49.2302C1011.45 40.0023 1011.24 32.7766 1010.84 27.5533C1010.46 22.2428 1009.8 18.4559 1008.85 16.1924C1007.93 13.929 1006.66 12.7973 1005.05 12.7973Z" fill="#318F28"/>
<path d="M1028.48 3.00344C1030.44 3.00344 1032 3.83047 1033.13 5.48454C1034.27 7.13861 1035.09 10.0115 1035.59 14.1031C1036.09 18.1077 1036.33 23.8099 1036.33 31.2096C1036.33 38.6094 1036.09 44.3551 1035.59 48.4467C1035.11 52.5384 1034.32 55.4112 1033.21 57.0653C1032.11 58.6323 1030.65 59.4158 1028.8 59.4158C1027.8 59.4158 1026.84 59.3287 1025.92 59.1546C1025.02 58.9805 1024.19 58.7629 1023.43 58.5017C1022.67 58.1535 1022.02 57.8053 1021.47 57.457C1020.95 57.1088 1020.58 56.8041 1020.37 56.543L1020.48 49.4914C1021.73 49.4914 1023.04 49.4914 1024.39 49.4914C1025.74 49.4914 1027.08 49.4914 1028.41 49.4914C1029.59 49.4044 1030.53 48.882 1031.21 47.9244C1031.93 46.8797 1032.42 45.0515 1032.71 42.4399C1033.02 39.7411 1033.17 35.9977 1033.17 31.2096C1033.17 26.3345 1033.02 22.5911 1032.71 19.9794C1032.42 17.3677 1031.93 15.5395 1031.21 14.4949C1030.53 13.4502 1029.59 12.9278 1028.41 12.9278C1026.46 12.9278 1024.78 12.9714 1023.36 13.0584C1021.96 13.1455 1021.01 13.2761 1020.51 13.4502L1020.01 4.17869C1020.91 3.83047 1021.76 3.56931 1022.54 3.39519C1023.32 3.22108 1024.17 3.13403 1025.1 3.13403C1026.02 3.04697 1027.15 3.00344 1028.48 3.00344ZM1023.14 4.17869V94.2818H1020.01V4.17869H1023.14Z" fill="#318F28"/>
<path d="M1049.77 2.48111C1051.55 2.48111 1053.05 3.26461 1054.28 4.83161C1055.54 6.39863 1056.54 9.01031 1057.27 12.6667C1058.03 16.236 1058.58 21.0241 1058.91 27.0309C1059.26 33.0378 1059.44 40.4376 1059.44 49.2302C1059.44 58.0229 1059.26 65.4227 1058.91 71.4296C1058.58 77.4364 1058.03 82.268 1057.27 85.9244C1056.54 89.4937 1055.54 92.0619 1054.28 93.6289C1053.05 95.1959 1051.55 95.9794 1049.77 95.9794C1047.99 95.9794 1046.47 95.1959 1045.22 93.6289C1043.98 92.0619 1042.99 89.4937 1042.23 85.9244C1041.47 82.268 1040.92 77.4364 1040.56 71.4296C1040.23 65.4227 1040.06 58.0229 1040.06 49.2302C1040.06 40.4376 1040.23 33.0378 1040.56 27.0309C1040.92 21.0241 1041.47 16.236 1042.23 12.6667C1042.99 9.01031 1043.98 6.39863 1045.22 4.83161C1046.47 3.26461 1047.99 2.48111 1049.77 2.48111ZM1049.77 12.7973C1048.16 12.7973 1046.88 13.929 1045.93 16.1924C1045 18.4559 1044.34 22.2428 1043.94 27.5533C1043.56 32.7766 1043.37 40.0023 1043.37 49.2302C1043.37 58.3711 1043.56 65.5968 1043.94 70.9072C1044.34 76.2176 1045 80.0046 1045.93 82.268C1046.88 84.5315 1048.16 85.6632 1049.77 85.6632C1051.38 85.6632 1052.65 84.5315 1053.57 82.268C1054.52 80.0046 1055.19 76.2176 1055.56 70.9072C1055.97 65.5968 1056.17 58.3711 1056.17 49.2302C1056.17 40.0023 1055.97 32.7766 1055.56 27.5533C1055.19 22.2428 1054.52 18.4559 1053.57 16.1924C1052.65 13.929 1051.38 12.7973 1049.77 12.7973Z" fill="#318F28"/>
<path d="M1072.7 3.13403C1074.72 3.13403 1076.32 3.83047 1077.5 5.22337C1078.69 6.52921 1079.54 8.87973 1080.06 12.2749C1080.61 15.6701 1080.88 20.4582 1080.88 26.6392C1080.88 33.0813 1080.55 38 1079.88 41.3952C1079.24 44.7904 1078.19 46.7491 1076.72 47.2715V47.7938C1078.54 48.4032 1079.81 50.7537 1080.52 54.8454C1081.26 58.937 1081.63 64.5956 1081.63 71.8213C1081.63 78.0023 1081.37 82.7904 1080.84 86.1856C1080.32 89.5807 1079.48 91.9748 1078.32 93.3677C1077.18 94.6735 1075.68 95.3265 1073.8 95.3265C1072.41 95.3265 1071.2 95.2829 1070.18 95.1959C1069.18 95.1959 1068.26 95.1088 1067.4 94.9347C1066.55 94.7606 1065.66 94.543 1064.74 94.2818L1065.23 85.1409C1065.76 85.2279 1066.74 85.315 1068.19 85.4021C1069.66 85.4891 1071.36 85.5326 1073.31 85.5326C1074.61 85.5326 1075.63 85.1409 1076.36 84.3574C1077.12 83.4868 1077.66 81.9198 1077.96 79.6564C1078.3 77.3929 1078.46 74.1283 1078.46 69.8625C1078.46 65.1615 1078.3 61.5487 1077.96 59.0241C1077.63 56.4994 1077.08 54.7148 1076.29 53.6701C1075.51 52.6254 1074.44 52.0596 1073.09 51.9725H1065.2V43.2234H1073.06C1074.24 43.1363 1075.18 42.701 1075.87 41.9175C1076.58 41.047 1077.09 39.5235 1077.4 37.3471C1077.7 35.0836 1077.86 31.9496 1077.86 27.945C1077.86 23.8534 1077.69 20.7194 1077.36 18.543C1077.03 16.3666 1076.47 14.8866 1075.69 14.1031C1074.93 13.3196 1073.89 12.9278 1072.56 12.9278C1071.4 12.9278 1070.35 12.9278 1069.43 12.9278C1068.51 12.9278 1067.69 12.9714 1066.98 13.0584C1066.29 13.0584 1065.71 13.1455 1065.23 13.3196L1064.74 4.17869C1065.57 3.83047 1066.35 3.61283 1067.08 3.52577C1067.84 3.35166 1068.66 3.26461 1069.54 3.26461C1070.44 3.17755 1071.49 3.13403 1072.7 3.13403ZM1067.79 4.17869V94.2818H1064.74V4.17869H1067.79Z" fill="#318F28"/>
<path d="M1087.96 0C1088.39 0 1088.67 0.304698 1088.81 0.914093C1088.98 1.43643 1089.06 2.43757 1089.06 3.91753V11.622C1089.06 13.9725 1089 16.236 1088.88 18.4124C1088.79 20.5888 1088.65 22.6781 1088.46 24.6804C1088.29 26.6827 1088.08 28.5979 1087.82 30.4261L1086.4 28.9897C1086.51 26.4651 1086.6 24.1581 1086.64 22.0687C1086.72 19.9794 1086.75 17.4112 1086.75 14.3643C1086.18 14.3643 1085.9 13.2325 1085.9 10.9691V3.91753C1085.92 2.43757 1086.03 1.43643 1086.22 0.914093C1086.41 0.304698 1086.69 0 1087.07 0H1087.96Z" fill="#318F28"/>
<path d="M1101.64 3.00344C1102.95 3.00344 1104.06 3.04697 1104.99 3.13403C1105.91 3.13403 1106.75 3.22108 1107.51 3.39519C1108.29 3.56931 1109.12 3.83047 1110 4.17869L1109.5 13.4502C1109 13.2761 1108.07 13.1455 1106.69 13.0584C1105.32 12.9714 1103.65 12.9278 1101.68 12.9278C1100.54 12.9278 1099.63 13.4502 1098.94 14.4949C1098.28 15.4525 1097.79 17.1936 1097.48 19.7182C1097.18 22.1558 1097.01 25.5945 1096.99 30.0344C1096.99 33.8648 1097.13 37.1294 1097.41 39.8282C1097.7 42.4399 1098.17 44.4422 1098.84 45.835C1099.5 47.1409 1100.4 47.7938 1101.54 47.7938H1109.54L1109.64 57.3265C1109.34 57.3265 1108.95 57.37 1108.47 57.457C1108 57.457 1107.43 57.5006 1106.76 57.5876C1106.1 57.5876 1105.33 57.6312 1104.45 57.7182C1103.6 57.7182 1102.63 57.7182 1101.54 57.7182C1100.73 57.7182 1100.06 58.4582 1099.51 59.9381C1098.99 61.331 1098.59 63.7686 1098.3 67.2509L1096.17 94.2818H1092.83L1095.1 66.7285C1095.32 64.1168 1095.6 61.9404 1095.96 60.1993C1096.31 58.4582 1096.7 57.1088 1097.13 56.1512C1097.58 55.1065 1098.02 54.4101 1098.44 54.0619L1098.41 53.4089C1097.32 52.7995 1096.43 51.4937 1095.74 49.4914C1095.08 47.4021 1094.59 44.6598 1094.28 41.2646C1094 37.8694 1093.86 33.9084 1093.86 29.3815C1093.86 22.9393 1094.12 17.803 1094.64 13.9725C1095.18 10.142 1096.03 7.35625 1097.16 5.61513C1098.33 3.874 1099.82 3.00344 1101.64 3.00344ZM1110 4.17869V94.2818H1106.87V4.17869H1110Z" fill="#318F28"/>
</svg>
