<svg width="65" height="53" viewBox="0 0 65 53" fill="none" xmlns="http://www.w3.org/2000/svg">
<path fill-rule="evenodd" clip-rule="evenodd" d="M26.4865 50.5138L25.5 51.5002L33.5 44L34 35.5002L24.5 36.5002L17.9895 44L15.5 40.5L7.5 35.5002H1.5H4L10 36.5002L13.8282 38.1846C13.0839 33.6221 14.471 28.7794 17.9895 25.2609L37.2609 5.98948C43.0692 0.181199 52.4863 0.181203 58.2946 5.98948C64.1028 11.7978 64.1028 21.2148 58.2946 27.0231L39.0231 46.2946C35.604 49.7137 30.9343 51.1201 26.4865 50.5138Z" fill="#FFE1B6"/>
<path fill-rule="evenodd" clip-rule="evenodd" d="M46.0773 0.0777866C44.0531 0.397088 41.8017 1.17089 41.3931 1.68781C40.8675 2.35245 41.1777 3.35597 41.9912 3.62308C42.3839 3.75197 42.5444 3.72947 43.2827 3.44201C44.858 2.82881 46.0678 2.58128 47.8303 2.51165C49.8101 2.43344 51.1753 2.60149 52.7253 3.11412C60.9211 5.82534 64.7971 14.8751 61.0305 22.5052C60.6531 23.2697 60.0583 24.2647 59.7086 24.7164C59.3591 25.1682 56.8387 27.7551 54.1079 30.4651L49.1428 35.3926L39.2362 25.538L29.3295 15.6834L31.9903 13.0291C33.4538 11.5694 34.7112 10.2147 34.7845 10.0188C34.8578 9.82286 34.8828 9.52416 34.8402 9.35509C34.7195 8.87658 34.0843 8.41652 33.5445 8.41652C33.0997 8.41652 32.7297 8.76451 24.7135 16.7244C20.1119 21.2938 15.9955 25.4392 15.5662 25.9367C13.5306 28.2943 12.2029 31.2871 11.7753 34.481C11.6821 35.1775 11.5762 35.5689 11.4913 35.53C8.79442 34.2894 6.0481 33.7698 3.67164 34.0507C1.03417 34.3625 0.603206 34.6152 0.303069 36.0253C-0.681808 40.6518 0.769977 45.529 4.13017 48.8825C5.89301 50.642 8.18322 51.9555 10.6223 52.6061C11.7268 52.9006 12.1029 52.9378 14.0234 52.942C15.536 52.9452 16.4428 52.8876 17.0513 52.7499C17.813 52.5774 18.0086 52.5751 18.639 52.7315C19.696 52.9936 22.7093 53.0743 23.8671 52.8713C24.6123 52.7407 24.9994 52.7357 25.6453 52.8486C26.8448 53.0582 29.4636 53.0486 30.8214 52.8295C33.3082 52.4283 35.965 51.3197 38.0134 49.8284C38.709 49.322 42.6704 45.468 50.1686 38.0024C61.9829 26.2397 62.0815 26.1325 63.2931 23.7323C64.7354 20.8752 65.3106 17.2934 64.838 14.1118C64.3175 10.607 62.868 7.61694 60.479 5.11952C58.0773 2.60895 55.2797 1.03228 51.8614 0.262898C50.825 0.0297713 47.1314 -0.0884979 46.0773 0.0777866ZM37.122 4.49254C36.3673 4.81184 36.1992 5.92036 36.8128 6.53091C37.5964 7.31028 38.8549 6.7696 38.8549 5.6535C38.8549 4.75321 37.9457 4.14405 37.122 4.49254ZM42.0302 42.4505C36.6148 47.8154 36.0867 48.2683 34.1933 49.1704C33.248 49.6207 31.5973 50.1412 30.5989 50.3035L30.0273 50.3965L31.1436 49.3547C33.8707 46.8099 35.294 43.9813 35.7044 40.2913C35.9518 38.067 35.5165 35.2396 34.8459 34.7149C34.1639 34.1813 31.4412 33.8488 29.451 34.056C24.6326 34.5581 20.7017 37.155 18.2779 41.4381L17.8605 42.1758L17.3829 41.2731C16.8218 40.2122 15.7615 38.8068 14.8572 37.9254L14.2139 37.2983V36.1763C14.2139 34.3219 14.785 32.0287 15.693 30.2366C16.5338 28.5767 17.3307 27.6689 22.3979 22.5976L27.4819 17.5094L37.3916 27.3689L47.3014 37.2285L42.0302 42.4505ZM7.92309 36.9057C12.0348 37.9434 15.1795 41.1003 16.2503 45.2655C16.5213 46.3195 16.7294 48.5977 16.5548 48.5977C16.4942 48.5977 15.3252 47.4889 13.9567 46.1338C11.6285 43.8282 11.4386 43.6698 11.0016 43.6698C10.4736 43.6698 9.79682 44.1865 9.7605 44.6175C9.69534 45.3893 9.76913 45.4883 12.2727 47.9903L14.7771 50.4931H13.8716C11.1827 50.4931 8.25295 49.2952 6.17676 47.3468C5.09116 46.328 4.34673 45.3051 3.67799 43.9135C2.83448 42.1584 2.61475 41.135 2.60255 38.9062C2.59531 37.5917 2.63913 36.9387 2.74113 36.8373C3.17946 36.4012 6.07553 36.4395 7.92309 36.9057ZM32.7231 36.6762C33.0984 36.7689 33.2043 37.3017 33.1963 39.0578C33.1686 45.1683 28.447 50.1254 22.3429 50.4522L21.0092 50.5236L23.5178 48.0056C25.991 45.5231 26.0263 45.48 26.0263 44.9481C26.0263 43.9237 24.9574 43.3236 24.1177 43.8767C23.9449 43.9904 22.7539 45.1135 21.471 46.3722L19.1385 48.6609L19.2113 47.3973C19.5765 41.0641 24.984 36.2088 31.2975 36.5454C31.9262 36.579 32.5677 36.6377 32.7231 36.6762Z" fill="#FA8B01"/>
</svg>
