<svg width="53" height="48" viewBox="0 0 53 48" fill="none" xmlns="http://www.w3.org/2000/svg">
<path d="M20 19.5C23.3287 17.6507 21.5 15.1825 22 14.0158C21 12.0158 15 0.515825 26 1.01583C34.8 1.41583 31.3333 9.84916 28.5 14.0158C29 15.5158 29 16.0158 35.5 20.5158C40.7 24.1158 41.3333 29.6825 41 32.0158C35.6513 31.6196 32.0441 29.6537 29.7045 27.3449C30.1818 27.8221 30.6316 28.2211 31 28.5158C30.2 33.7158 33.3333 37.6825 35 39.0158C39.8 37.0158 45.3333 37.5158 47.5 38.0158C45 39 39.3333 38.5 37.5 39.5L26.5 45L17.5 40.5C9.5 38.0158 4.5 39.8492 4 38.0158C8.8 36.8158 14.3333 38.1825 16.5 39.0158C20.5 34.6158 20.1667 29.9806 19.5 28.2129C16.1913 30.5591 12.3211 31.4191 10 31.5158C15 26 11 24.5 20 19.5Z" fill="#C9EFC5"/>
<path fill-rule="evenodd" clip-rule="evenodd" d="M24.8964 0.140575C21.3561 0.827699 18.7363 3.74584 18.7363 7.00206C18.7363 7.85264 18.9777 9.09729 19.3617 10.2263C19.6999 11.2206 20.6846 13.0802 21.2588 13.8086L21.6215 14.2688L21.4298 14.7258C20.9439 15.8844 19.9699 16.8072 17.5459 18.4055C15.4303 19.8004 14.7028 20.3497 13.6088 21.3783C10.7695 24.0478 9.41992 27.5933 9.41992 32.3829V33.6262L9.90023 33.6858C10.7636 33.793 12.9701 33.7478 13.9746 33.6023C15.7901 33.3392 17.4977 32.8038 19.04 32.014L19.68 31.6864L19.6135 32.1298C19.3164 34.111 18.1954 36.2731 16.7525 37.6479L16.4461 37.9396L15.2084 37.5805C12.6825 36.8476 9.83895 36.4996 7.09082 36.5868C5.69584 36.6311 3.13404 36.8769 3.02338 36.977C3.00547 36.9933 3.08766 37.5461 3.20598 38.2055C3.67781 40.8354 4.74226 42.83 6.64829 44.6561L7.202 45.1866H3.601H0V46.5933V48H26.5H53V46.5933V45.1866H49.423H45.846L46.5869 44.4249C48.4122 42.5484 49.3379 40.7477 49.7991 38.1773C49.9146 37.5334 49.9945 36.9933 49.9766 36.977C49.866 36.8769 47.3042 36.6311 45.9092 36.5868C42.9325 36.4923 39.9113 36.8987 37.1474 37.7654L36.5634 37.9485L36.2562 37.6523C34.7289 36.1789 33.6894 34.1757 33.3833 32.1154L33.3153 31.6577L33.6601 31.8498C35.0777 32.6399 37.0201 33.2875 38.7996 33.5631C39.9874 33.747 42.1174 33.8079 43.0998 33.6858L43.5801 33.6262V32.3829C43.5801 29.2259 42.9959 26.6553 41.7693 24.4144C40.6833 22.4307 38.9622 20.7287 36.1781 18.8853C32.878 16.7002 32.0322 15.9284 31.5329 14.6463C31.3851 14.2668 31.3875 14.2573 31.7437 13.8054C32.3156 13.0799 33.3008 11.219 33.6383 10.2263C34.6244 7.32654 34.4211 5.17879 32.9707 3.17332C32.1451 2.03183 30.771 0.998472 29.4143 0.499095C28.0641 0.00206274 26.3222 -0.136169 24.8964 0.140575ZM27.4524 2.90276C28.3492 3.07363 29.0914 3.44415 29.7653 4.05747C30.8841 5.07573 31.3114 6.31419 31.0696 7.83792C30.7626 9.77325 29.5881 12.0123 28.2383 13.2359C27.4127 13.9842 26.6022 14.2105 25.8147 13.9124C23.7206 13.1198 21.472 8.74889 21.9256 6.35273C22.1037 5.41193 22.4954 4.72424 23.2318 4.05963C24.3814 3.02205 25.8975 2.60642 27.4524 2.90276ZM13.3115 3.10851C12.1469 3.76797 10.5647 4.75069 9.9375 5.20411C5.4797 8.42629 2.18666 13.084 0.797898 18.1312C0.19875 20.3084 0.0586934 21.4005 0.0582793 23.8986C0.0579688 25.5488 0.10424 26.3734 0.242434 27.1809C0.579584 29.1509 1.02719 30.7431 1.67095 32.2618L1.97622 32.9819L3.33745 32.4701C4.08618 32.1886 4.72 31.939 4.74588 31.9155C4.77186 31.8919 4.58046 31.2918 4.32054 30.5818C0.981121 21.459 4.84329 11.4043 13.6641 6.25679C14.2619 5.90793 14.8307 5.56732 14.928 5.4998C15.0902 5.38745 15.043 5.27698 14.3647 4.18145C13.9574 3.52377 13.5982 2.9882 13.5666 2.99129C13.5348 2.99429 13.42 3.04709 13.3115 3.10851ZM38.6353 4.18145C37.9599 5.2722 37.9104 5.38745 38.072 5.49483C38.1693 5.55963 38.808 5.94535 39.4912 6.35198C45.6781 10.0349 49.5419 16.2588 49.8599 23.0546C49.9774 25.568 49.5748 28.1362 48.6795 30.5818C48.4195 31.2918 48.2275 31.8914 48.2527 31.9142C48.2777 31.9369 48.912 32.1855 49.662 32.4664L51.0257 32.9773L51.338 32.244C52.3054 29.9712 52.8568 27.4125 52.9647 24.6958C53.2799 16.7533 49.1404 9.13423 41.9756 4.46973C41.173 3.94719 39.5104 2.98576 39.4093 2.98576C39.3909 2.98576 39.0426 3.52377 38.6353 4.18145ZM24.9473 16.6129C25.3784 16.7606 25.7554 16.8079 26.5 16.8079C27.4368 16.8079 27.7525 16.7457 28.7813 16.3577C28.8964 16.3143 29.0009 16.4102 29.1586 16.7042C29.7622 17.8298 31.162 19.0605 33.8496 20.8287C35.7315 22.0667 36.7952 22.8892 37.4864 23.6403C38.9883 25.2723 39.8053 26.9519 40.2121 29.2441C40.4076 30.3453 40.4179 30.9326 40.2417 30.9309C40.1706 30.9302 39.6749 30.8479 39.1405 30.748C37.2996 30.4038 35.4936 29.6265 33.7914 28.4454C32.9741 27.8784 31.3334 26.3734 30.6749 25.5866C29.0899 23.6927 28.0527 21.5346 28.0527 20.1304V19.5848H26.5H24.9473V20.1304C24.9473 21.1982 24.3012 22.8387 23.3253 24.2492C22.5468 25.3742 22.0442 25.9577 21.0137 26.9329C18.6144 29.2031 16.0908 30.4571 13.0525 30.8888L12.5962 30.9536L12.665 30.1223C12.8498 27.8903 13.6989 25.7937 15.0908 24.1327C15.9328 23.1279 17.0936 22.1803 19.0767 20.8789C21.8045 19.0887 23.2346 17.8358 23.8414 16.7042C23.9991 16.4102 24.1036 16.3143 24.2187 16.3577C24.3063 16.3907 24.6341 16.5055 24.9473 16.6129ZM26.956 25.5844C27.5441 26.4477 28.4872 27.5675 29.4199 28.5098L30.2668 29.3655L30.2394 30.6412C30.172 33.7842 31.0556 36.1101 33.4144 38.9989C33.5349 39.1465 33.4558 39.2136 32.6381 39.6568C30.701 40.7066 29.1234 41.8406 27.5029 43.3482L26.4871 44.2931L25.6396 43.4783C24.1387 42.0356 22.3387 40.7261 20.4647 39.7136C19.5492 39.219 19.4631 39.1492 19.5848 39C21.9355 36.1194 22.8288 33.768 22.7609 30.6403L22.7332 29.3637L23.4203 28.6709C24.4452 27.6374 25.1998 26.7606 25.8526 25.8446C26.1743 25.3933 26.4682 25.024 26.5058 25.024C26.5434 25.024 26.746 25.2762 26.956 25.5844ZM9.95241 39.4717C14.198 39.8656 18.0895 41.3182 21.376 43.7359C21.8884 44.1129 22.4918 44.5936 22.7168 44.804L23.126 45.1866H18.6186C13.4113 45.1866 13.2497 45.1676 11.4191 44.3375C9.5754 43.5016 8.15517 42.2185 7.23957 40.5615C6.95853 40.0528 6.72852 39.5772 6.72852 39.5044C6.72852 39.3389 8.34357 39.3225 9.95241 39.4717ZM46.2715 39.4945C46.2715 39.7415 45.4129 41.2152 44.9133 41.8259C43.9741 42.9736 42.8568 43.8004 41.3813 44.4393C39.7137 45.1616 39.4792 45.1866 34.3863 45.1866H29.8839L30.0811 44.9852C30.6007 44.4545 32.1619 43.3068 33.2803 42.6335C36.7739 40.53 40.7783 39.4146 44.9517 39.3824C45.9728 39.3746 46.2715 39.3999 46.2715 39.4945Z" fill="#318F28"/>
</svg>
