<svg width="68" height="68" viewBox="0 0 68 68" fill="none" xmlns="http://www.w3.org/2000/svg">
<circle cx="34" cy="34" r="33.5" fill="#019850" stroke="white"/>
<path d="M21.9355 20L20.6452 20.6341L20 21.9024V44.7317L21.2903 46H39.3548L40 44.0976V30.7805L36.7742 27.6098L35.4839 26.3415V23.1707L37.4194 20H21.9355Z" fill="#017C5F"/>
<path fill-rule="evenodd" clip-rule="evenodd" d="M40.4811 18.0737C39.571 18.2496 38.7079 18.6079 37.981 19.1115L37.6336 19.3523L29.6226 19.3688L21.6116 19.3854L21.2251 19.5995C20.749 19.8631 20.347 20.309 20.1606 20.7801L20.0196 21.1368L20.0033 32.7673C19.9926 40.445 20.0082 44.5147 20.0493 44.7415C20.1828 45.4793 20.6114 46.062 21.2611 46.389L21.6696 46.5946L22.9021 46.6147L24.1346 46.6348L24.17 47.3999C24.2223 48.5302 24.4667 49.0903 25.1146 49.5642C25.7612 50.0372 25.1972 50.0118 34.5932 49.9909L42.9822 49.9723L43.3335 49.8041C43.9903 49.4895 44.475 48.8422 44.6093 48.1C44.6449 47.903 44.6619 45.9856 44.652 43.2848L44.6355 38.7968L44.4355 38.6143C44.1805 38.3816 43.8862 38.3698 43.6439 38.5827L43.472 38.7337L43.4414 43.3834L43.4108 48.0332L43.2707 48.2633C43.1885 48.3984 43.0225 48.5469 42.8687 48.623C42.6077 48.752 42.5751 48.7525 34.4188 48.7525C25.4623 48.7525 25.9901 48.7749 25.6655 48.3809C25.4449 48.1131 25.4086 47.9536 25.4084 47.2513L25.4081 46.6571L32.1146 46.6258L38.8209 46.5946L39.2297 46.389C39.8896 46.0571 40.3237 45.4515 40.4454 44.6928C40.4769 44.4964 40.5017 41.4329 40.5018 37.7125L40.5022 31.0822L41.5279 31.0789C42.2794 31.0766 42.665 31.0474 42.9707 30.9695C43.2001 30.9111 43.3998 30.8633 43.4146 30.8633C43.4294 30.8633 43.4414 31.4803 43.4414 32.2346V33.6059L43.6 33.7983C43.7281 33.9538 43.8053 33.9908 44.002 33.9908C44.6177 33.9908 44.6661 33.837 44.6661 31.881V30.3301L45.1502 30.003C46.0665 29.384 46.9335 28.3535 47.3932 27.3372C48.8741 24.0632 47.5575 20.2581 44.3905 18.6595C43.5366 18.2285 42.7631 18.0364 41.7575 18.0054C41.2165 17.9887 40.8076 18.0106 40.4811 18.0737ZM42.911 19.4098C44.377 19.8057 45.6269 20.8781 46.291 22.31C46.6372 23.0564 46.7614 23.6466 46.7614 24.5457C46.7614 25.4481 46.6372 26.0351 46.2862 26.792C45.083 29.3858 42.1381 30.5457 39.5531 29.4438C38.6877 29.075 37.7166 28.2416 37.2107 27.4337C36.189 25.8022 36.1152 23.6406 37.0245 21.9812C37.7551 20.6481 39.0415 19.6718 40.4954 19.3474C41.1763 19.1954 42.2165 19.2223 42.911 19.4098ZM36.3996 20.6332C36.3996 20.6487 36.3156 20.7884 36.213 20.9437C35.7114 21.7029 35.2905 22.8901 35.1909 23.8264L35.1443 24.2643L29.8476 24.2791C25.981 24.29 24.5144 24.3135 24.4158 24.3664C24.1309 24.5191 24.0916 24.7432 24.0917 26.2128C24.0918 27.7078 24.1348 27.9282 24.459 28.0936C24.6485 28.1903 35.745 28.2107 35.9919 28.1148C36.1272 28.0623 36.1607 28.083 36.3079 28.3102C36.8048 29.0773 37.9728 30.0724 38.8964 30.5157L39.2801 30.6999L39.2635 37.6777L39.2469 44.6555L39.103 44.892C39.0238 45.0221 38.8527 45.1839 38.7227 45.2517C38.4911 45.3724 38.3222 45.3748 30.2456 45.3748C22.169 45.3748 22 45.3724 21.7685 45.2517C21.6385 45.1839 21.4674 45.0221 21.3882 44.892L21.2442 44.6555L21.2283 33.1242C21.2177 25.4766 21.2332 21.5136 21.2744 21.3573C21.354 21.0556 21.5234 20.8373 21.7775 20.7094C21.9599 20.6176 22.6642 20.6078 29.1893 20.6065C33.155 20.6057 36.3996 20.6177 36.3996 20.6332ZM41.1711 21.2883C40.6895 21.7803 41.2171 22.5683 41.8286 22.2705C42.2313 22.0743 42.2991 21.5528 41.9599 21.2612C41.7037 21.041 41.403 21.0514 41.1711 21.2883ZM41.3201 23.1691C40.9945 23.3034 40.9921 23.3229 40.9921 25.878V28.2458L41.1711 28.4286C41.5218 28.7869 42.097 28.5944 42.1878 28.0884C42.2071 27.9805 42.2147 26.8976 42.2046 25.6821L42.1861 23.472L41.9861 23.2895C41.7819 23.1031 41.5721 23.0652 41.3201 23.1691ZM35.1617 26.2189L35.1443 26.8914L30.2303 26.9074L25.3163 26.9234V26.235V25.5465H30.2477H35.1791L35.1617 26.2189ZM24.3203 30.5216C24.1129 30.7335 24.0706 30.941 24.1802 31.209C24.3533 31.632 24.081 31.6139 30.2589 31.6137C35.4286 31.6137 35.8328 31.606 36.0322 31.5043C36.4022 31.3154 36.4706 30.8278 36.1701 30.5207L36.0154 30.3629H30.2456H24.4757L24.3203 30.5216ZM24.4779 33.3659C24.282 33.4465 24.1281 33.7229 24.1353 33.981C24.1399 34.1494 24.1896 34.2502 24.3318 34.38L24.5222 34.5537H30.2329C36.5798 34.5537 36.1328 34.5845 36.317 34.1341C36.3963 33.9403 36.394 33.8954 36.2952 33.6893C36.2347 33.5632 36.1164 33.4251 36.0322 33.3823C35.9134 33.322 34.6178 33.3052 30.2456 33.3076C27.1386 33.3093 24.5519 33.3354 24.4779 33.3659ZM43.6 35.8095C43.4985 35.9326 43.4414 36.0774 43.4414 36.2113C43.4414 36.3452 43.4985 36.4899 43.6 36.613C43.7281 36.7685 43.8053 36.8055 44.002 36.8055C44.3263 36.8055 44.4745 36.715 44.5825 36.4511C44.6535 36.2773 44.6578 36.1875 44.6032 36.0184C44.5134 35.7407 44.3323 35.6171 44.0149 35.6171C43.8037 35.6171 43.7305 35.651 43.6 35.8095ZM24.5202 36.3236C24.2203 36.429 24.0527 36.7769 24.1527 37.0864C24.2933 37.5217 23.8728 37.4937 30.2439 37.4922C35.6087 37.4909 36.0109 37.4834 36.1393 37.3825C36.4324 37.152 36.4158 36.5885 36.1097 36.3836C35.9568 36.2812 35.5697 36.273 30.3401 36.2611C26.1011 36.2514 24.6823 36.2666 24.5202 36.3236ZM24.3318 39.4187C24.1896 39.5485 24.1399 39.6493 24.1353 39.8177C24.1278 40.0861 24.2841 40.3536 24.4968 40.4362C24.7452 40.5327 35.8407 40.5136 36.0322 40.4163C36.1164 40.3736 36.2347 40.2354 36.2952 40.1093C36.394 39.9032 36.3963 39.8583 36.317 39.6645C36.1328 39.2141 36.5798 39.245 30.2329 39.245H24.5222L24.3318 39.4187Z" fill="white"/>
</svg>
