<svg width="28" height="32" viewBox="0 0 28 32" fill="none" xmlns="http://www.w3.org/2000/svg">
<path d="M1.93548 2L0.645161 2.63415L0 3.90244V26.7317L1.29032 28H19.3548L20 26.0976V12.7805L16.7742 9.60976L15.4839 8.34146V5.17073L17.4194 2H1.93548Z" fill="#017C5F"/>
<path fill-rule="evenodd" clip-rule="evenodd" d="M20.4811 0.0736985C19.571 0.249589 18.7079 0.607874 17.981 1.11153L17.6336 1.35228L9.62259 1.36879L1.61164 1.38537L1.22507 1.59948C0.748981 1.86313 0.346982 2.30904 0.160649 2.78011L0.0195663 3.13677L0.00327809 14.7673C-0.0074378 22.445 0.00817686 26.5147 0.0492646 26.7415C0.182754 27.4793 0.611389 28.062 1.26114 28.389L1.66963 28.5946L2.90214 28.6147L4.13465 28.6348L4.17004 29.3999C4.22234 30.5302 4.46672 31.0903 5.11463 31.5642C5.7612 32.0372 5.19717 32.0118 14.5932 31.9909L22.9822 31.9723L23.3335 31.8041C23.9903 31.4895 24.475 30.8422 24.6093 30.1C24.6449 29.903 24.6619 27.9856 24.652 25.2848L24.6355 20.7968L24.4355 20.6143C24.1805 20.3816 23.8862 20.3698 23.6439 20.5827L23.472 20.7337L23.4414 25.3834L23.4108 30.0332L23.2707 30.2633C23.1885 30.3984 23.0225 30.5469 22.8687 30.623C22.6077 30.752 22.5751 30.7525 14.4188 30.7525C5.46232 30.7525 5.99009 30.7749 5.66549 30.3809C5.44493 30.1131 5.40861 29.9536 5.40837 29.2513L5.40812 28.6571L12.1146 28.6258L18.8209 28.5946L19.2297 28.389C19.8896 28.0571 20.3237 27.4515 20.4454 26.6928C20.4769 26.4964 20.5017 23.4329 20.5018 19.7125L20.5022 13.0822L21.5279 13.0789C22.2794 13.0766 22.665 13.0474 22.9707 12.9695C23.2001 12.9111 23.3998 12.8633 23.4146 12.8633C23.4294 12.8633 23.4414 13.4803 23.4414 14.2346V15.6059L23.6 15.7983C23.7281 15.9538 23.8053 15.9908 24.002 15.9908C24.6177 15.9908 24.6661 15.837 24.6661 13.881V12.3301L25.1501 12.003C26.0665 11.384 26.9335 10.3535 27.3932 9.33721C28.8741 6.06316 27.5575 2.25813 24.3905 0.659541C23.5366 0.228509 22.7631 0.0363562 21.7575 0.005394C21.2165 -0.0113068 20.8076 0.0105856 20.4811 0.0736985ZM22.911 1.40983C24.377 1.8057 25.6269 2.87812 26.291 4.30995C26.6372 5.05642 26.7614 5.64664 26.7614 6.54573C26.7614 7.44814 26.6372 8.03511 26.2862 8.79196C25.083 11.3858 22.1381 12.5457 19.5531 11.4438C18.6877 11.075 17.7166 10.2416 17.2107 9.43372C16.189 7.80217 16.1152 5.64064 17.0245 3.98119C17.7551 2.64806 19.0415 1.67185 20.4954 1.3474C21.1763 1.19541 22.2165 1.2223 22.911 1.40983ZM16.3996 2.63324C16.3996 2.64869 16.3156 2.78843 16.213 2.94367C15.7114 3.7029 15.2905 4.8901 15.1909 5.82641L15.1443 6.26426L9.84756 6.27915C5.98103 6.28997 4.51442 6.31355 4.41583 6.3664C4.13091 6.51909 4.0916 6.7432 4.09172 8.21275C4.09179 9.70776 4.13483 9.92818 4.459 10.0936C4.64846 10.1903 15.745 10.2107 15.9919 10.1148C16.1272 10.0623 16.1607 10.083 16.3079 10.3102C16.8048 11.0773 17.9728 12.0724 18.8964 12.5157L19.2801 12.6999L19.2635 19.6777L19.2469 26.6555L19.103 26.892C19.0238 27.0221 18.8527 27.1839 18.7227 27.2517C18.4911 27.3724 18.3222 27.3748 10.2456 27.3748C2.16899 27.3748 2.00005 27.3724 1.76846 27.2517C1.63846 27.1839 1.46737 27.0221 1.3882 26.892L1.24424 26.6555L1.22826 15.1242C1.21772 7.4766 1.23322 3.51357 1.27443 3.35732C1.35397 3.05558 1.5234 2.83734 1.77752 2.70943C1.95988 2.6176 2.66419 2.60778 9.1893 2.60653C13.155 2.60572 16.3996 2.61773 16.3996 2.63324ZM21.1711 3.28832C20.6895 3.78028 21.2171 4.56834 21.8286 4.27048C22.2313 4.07433 22.2991 3.55278 21.9599 3.26118C21.7037 3.041 21.403 3.05139 21.1711 3.28832ZM21.3201 5.16914C20.9945 5.30337 20.9921 5.32288 20.9921 7.87798V10.2458L21.1711 10.4286C21.5218 10.7869 22.097 10.5944 22.1878 10.0884C22.2071 9.98047 22.2147 8.89761 22.2046 7.68208L22.1861 5.472L21.9861 5.28954C21.7819 5.10315 21.5721 5.06524 21.3201 5.16914ZM15.1617 8.21894L15.1443 8.89135L10.2303 8.90737L5.31627 8.92338V8.23496V7.54653H10.2477H15.1791L15.1617 8.21894ZM4.32031 12.5216C4.11291 12.7335 4.0706 12.941 4.18021 13.209C4.35325 13.632 4.08101 13.6139 10.2589 13.6137C15.4286 13.6137 15.8328 13.606 16.0322 13.5043C16.4022 13.3154 16.4706 12.8278 16.1701 12.5207L16.0154 12.3629H10.2456H4.47572L4.32031 12.5216ZM4.47786 15.3659C4.28204 15.4465 4.1281 15.7229 4.13526 15.981C4.13991 16.1494 4.18958 16.2502 4.33182 16.38L4.5222 16.5537H10.2329C16.5798 16.5537 16.1328 16.5845 16.317 16.1341C16.3963 15.9403 16.394 15.8954 16.2952 15.6893C16.2347 15.5632 16.1164 15.4251 16.0322 15.3823C15.9134 15.322 14.6178 15.3052 10.2456 15.3076C7.13859 15.3093 4.55189 15.3354 4.47786 15.3659ZM23.6 17.8095C23.4985 17.9326 23.4414 18.0774 23.4414 18.2113C23.4414 18.3452 23.4985 18.4899 23.6 18.613C23.7281 18.7685 23.8053 18.8055 24.002 18.8055C24.3263 18.8055 24.4745 18.715 24.5825 18.4511C24.6535 18.2773 24.6578 18.1875 24.6032 18.0184C24.5134 17.7407 24.3323 17.6171 24.0149 17.6171C23.8037 17.6171 23.7305 17.651 23.6 17.8095ZM4.52024 18.3236C4.22031 18.429 4.05266 18.7769 4.15265 19.0864C4.29331 19.5217 3.87275 19.4937 10.2439 19.4922C15.6087 19.4909 16.0109 19.4834 16.1393 19.3825C16.4324 19.152 16.4158 18.5885 16.1097 18.3836C15.9568 18.2812 15.5697 18.273 10.3401 18.2611C6.10111 18.2514 4.68232 18.2666 4.52024 18.3236ZM4.33182 21.4187C4.18958 21.5485 4.13991 21.6493 4.13526 21.8177C4.12779 22.0861 4.28412 22.3536 4.49678 22.4362C4.74521 22.5327 15.8407 22.5136 16.0322 22.4163C16.1164 22.3736 16.2347 22.2354 16.2952 22.1093C16.394 21.9032 16.3963 21.8583 16.317 21.6645C16.1328 21.2141 16.5798 21.245 10.2329 21.245H4.5222L4.33182 21.4187Z" fill="white"/>
</svg>
