<svg width="183" height="34" viewBox="0 0 183 34" fill="none" xmlns="http://www.w3.org/2000/svg">
<path fill-rule="evenodd" clip-rule="evenodd" d="M17.0393 0C17.8793 0 18.4978 0.221594 19.2454 0.489408L19.2525 0.492C19.4477 0.561761 19.6512 0.634762 19.8702 0.707763C24.8243 2.12318 27.6551 10.9697 18.4549 15.5698C18.4549 15.5698 18.1009 15.9237 17.7471 15.9237C17.7471 15.9237 17.3931 16.2776 17.0393 16.2776C16.5052 16.4974 15.9936 16.7034 15.5033 16.8988C15.1783 17.0284 14.8625 17.1534 14.5558 17.2748C10.1142 19.0328 7.57795 20.0369 6.06977 23.3548C4.30047 28.6627 8.19284 33.9706 17.0393 33.9706C16.1994 33.9706 15.5808 33.749 14.8333 33.4812L14.8262 33.4786C14.631 33.4088 14.4275 33.3358 14.2085 33.2628C9.25438 31.8474 6.42354 23.3548 15.6238 18.4008C15.6238 18.4008 15.9778 18.0469 16.3316 18.0469C16.6856 18.0469 17.0393 17.693 17.0393 17.693C17.9274 17.3272 18.754 17 19.5233 16.6955C23.9645 14.9375 26.5009 13.9336 28.0089 10.6158C30.1322 5.66178 25.8858 0 17.0393 0ZM54.1946 26.1856H53.1331V26.8933H60.2103V26.1856C58.441 26.1856 58.0872 25.8317 57.0255 23.3547C55.9639 20.17 54.5486 16.2775 53.1331 12.3851L51.01 6.36944L50.3023 6.72332L43.9328 23.0009C43.2251 25.4779 42.8711 25.8317 41.4558 26.1856H40.748V27.2472H47.4714V26.5395H46.4097C44.9944 26.1856 44.6404 25.8317 45.3481 24.0624C45.7021 22.647 46.4097 20.17 46.7637 19.4623H53.1331C53.8063 20.8085 54.3372 22.297 54.7257 23.3866C54.7834 23.5484 54.8378 23.7013 54.8892 23.8436C54.9406 23.9861 54.989 24.1179 55.0341 24.2375C55.1192 24.463 55.1933 24.6445 55.2562 24.7702C55.6102 25.8317 55.2562 26.1856 54.1946 26.1856ZM52.4253 18.4007H47.1174L49.9483 10.6158L52.4253 18.4007ZM71.787 24.0124L71.7889 24.0154C72.0699 24.3843 72.3328 24.7298 72.5956 25.1241C72.7433 25.2718 72.8757 25.4196 73.0023 25.561C73.482 26.0965 73.8787 26.5395 74.7187 26.5395V27.2473H74.3649C70.8263 27.2473 69.7648 26.1856 69.057 24.0624C67.9955 23.0009 66.58 20.5238 65.8722 19.1084C65.1644 18.4008 64.8106 18.0469 63.7491 18.0469H59.5028V16.9852H63.7491C65.1644 16.9852 66.2262 16.9852 66.9337 16.2776C68.3493 15.5698 68.703 13.8005 68.703 12.3851C68.703 9.20038 66.58 8.13874 64.1029 8.13874H62.3336H59.5028V7.0772H64.4569C66.2262 7.0772 67.9955 7.43108 69.057 8.13874C70.4723 8.8465 71.1801 10.2619 71.1801 12.0312C71.1801 14.5083 69.7648 16.2776 67.2877 17.3391C67.6704 17.7218 68.1568 18.5186 68.6903 19.3937L68.6922 19.3963C69.1449 20.1384 69.6317 20.9364 70.1186 21.5855C70.7848 22.696 71.3118 23.3884 71.787 24.0124ZM73.4805 9.37046L73.4798 9.37727L73.4792 9.38407C73.3911 10.178 73.3029 10.9716 73.3029 11.6773H74.0107C74.3643 10.263 74.718 9.55534 75.0716 8.84812L75.0722 8.8465C75.426 8.13874 76.4878 7.78496 78.9646 7.78496H80.3801V22.2931C80.3801 25.478 80.0264 25.8317 77.1953 26.1856V26.8934H86.0418V26.1856C84.5043 26.0148 83.709 25.9264 83.2978 25.4824C82.8572 25.0068 82.8572 24.1232 82.8572 22.2931V8.13874H84.9803C86.7496 8.13874 87.8111 8.49262 88.5189 8.8465C88.8729 9.20038 89.2266 10.2619 89.5804 11.6773H90.2882C90.2882 10.9696 90.1998 10.1735 90.1113 9.37727C90.0227 8.58106 89.9344 7.78496 89.9344 7.0772H73.6567C73.6567 7.78291 73.5686 8.57652 73.4805 9.37046ZM91.7037 7.43108C94.1808 7.78496 94.5345 8.13874 94.5345 11.3236H94.1808V22.2931C94.1808 25.8317 93.8268 26.1856 90.9959 26.1856V26.8934H105.504C105.858 25.8317 106.566 22.647 106.566 21.9394H105.858C105.584 23.037 105.097 23.9217 104.727 24.5937L104.723 24.6002C104.617 24.7922 104.521 24.9668 104.443 25.1241C103.735 26.1856 102.32 26.1856 100.55 26.1856C99.1347 26.1856 98.0731 26.1856 97.3654 25.8317C97.0116 25.478 96.6576 24.4163 96.6576 22.647V17.3391H99.8424C101.258 17.3391 101.966 17.3391 102.32 17.693C102.673 18.0469 103.027 18.7545 103.027 19.8162H103.735V13.8005H103.027C102.673 15.9237 102.32 16.2776 99.8424 16.2776H96.6576V9.20038C96.6576 8.13874 97.0116 8.13874 97.7194 8.13874H100.196C102.32 8.13874 103.381 8.49262 103.735 8.8465C104.089 9.20038 104.443 10.2619 104.797 11.6773H105.504C105.504 10.4548 105.335 8.89434 105.231 7.92999L105.227 7.90267L105.216 7.7963C105.202 7.66347 105.189 7.54458 105.179 7.4422C105.161 7.26575 105.15 7.13908 105.15 7.0772H91.7037V7.43108ZM133.105 26.5395C130.628 26.1856 130.274 25.8317 130.274 22.647H129.921V11.6773C129.921 8.18841 130.264 8.13938 132.648 7.79965L132.751 7.78496V7.0772H124.613V7.43108C127.09 7.78496 127.443 8.13874 127.443 11.3236V22.647C127.443 25.8317 127.443 26.1856 124.966 26.1856V27.2473H133.105V26.5395ZM143.014 7.78496L142.911 7.79965C140.527 8.13938 140.183 8.18852 140.183 11.6773V18.0469C140.183 20.5238 140.537 22.647 141.598 24.0624C142.66 25.478 144.075 26.1856 146.198 26.1856C147.968 26.1856 149.737 25.478 150.798 23.7087C151.86 22.2931 152.214 19.4623 152.214 16.9852V15.2159C152.214 12.0312 152.214 10.2619 151.86 9.20038C151.86 8.13874 150.798 7.78496 148.675 7.43108V7.0772H156.106V7.78496C154.337 7.78496 153.629 8.13874 153.275 9.55426C153.275 9.94281 153.228 10.4262 153.168 11.0391C153.064 12.1007 152.922 13.5507 152.922 15.5698V17.693C152.922 21.2316 152.214 23.7087 150.445 25.8317C149.029 27.2473 146.906 27.9549 144.783 27.9549C143.014 27.9549 141.244 27.601 139.829 26.5395C138.059 25.1241 137.352 23.0009 137.352 19.4623V11.3236C137.352 8.13874 136.998 7.78496 134.521 7.43108V7.0772H143.014V7.78496ZM170.261 23.0009L162.83 7.0772H157.876V7.43108C160.707 7.43108 161.06 7.78496 160.707 12.0312L160.353 18.4008C160.353 21.5855 160.353 23.3548 159.999 24.4163C159.999 25.8317 159.291 26.1856 157.522 26.1856V27.2473H164.599V26.5395C162.83 26.1856 161.768 25.8317 161.768 24.7702V19.1084L162.122 10.6158L169.199 26.5395H169.907L177.338 9.90804V22.2931C177.687 25.7827 177.348 25.8311 174.963 26.1711L174.861 26.1856V27.2473H183V26.5395L182.897 26.5248C180.513 26.185 180.169 26.1358 180.169 22.647L179.815 11.6773C179.815 9.77575 179.815 8.89607 180.254 8.43419C180.632 8.03658 181.336 7.94867 182.646 7.78496V7.0772H177.692L170.261 23.0009ZM120.975 24.0154L120.973 24.0124C120.498 23.3884 119.971 22.696 119.305 21.5855C119.008 21.1894 118.711 20.738 118.421 20.2776C118.237 19.9845 118.056 19.6878 117.88 19.3996L117.878 19.3963L117.876 19.3937C117.343 18.5186 116.857 17.7218 116.474 17.3391C118.951 16.2776 120.366 14.5083 120.366 12.0312C120.366 10.2619 119.659 8.8465 118.243 8.13874C117.182 7.43108 115.412 7.0772 113.643 7.0772H108.689V8.13874H111.52H113.289C115.766 8.13874 117.889 9.20038 117.889 12.3851C117.889 13.8005 117.535 15.5698 116.12 16.2776C115.412 16.9852 114.351 16.9852 112.935 16.9852H108.689V18.0469H112.935C113.997 18.0469 114.351 18.4008 115.058 19.1084C115.766 20.5238 117.182 23.0009 118.243 24.0624C119.305 25.8317 120.366 26.8934 123.905 26.8934V26.1856C123.028 26.4778 122.634 26.0463 122.125 25.4885L122.124 25.4869L122.123 25.4853C122.016 25.3687 121.904 25.2463 121.782 25.1241C121.519 24.7298 121.256 24.3843 120.975 24.0154ZM29.0702 14.8622C31.9011 13.0929 32.2551 9.20038 30.8395 7.0772C32.9626 9.90804 34.3781 13.8005 34.0244 18.0469C33.6704 21.2316 32.6088 24.4163 30.8395 27.2473C28.1782 30.5739 25.2042 32.0241 24.2692 32.4799C24.2096 32.5089 24.1584 32.534 24.1161 32.5552C21.993 33.6167 19.516 33.6167 17.3929 32.5552C13.5003 30.432 12.085 25.8317 14.2081 22.2931C15.2696 20.5238 16.6851 19.1084 18.4544 18.7545C19.3503 18.4186 20.4233 18.1536 21.5725 17.8697C24.055 17.2564 26.8932 16.5553 29.0702 14.8622Z" fill="#636363"/>
<path d="M16.6856 1.76933C14.5624 0.70775 12.0854 0.70775 9.96227 1.76933C9.25455 1.76933 6.06981 3.53863 3.59279 6.72337C1.46963 9.55425 0.408051 12.739 0.0541914 15.9237C-0.299668 20.17 1.11577 24.0625 3.23893 27.2472C1.82349 24.7702 2.17735 20.8778 5.00823 19.1085C8.54683 16.6314 13.147 16.2776 15.624 15.216C17.3933 14.5083 18.8088 13.4467 19.8703 11.6774C21.6396 8.13881 20.2242 3.53863 16.6856 1.76933Z" fill="#557EB9"/>
</svg>
