<svg width="160" height="32" viewBox="0 0 160 32" fill="none" xmlns="http://www.w3.org/2000/svg">
<path d="M0 14.4539C0 12.9918 0.134375 11.5296 0.403127 10.0674C0.696309 8.58127 1.2216 7.25094 1.97898 6.0764C2.76081 4.90187 3.83581 3.95506 5.204 3.23595C6.59662 2.49288 8.40458 2.12135 10.6279 2.12135C11.7762 2.12135 12.9611 2.21723 14.1827 2.40899C15.4288 2.57678 16.5404 2.86442 17.5177 3.27191C17.8842 3.4397 18.1651 3.63146 18.3606 3.84719C18.556 4.03895 18.6049 4.36255 18.5072 4.81798L18.0308 6.90337C17.9575 7.23895 17.8353 7.45468 17.6643 7.55056C17.5177 7.64644 17.2245 7.67041 16.7847 7.62247C15.7586 7.50262 14.7569 7.40674 13.7796 7.33483C12.8268 7.26292 11.9594 7.22696 11.1776 7.22696C10.1515 7.22696 9.30856 7.41873 8.6489 7.80225C8.01367 8.1618 7.51281 8.66517 7.14633 9.31236C6.77985 9.95955 6.52332 10.7146 6.37673 11.5775C6.25457 12.4404 6.19349 13.3633 6.19349 14.3461C6.19349 15.4727 6.25457 16.4914 6.37673 17.4022C6.52332 18.2891 6.77985 19.0442 7.14633 19.6674C7.51281 20.2906 8.01367 20.77 8.6489 21.1056C9.30856 21.4172 10.1392 21.573 11.141 21.573C12.1427 21.573 13.0466 21.5371 13.8529 21.4652C14.6836 21.3933 15.6731 21.2974 16.8214 21.1775C17.2856 21.1296 17.591 21.1536 17.7376 21.2494C17.8842 21.3213 18.0063 21.5371 18.104 21.8966L18.5805 23.8022C18.7026 24.2577 18.666 24.6052 18.4705 24.8449C18.2995 25.0607 18.0308 25.2524 17.6643 25.4202C17.2001 25.612 16.6748 25.7918 16.0884 25.9596C15.5265 26.1034 14.9279 26.2232 14.2927 26.3191C13.6819 26.439 13.0589 26.5228 12.4236 26.5708C11.8128 26.6187 11.2265 26.6427 10.6645 26.6427C8.46566 26.6427 6.66991 26.2951 5.27729 25.6C3.88467 24.8809 2.79745 23.9461 2.01563 22.7955C1.23381 21.6449 0.696309 20.3386 0.403127 18.8764C0.134375 17.4142 0 15.9401 0 14.4539Z" fill="white"/>
<path d="M22.0904 3.2C22.0904 2.9603 22.1392 2.76854 22.2369 2.62472C22.3591 2.45693 22.579 2.37303 22.8966 2.37303H37.4458C37.9589 2.37303 38.2154 2.6367 38.2154 3.16404V6.43595C38.2154 6.65168 38.1543 6.83146 38.0322 6.97528C37.9345 7.1191 37.7268 7.19101 37.4092 7.19101H27.9174V11.5416H36.1998C36.7617 11.5416 37.0427 11.7933 37.0427 12.2966V15.5685C37.0427 15.7843 36.9816 15.964 36.8595 16.1079C36.7617 16.2517 36.5418 16.3236 36.1998 16.3236H27.9174V21.5011H37.5924C38.1299 21.5011 38.3987 21.7648 38.3987 22.2921V25.564C38.3987 25.7798 38.3376 25.9596 38.2154 26.1034C38.1177 26.2232 37.91 26.2831 37.5924 26.2831H22.8966C22.579 26.2831 22.3591 26.2112 22.2369 26.0674C22.1392 25.9236 22.0904 25.7438 22.0904 25.5281V3.2Z" fill="white"/>
<path d="M59.4572 26.2831H46.3006L45.9707 30.9214C45.9219 31.4008 45.8364 31.7004 45.7142 31.8202C45.592 31.9401 45.3355 32 44.9446 32H41.6829C41.3409 32 41.0966 31.9281 40.95 31.7843C40.8278 31.6644 40.7545 31.3288 40.7301 30.7775L40.4369 22.6517C40.4369 22.364 40.4858 22.1363 40.5835 21.9685C40.7057 21.8007 40.95 21.6809 41.3165 21.609L42.5625 21.3933C43.0023 20.9858 43.381 20.5423 43.6986 20.0629C44.0162 19.5596 44.2727 18.9963 44.4682 18.373C44.6881 17.7258 44.8591 17.0067 44.9812 16.2157C45.1278 15.4007 45.25 14.4899 45.3477 13.4831L46.154 3.70337C46.2028 3.22397 46.3372 2.88839 46.5571 2.69663C46.8014 2.50487 47.1313 2.40899 47.5466 2.40899H62.0592C62.5967 2.40899 62.8654 2.68464 62.8654 3.23595V21.5011L64.368 21.6449C64.9055 21.7169 65.1742 22.0644 65.1742 22.6876L64.7711 30.7416C64.7222 31.2929 64.6489 31.6405 64.5512 31.7843C64.4535 31.9281 64.2214 32 63.8549 32H60.6665C60.3001 32 60.0435 31.9401 59.8969 31.8202C59.7748 31.7004 59.7015 31.4008 59.677 30.9214L59.4572 26.2831ZM56.8918 21.3933V7.19101H51.5412L50.8816 14.8494C50.7594 16.2397 50.5762 17.4861 50.3318 18.5888C50.0875 19.6674 49.7088 20.6022 49.1958 21.3933H56.8918Z" fill="white"/>
<path d="M72.2109 25.2764C72.0887 25.6599 71.9299 25.9236 71.7345 26.0674C71.539 26.2112 71.2703 26.2831 70.9282 26.2831H66.8603C66.5916 26.2831 66.4083 26.2352 66.3106 26.1393C66.2129 26.0195 66.2251 25.7558 66.3472 25.3483L73.4203 3.41573C73.5424 3.08015 73.689 2.82846 73.8601 2.66067C74.0311 2.46891 74.3609 2.37303 74.8495 2.37303H79.4672C79.9802 2.37303 80.3101 2.46891 80.4567 2.66067C80.6277 2.85243 80.7743 3.1161 80.8964 3.45168L88.2627 25.4202C88.336 25.7079 88.3482 25.9236 88.2993 26.0674C88.2505 26.2112 88.0916 26.2831 87.8229 26.2831H83.2785C82.8632 26.2831 82.5822 26.1993 82.4357 26.0315C82.2891 25.8397 82.1547 25.5521 82.0325 25.1685L80.8232 20.8899H73.5302L72.2109 25.2764ZM78.441 12.5483L77.2683 8.1618H77.0851L75.8757 12.5124L74.7763 16.5034H79.5405L78.441 12.5483Z" fill="white"/>
<path d="M109.488 19.2C109.488 20.3266 109.28 21.3333 108.865 22.2202C108.449 23.0831 107.887 23.8262 107.179 24.4494C106.47 25.0487 105.652 25.5041 104.724 25.8157C103.82 26.1273 102.867 26.2831 101.865 26.2831H91.9335C91.5914 26.2831 91.3593 26.2112 91.2372 26.0674C91.1394 25.9236 91.0906 25.7318 91.0906 25.4921V3.2C91.0906 2.9603 91.1394 2.76854 91.2372 2.62472C91.3593 2.4809 91.5792 2.40899 91.8968 2.40899L101.205 2.37303C103.722 2.37303 105.615 2.97228 106.886 4.17079C108.181 5.34532 108.828 6.96329 108.828 9.02472C108.828 9.31236 108.791 9.65992 108.718 10.0674C108.645 10.4749 108.511 10.8944 108.315 11.3258C108.144 11.7573 107.875 12.1768 107.509 12.5843C107.167 12.9918 106.727 13.3273 106.189 13.591L106.226 13.7348C106.935 13.9985 107.497 14.3581 107.912 14.8135C108.352 15.2689 108.682 15.7603 108.901 16.2876C109.146 16.815 109.305 17.3423 109.378 17.8697C109.451 18.373 109.488 18.8165 109.488 19.2ZM103.514 18.9124C103.514 18.1693 103.294 17.5341 102.855 17.0067C102.415 16.4794 101.694 16.2157 100.692 16.2157H96.9176V21.5011H100.692C101.767 21.5011 102.5 21.2494 102.891 20.7461C103.307 20.2427 103.514 19.6315 103.514 18.9124ZM102.855 9.42022C102.855 8.77303 102.647 8.23371 102.232 7.80225C101.841 7.37079 101.181 7.15506 100.253 7.15506H96.9176V11.6135H100.436C101.193 11.6135 101.78 11.4097 102.195 11.0022C102.635 10.5948 102.855 10.0674 102.855 9.42022Z" fill="white"/>
<path d="M114 3.2C114 2.9603 114.049 2.76854 114.146 2.62472C114.269 2.45693 114.476 2.37303 114.769 2.37303H119.057C119.399 2.37303 119.607 2.46891 119.68 2.66067C119.778 2.82846 119.827 3.00824 119.827 3.2V25.4921C119.827 25.6839 119.778 25.8637 119.68 26.0315C119.607 26.1993 119.399 26.2831 119.057 26.2831H114.769C114.476 26.2831 114.269 26.2112 114.146 26.0674C114.049 25.9236 114 25.7318 114 25.4921V3.2Z" fill="white"/>
<path d="M141.145 6.43595C141.145 6.65168 141.084 6.83146 140.962 6.97528C140.864 7.1191 140.657 7.19101 140.339 7.19101H134.915V25.4921C134.915 25.6839 134.866 25.8637 134.769 26.0315C134.695 26.1993 134.488 26.2831 134.146 26.2831H129.931C129.613 26.2831 129.393 26.2112 129.271 26.0674C129.174 25.9236 129.125 25.7318 129.125 25.4921V7.19101H123.738C123.395 7.19101 123.176 7.1191 123.078 6.97528C122.98 6.83146 122.931 6.65168 122.931 6.43595V3.16404C122.931 2.92434 122.98 2.73258 123.078 2.58876C123.176 2.44494 123.395 2.37303 123.738 2.37303H140.339C140.876 2.37303 141.145 2.6367 141.145 3.16404V6.43595Z" fill="white"/>
<path d="M155.346 12.2607C155.468 12.5243 155.395 12.6562 155.126 12.6562H153.33C153.061 12.6562 152.854 12.5363 152.707 12.2966C152.658 12.1768 152.573 11.973 152.451 11.6854C152.328 11.3978 152.194 11.0981 152.047 10.7865C151.901 10.4749 151.766 10.1753 151.644 9.88764C151.522 9.6 151.424 9.39625 151.351 9.2764H150.618V12.2607C150.618 12.3326 150.606 12.4165 150.581 12.5124C150.557 12.6082 150.459 12.6562 150.288 12.6562H148.603C148.431 12.6562 148.322 12.6202 148.273 12.5483C148.248 12.4764 148.236 12.3805 148.236 12.2607V3.88315C148.236 3.61948 148.37 3.48764 148.639 3.48764H152.047C152.414 3.48764 152.78 3.54757 153.147 3.66742C153.538 3.7633 153.88 3.93109 154.173 4.17079C154.466 4.38652 154.698 4.67416 154.869 5.03371C155.065 5.39326 155.162 5.82472 155.162 6.32809C155.162 6.80749 155.053 7.27491 154.833 7.73034C154.637 8.18577 154.258 8.54532 153.697 8.80899L155.346 12.2607ZM152.707 6.36404C152.707 6.02846 152.597 5.80075 152.377 5.6809C152.182 5.53708 151.95 5.46517 151.681 5.46517H150.618V7.33483H151.681C151.901 7.33483 152.121 7.27491 152.341 7.15506C152.585 7.03521 152.707 6.77154 152.707 6.36404ZM151.608 16.3236C150.435 16.3236 149.335 16.1199 148.309 15.7124C147.308 15.2809 146.416 14.6936 145.634 13.9506C144.877 13.2075 144.278 12.3446 143.838 11.3618C143.399 10.379 143.179 9.31236 143.179 8.1618C143.179 7.01123 143.399 5.94457 143.838 4.9618C144.278 3.97903 144.877 3.1161 145.634 2.37303C146.416 1.62996 147.308 1.05468 148.309 0.647189C149.335 0.21573 150.435 0 151.608 0C152.78 0 153.88 0.21573 154.906 0.647189C155.932 1.05468 156.824 1.62996 157.581 2.37303C158.339 3.1161 158.925 3.97903 159.34 4.9618C159.78 5.94457 160 7.01123 160 8.1618C160 9.31236 159.78 10.379 159.34 11.3618C158.901 12.3446 158.302 13.2075 157.545 13.9506C156.787 14.6936 155.895 15.2809 154.869 15.7124C153.868 16.1199 152.78 16.3236 151.608 16.3236ZM151.608 1.97753C150.728 1.97753 149.897 2.14532 149.116 2.4809C148.358 2.79251 147.686 3.23595 147.1 3.81124C146.514 4.36255 146.049 5.00974 145.707 5.75281C145.39 6.49588 145.231 7.29888 145.231 8.1618C145.231 9.02472 145.39 9.82771 145.707 10.5708C146.049 11.3139 146.514 11.973 147.1 12.5483C147.686 13.0996 148.358 13.5431 149.116 13.8787C149.897 14.1903 150.728 14.3461 151.608 14.3461C152.487 14.3461 153.306 14.1903 154.063 13.8787C154.82 13.5431 155.48 13.0996 156.042 12.5483C156.628 11.973 157.08 11.3139 157.398 10.5708C157.74 9.82771 157.911 9.02472 157.911 8.1618C157.911 7.29888 157.74 6.49588 157.398 5.75281C157.08 5.00974 156.628 4.36255 156.042 3.81124C155.48 3.23595 154.82 2.79251 154.063 2.4809C153.306 2.14532 152.487 1.97753 151.608 1.97753Z" fill="white"/>
</svg>
