<svg width="330" height="100" viewBox="0 0 330 100" fill="none" xmlns="http://www.w3.org/2000/svg">
<path d="M20.1898 62.7122C20.1898 63.2098 20.0157 63.4585 19.6674 63.4585H18.3462C17.9775 63.4585 17.7932 63.2098 17.7932 62.7122V41.9024H17.701L16.6256 45.2829L12.1396 58.3659C12.0167 58.7463 11.8118 58.9366 11.5251 58.9366H10.634C10.4496 58.9366 10.3063 58.8927 10.2038 58.8049C10.1219 58.7171 10.0502 58.5854 9.98875 58.4098L5.31841 44.8L4.3659 41.9024H4.30445V62.7122C4.30445 63.2098 4.14058 63.4585 3.81283 63.4585H2.52234C2.17411 63.4585 2 63.2098 2 62.7122V35.0098C2 34.5707 2.15363 34.3512 2.46089 34.3512H3.81283C4.01767 34.3512 4.16106 34.4098 4.243 34.5268C4.32493 34.6146 4.40687 34.7756 4.4888 35.0098L9.58932 50.1561L11.0642 54.7219H11.1256L12.6312 49.9805L17.7317 35.0537C17.8341 34.8195 17.9263 34.6439 18.0082 34.5268C18.1107 34.4098 18.2745 34.3512 18.4998 34.3512H19.7289C20.0361 34.3512 20.1898 34.5707 20.1898 35.0098V62.7122Z" fill="#318F28"/>
<path d="M40.1389 48.4878C40.1389 50.2146 40.0672 51.9854 39.9238 53.8C39.7804 55.6146 39.4322 57.2683 38.8791 58.761C38.3465 60.2537 37.5476 61.4829 36.4825 62.4488C35.4173 63.3854 33.9732 63.8537 32.1501 63.8537C30.9415 63.8537 29.9071 63.6341 29.0468 63.1951C28.2069 62.7561 27.5002 62.1707 26.9267 61.439C26.3531 60.6781 25.8922 59.8 25.544 58.8049C25.2163 57.7805 24.9602 56.6976 24.7759 55.5561C24.5915 54.4146 24.4686 53.2439 24.4072 52.0439C24.3662 50.8439 24.3457 49.6585 24.3457 48.4878C24.3457 47.5805 24.3764 46.6 24.4379 45.5463C24.4993 44.4634 24.6222 43.3951 24.8066 42.3415C24.991 41.2585 25.2572 40.2195 25.6055 39.2244C25.9742 38.2 26.4453 37.3073 27.0189 36.5463C27.5924 35.7854 28.2991 35.1707 29.139 34.7024C29.9993 34.2341 31.0132 34 32.1808 34C33.922 34 35.3149 34.4244 36.3596 35.2732C37.4247 36.122 38.2338 37.2341 38.7869 38.6098C39.34 39.9561 39.6984 41.4927 39.8623 43.2195C40.0467 44.9463 40.1389 46.7024 40.1389 48.4878ZM37.7422 48.9268C37.7422 47.0244 37.6501 45.3268 37.4657 43.8341C37.3018 42.3415 37.0048 41.0976 36.5746 40.1024C36.1445 39.078 35.5709 38.3024 34.854 37.7756C34.137 37.2488 33.2358 36.9854 32.1501 36.9854C31.1259 36.9854 30.2656 37.2634 29.5691 37.8195C28.8931 38.3756 28.3503 39.1805 27.9406 40.2341C27.531 41.2585 27.2339 42.5024 27.0496 43.9659C26.8857 45.4293 26.8038 47.0829 26.8038 48.9268C26.8038 50.7122 26.8755 52.3366 27.0189 53.8C27.1827 55.2341 27.4593 56.4781 27.8485 57.5317C28.2581 58.5561 28.801 59.361 29.4769 59.9463C30.1734 60.5024 31.0644 60.7805 32.1501 60.7805C33.2562 60.7805 34.1678 60.5171 34.8847 59.9902C35.6017 59.4341 36.1752 58.6585 36.6054 57.6634C37.0355 56.639 37.3325 55.3951 37.4964 53.9317C37.6603 52.439 37.7422 50.7707 37.7422 48.9268Z" fill="#318F28"/>
<path d="M56.1685 62.7122C56.1685 63.2098 56.0046 63.4585 55.6768 63.4585H54.3556C53.9869 63.4585 53.8026 63.2098 53.8026 62.7122V50.2H50.9758C50.5866 50.2 50.2076 50.2585 49.8389 50.3756C49.4702 50.4927 49.122 50.7122 48.7942 51.0341C48.487 51.3561 48.1899 51.8098 47.9032 52.3951C47.6369 52.9805 47.4013 53.7561 47.1965 54.7219L45.568 62.6244C45.4861 62.9463 45.3836 63.1659 45.2607 63.2829C45.1583 63.4 45.0047 63.4585 44.7998 63.4585H43.6015C43.2533 63.4585 43.0485 63.3707 42.987 63.1951C42.946 62.9902 42.9665 62.7122 43.0485 62.361L44.7691 54.1512C45.0559 52.7171 45.4246 51.5024 45.8752 50.5073C46.3464 49.4829 47.0121 48.7805 47.8724 48.4C47.2374 48.0781 46.6639 47.4488 46.1518 46.5122C45.6397 45.5463 45.2402 44.3463 44.9535 42.9122L43.3557 35.4927C43.2738 35.1415 43.2533 34.878 43.2943 34.7024C43.3557 34.4976 43.5606 34.3951 43.9088 34.3951H44.9535C45.1583 34.3951 45.3119 34.4537 45.4144 34.5707C45.5373 34.6878 45.6397 34.9073 45.7216 35.2293L47.3808 42.8244C47.5857 43.7902 47.8315 44.5512 48.1182 45.1073C48.4255 45.6634 48.743 46.0878 49.0707 46.3805C49.3985 46.6732 49.7365 46.8634 50.0847 46.9512C50.4534 47.039 50.8016 47.0829 51.1294 47.0829H53.8026V35.1415C53.8026 34.8195 53.8435 34.6146 53.9255 34.5268C54.0279 34.4098 54.1713 34.3512 54.3556 34.3512H55.6768C55.8407 34.3512 55.9636 34.4098 56.0455 34.5268C56.1275 34.6146 56.1685 34.8195 56.1685 35.1415V47.0829H58.8416C59.1694 47.0829 59.5073 47.039 59.8556 46.9512C60.2243 46.8634 60.5725 46.6732 60.9003 46.3805C61.228 46.0878 61.5353 45.6634 61.822 45.1073C62.1293 44.5512 62.3853 43.7902 62.5902 42.8244L64.2494 35.2293C64.3313 34.9073 64.4235 34.6878 64.5259 34.5707C64.6488 34.4537 64.8127 34.3951 65.0175 34.3951H66.0622C66.4104 34.3951 66.605 34.4976 66.646 34.7024C66.7075 34.878 66.6972 35.1415 66.6153 35.4927L65.0175 42.9122C64.7308 44.3463 64.3313 45.5463 63.8192 46.5122C63.3071 47.4488 62.7336 48.0781 62.0986 48.4C62.9589 48.7805 63.6144 49.4829 64.065 50.5073C64.5362 51.5024 64.9151 52.7171 65.2019 54.1512L66.9225 62.361C67.0045 62.7122 67.0147 62.9902 66.9533 63.1951C66.9123 63.3707 66.7177 63.4585 66.3695 63.4585H65.1712C64.9663 63.4585 64.8025 63.4 64.6795 63.2829C64.5771 63.1659 64.485 62.9463 64.403 62.6244L62.7745 54.7219C62.5697 53.7561 62.3239 52.9805 62.0371 52.3951C61.7708 51.8098 61.4738 51.3561 61.1461 51.0341C60.8388 50.7122 60.5008 50.4927 60.1321 50.3756C59.7634 50.2585 59.3844 50.2 58.9952 50.2H56.1685V62.7122Z" fill="#318F28"/>
<path d="M82.0635 62.7561C82.0635 63.0488 82.0225 63.239 81.9406 63.3268C81.8587 63.4146 81.7255 63.4585 81.5411 63.4585H70.7563C70.3876 63.4585 70.2033 63.2244 70.2033 62.7561V35.0976C70.2033 34.6 70.3876 34.3512 70.7563 34.3512H81.3568C81.705 34.3512 81.8791 34.5854 81.8791 35.0537V36.7659C81.8791 37.2634 81.6948 37.5122 81.3261 37.5122H72.5999V46.7756H80.435C80.7832 46.7756 80.9574 47.0098 80.9574 47.478V49.1902C80.9574 49.6585 80.7832 49.8927 80.435 49.8927H72.5999V60.3415H81.5719C81.8996 60.3415 82.0635 60.5903 82.0635 61.0878V62.7561Z" fill="#318F28"/>
<path d="M105.704 36.8098C105.704 37.3073 105.52 37.5561 105.151 37.5561H96.3331V46.3805H101.096C102.345 46.3805 103.369 46.6439 104.168 47.1707C104.967 47.6976 105.592 48.3854 106.042 49.2342C106.514 50.0537 106.831 50.9756 106.995 52C107.179 53.0244 107.272 54.0342 107.272 55.0293C107.272 56.4342 107.097 57.6634 106.749 58.7171C106.421 59.7707 105.971 60.6488 105.397 61.3512C104.824 62.0537 104.148 62.5805 103.369 62.9317C102.611 63.2829 101.802 63.4585 100.942 63.4585H94.4895C94.1208 63.4585 93.9364 63.2244 93.9364 62.7561V35.0976C93.9364 34.6585 94.0696 34.4244 94.3359 34.3951H105.182C105.53 34.3951 105.704 34.6293 105.704 35.0976V36.8098ZM104.906 54.9854C104.906 54.2537 104.844 53.5512 104.721 52.8781C104.619 52.2049 104.424 51.6195 104.137 51.1219C103.851 50.5951 103.451 50.1854 102.939 49.8927C102.448 49.5707 101.813 49.4098 101.034 49.4098H96.3331V60.3854H100.758C102.007 60.3854 103.011 59.9463 103.769 59.0683C104.527 58.1903 104.906 56.8293 104.906 54.9854Z" fill="#318F28"/>
<path d="M116.497 53.2732L119.109 43.3951L121.382 34.878C121.464 34.6732 121.546 34.5415 121.628 34.4829C121.71 34.3951 121.843 34.3512 122.028 34.3512H123.533C123.861 34.3512 123.953 34.5707 123.81 35.0098L117.572 57.2683C117.224 58.3512 116.896 59.3024 116.589 60.122C116.302 60.9415 115.985 61.6293 115.637 62.1854C115.309 62.7122 114.93 63.122 114.5 63.4146C114.09 63.6781 113.598 63.8244 113.025 63.8537C112.738 63.8537 112.431 63.839 112.103 63.8098C111.796 63.7805 111.458 63.7073 111.089 63.5902C110.659 63.4732 110.475 63.1512 110.536 62.6244L110.659 61.439C110.7 61 110.884 60.7951 111.212 60.8244C111.765 60.8537 112.216 60.8537 112.564 60.8244C112.933 60.7659 113.24 60.6488 113.486 60.4732C113.732 60.2683 113.947 60.0049 114.131 59.6829C114.315 59.3317 114.5 58.8634 114.684 58.278L115.176 56.8732L108.877 34.9659C108.836 34.8195 108.836 34.6878 108.877 34.5707C108.918 34.4537 109 34.3951 109.123 34.3951H110.936C111.12 34.3951 111.243 34.439 111.304 34.5268C111.386 34.6146 111.458 34.7463 111.519 34.9219L113.916 43.7902L116.405 53.2732H116.497Z" fill="#318F28"/>
<path d="M138.778 36.7659C138.778 37.2634 138.594 37.5122 138.225 37.5122H133.063V62.7122C133.063 63.2098 132.899 63.4585 132.571 63.4585H131.25C130.882 63.4585 130.697 63.2098 130.697 62.7122V37.5122H125.566C125.197 37.5122 125.013 37.2634 125.013 36.7659V35.0537C125.013 34.5854 125.187 34.3512 125.535 34.3512H138.256C138.604 34.3512 138.778 34.5854 138.778 35.0537V36.7659Z" fill="#318F28"/>
<path d="M141.496 35.1415C141.496 34.8195 141.537 34.6146 141.619 34.5268C141.701 34.4098 141.823 34.3512 141.987 34.3512H143.247C143.431 34.3512 143.565 34.4098 143.647 34.5268C143.749 34.6146 143.8 34.8195 143.8 35.1415V57.4878H143.892L146.443 51.7366L153.848 35.0537C153.95 34.8488 154.042 34.6878 154.124 34.5707C154.226 34.4244 154.39 34.3512 154.616 34.3512H155.875C156.203 34.3512 156.367 34.5707 156.367 35.0098V62.7122C156.367 63.2098 156.183 63.4585 155.814 63.4585H154.554C154.206 63.4585 154.032 63.2098 154.032 62.7122V40.1024H153.94L151.881 44.8878L143.954 62.7561C143.851 62.9902 143.749 63.1659 143.647 63.2829C143.544 63.4 143.38 63.4585 143.155 63.4585H141.987C141.66 63.4585 141.496 63.2244 141.496 62.7561V35.1415Z" fill="#318F28"/>
<path d="M189.718 62.6244C189.718 63.1805 189.554 63.4585 189.227 63.4585H169.685C169.316 63.4585 169.132 63.1805 169.132 62.6244V35.0537C169.132 34.5561 169.316 34.3073 169.685 34.3073H171.006C171.334 34.3073 171.498 34.5561 171.498 35.0537V60.2537H178.288V35.1415C178.288 34.8195 178.329 34.6146 178.411 34.5268C178.513 34.4098 178.657 34.3512 178.841 34.3512H180.193C180.357 34.3512 180.48 34.4098 180.562 34.5268C180.664 34.6146 180.715 34.8195 180.715 35.1415V60.2537H187.352V35.0537C187.352 34.5561 187.537 34.3073 187.905 34.3073H189.227C189.554 34.3073 189.718 34.5561 189.718 35.0537V62.6244Z" fill="#318F28"/>
<path d="M196.49 62.7122C196.49 63.2098 196.327 63.4585 195.999 63.4585H194.678C194.309 63.4585 194.124 63.2098 194.124 62.7122V35.1415C194.124 34.8195 194.165 34.6146 194.247 34.5268C194.35 34.4098 194.493 34.3512 194.678 34.3512H195.999C196.163 34.3512 196.286 34.4098 196.367 34.5268C196.449 34.6146 196.49 34.8195 196.49 35.1415V47.0829H199.809C200.137 47.0829 200.475 47.039 200.823 46.9512C201.191 46.8634 201.54 46.6732 201.867 46.3805C202.195 46.0878 202.502 45.6634 202.789 45.1073C203.096 44.5512 203.353 43.7902 203.557 42.8244L205.217 35.2293C205.298 34.9073 205.391 34.6878 205.493 34.5707C205.616 34.4537 205.78 34.3951 205.985 34.3951H206.999C207.347 34.3951 207.541 34.4976 207.582 34.7024C207.644 34.878 207.634 35.1415 207.552 35.4927L205.954 42.9122C205.667 44.3463 205.268 45.5463 204.756 46.5122C204.244 47.4488 203.67 48.0781 203.035 48.4C203.895 48.7805 204.551 49.4829 205.001 50.5073C205.473 51.5024 205.852 52.7171 206.138 54.1512L207.859 62.361C207.941 62.7122 207.951 62.9902 207.89 63.1951C207.849 63.3707 207.654 63.4585 207.306 63.4585H206.138C205.933 63.4585 205.77 63.4 205.647 63.2829C205.544 63.1659 205.452 62.9463 205.37 62.6244L203.742 54.7219C203.537 53.7561 203.291 52.9805 203.004 52.3951C202.738 51.8098 202.441 51.3561 202.113 51.0341C201.806 50.7122 201.468 50.4927 201.099 50.3756C200.731 50.2585 200.352 50.2 199.962 50.2H196.49V62.7122Z" fill="#318F28"/>
<path d="M213.937 62.7122C213.937 63.2098 213.763 63.4585 213.414 63.4585H212.062C211.694 63.4585 211.509 63.2098 211.509 62.7122V35.1415C211.509 34.8195 211.55 34.6146 211.632 34.5268C211.735 34.4098 211.878 34.3512 212.062 34.3512H213.414C213.578 34.3512 213.701 34.4098 213.783 34.5268C213.886 34.6146 213.937 34.8195 213.937 35.1415V62.7122Z" fill="#318F28"/>
<path d="M232.585 63.4585H219.526L219.342 69.0781C219.321 69.4585 219.27 69.7073 219.188 69.8244C219.127 69.9415 219.004 70 218.819 70H217.652C217.488 70 217.375 69.9415 217.314 69.8244C217.273 69.7073 217.242 69.4585 217.222 69.0781L217.006 61.4829C216.986 61.161 217.017 60.9268 217.099 60.7805C217.201 60.6049 217.344 60.4878 217.529 60.4293L218.328 60.2098C218.696 59.7122 219.014 59.2 219.28 58.6732C219.546 58.1171 219.772 57.5024 219.956 56.8293C220.14 56.1268 220.294 55.3366 220.417 54.4585C220.54 53.5512 220.642 52.4976 220.724 51.2976L221.708 35.2732C221.728 35.0098 221.779 34.7902 221.861 34.6146C221.964 34.439 222.158 34.3512 222.445 34.3512H233.107C233.271 34.3512 233.394 34.4098 233.476 34.5268C233.557 34.6146 233.598 34.8195 233.598 35.1415V60.2537L234.705 60.4293C234.93 60.4878 235.053 60.6341 235.073 60.8683C235.114 61.0732 235.135 61.2341 235.135 61.3512L234.828 69.0781C234.807 69.4585 234.766 69.7073 234.705 69.8244C234.643 69.9415 234.551 70 234.428 70H233.199C233.035 70 232.922 69.9415 232.861 69.8244C232.82 69.7073 232.789 69.4585 232.769 69.0781L232.585 63.4585ZM231.233 60.2976V37.5122H223.858L223.09 50.7268C223.008 52.0439 222.916 53.2146 222.814 54.239C222.732 55.2341 222.619 56.1122 222.476 56.8732C222.332 57.6049 222.158 58.2488 221.953 58.8049C221.748 59.361 221.503 59.8585 221.216 60.2976H231.233Z" fill="#318F28"/>
<path d="M242.388 47.2146C242.286 49.3805 242.194 51.4585 242.112 53.4488C242.03 55.439 241.825 57.2098 241.497 58.761C241.169 60.2829 240.637 61.4976 239.899 62.4049C239.162 63.3122 238.076 63.7805 236.642 63.8098C236.356 63.8098 236.171 63.7512 236.089 63.6341C236.008 63.5171 235.967 63.3122 235.967 63.0195L235.936 61.7902C235.936 61.5561 235.956 61.4098 235.997 61.3512C236.059 61.2634 236.182 61.1902 236.366 61.1317C236.919 60.9854 237.38 60.7951 237.749 60.561C238.138 60.3268 238.455 60.0049 238.701 59.5951C238.967 59.1854 239.172 58.6439 239.316 57.9707C239.459 57.2976 239.582 56.4341 239.684 55.3805C239.787 54.3268 239.869 53.0537 239.93 51.561C239.992 50.0683 240.074 48.2829 240.176 46.2049L240.668 35.1415C240.668 34.8195 240.709 34.6146 240.791 34.5268C240.893 34.4098 241.036 34.3512 241.221 34.3512H251.145C251.309 34.3512 251.432 34.4098 251.514 34.5268C251.596 34.6146 251.637 34.8195 251.637 35.1415V62.7122C251.637 63.2098 251.473 63.4585 251.145 63.4585H249.824C249.455 63.4585 249.271 63.2098 249.271 62.7122V37.5122H242.818L242.388 47.2146Z" fill="#318F28"/>
<path d="M255.998 35.1415C255.998 34.8195 256.039 34.6146 256.121 34.5268C256.203 34.4098 256.326 34.3512 256.49 34.3512H257.749C257.934 34.3512 258.067 34.4098 258.149 34.5268C258.251 34.6146 258.302 34.8195 258.302 35.1415V57.4878H258.395L260.945 51.7366L268.35 35.0537C268.452 34.8488 268.544 34.6878 268.626 34.5707C268.729 34.4244 268.893 34.3512 269.118 34.3512H270.378C270.705 34.3512 270.869 34.5707 270.869 35.0098V62.7122C270.869 63.2098 270.685 63.4585 270.316 63.4585H269.056C268.708 63.4585 268.534 63.2098 268.534 62.7122V40.1024H268.442L266.383 44.8878L258.456 62.7561C258.354 62.9902 258.251 63.1659 258.149 63.2829C258.046 63.4 257.882 63.4585 257.657 63.4585H256.49C256.162 63.4585 255.998 63.2244 255.998 62.7561V35.1415Z" fill="#318F28"/>
<path d="M288.933 55.4683C288.933 56.6976 288.78 57.8098 288.472 58.8049C288.186 59.7707 287.786 60.6049 287.274 61.3073C286.762 61.9805 286.168 62.5073 285.492 62.8878C284.836 63.2683 284.13 63.4585 283.372 63.4585H275.967C275.721 63.4585 275.547 63.4 275.445 63.2829C275.363 63.1659 275.322 62.9756 275.322 62.7122V35.0976C275.322 34.6293 275.506 34.3951 275.875 34.3951H282.358C284.345 34.3951 285.83 35.0829 286.813 36.4585C287.817 37.8341 288.319 39.6341 288.319 41.8585C288.319 42.3268 288.278 42.8537 288.196 43.439C288.134 44.0244 288.001 44.6098 287.796 45.1951C287.612 45.7805 287.346 46.3366 286.998 46.8634C286.67 47.3902 286.24 47.8293 285.707 48.1805L285.738 48.2244C286.352 48.4878 286.864 48.9122 287.274 49.4976C287.684 50.0537 288.012 50.6683 288.257 51.3415C288.503 52.0146 288.677 52.7171 288.78 53.4488C288.882 54.1805 288.933 54.8537 288.933 55.4683ZM285.799 42.1219C285.799 40.7756 285.502 39.6634 284.908 38.7854C284.314 37.9073 283.362 37.4683 282.051 37.4683H277.688V46.8195H282.512C282.962 46.8195 283.382 46.7024 283.771 46.4683C284.181 46.2049 284.529 45.8683 284.816 45.4585C285.123 45.0488 285.359 44.5659 285.523 44.0098C285.707 43.4244 285.799 42.7951 285.799 42.1219ZM286.414 55.161C286.414 54.4878 286.342 53.8293 286.199 53.1854C286.055 52.5415 285.83 51.9854 285.523 51.5171C285.215 51.0195 284.816 50.6244 284.324 50.3317C283.853 50.039 283.28 49.8927 282.604 49.8927H277.688V60.3415H282.604C283.362 60.3415 283.986 60.2098 284.478 59.9463C284.97 59.6537 285.359 59.2732 285.646 58.8049C285.932 58.3073 286.127 57.7512 286.229 57.1366C286.352 56.522 286.414 55.8634 286.414 55.161Z" fill="#318F28"/>
<path d="M292.425 35.1415C292.425 34.8195 292.466 34.6146 292.548 34.5268C292.63 34.4098 292.753 34.3512 292.917 34.3512H294.176C294.361 34.3512 294.494 34.4098 294.576 34.5268C294.678 34.6146 294.729 34.8195 294.729 35.1415V57.4878H294.822L297.372 51.7366L304.777 35.0537C304.879 34.8488 304.971 34.6878 305.053 34.5707C305.156 34.4244 305.32 34.3512 305.545 34.3512H306.805C307.133 34.3512 307.296 34.5707 307.296 35.0098V62.7122C307.296 63.2098 307.112 63.4585 306.743 63.4585H305.484C305.135 63.4585 304.961 63.2098 304.961 62.7122V40.1024H304.869L302.81 44.8878L294.883 62.7561C294.781 62.9902 294.678 63.1659 294.576 63.2829C294.473 63.4 294.31 63.4585 294.084 63.4585H292.917C292.589 63.4585 292.425 63.2244 292.425 62.7561V35.1415Z" fill="#318F28"/>
<path d="M330 62.7122C330 63.2098 329.826 63.4585 329.478 63.4585H328.156C327.788 63.4585 327.603 63.2098 327.603 62.7122V41.9024H327.511L326.436 45.2829L321.95 58.3659C321.827 58.7463 321.622 58.9366 321.335 58.9366H320.444C320.26 58.9366 320.116 58.8927 320.014 58.8049C319.932 58.7171 319.86 58.5854 319.799 58.4098L315.129 44.8L314.176 41.9024H314.115V62.7122C314.115 63.2098 313.951 63.4585 313.623 63.4585H312.333C311.984 63.4585 311.81 63.2098 311.81 62.7122V35.0098C311.81 34.5707 311.964 34.3512 312.271 34.3512H313.623C313.828 34.3512 313.971 34.4098 314.053 34.5268C314.135 34.6146 314.217 34.7756 314.299 35.0098L319.4 50.1561L320.874 54.7219H320.936L322.441 49.9805L327.542 35.0537C327.644 34.8195 327.737 34.6439 327.818 34.5268C327.921 34.4098 328.085 34.3512 328.31 34.3512H329.539C329.846 34.3512 330 34.5707 330 35.0098V62.7122Z" fill="#318F28"/>
<path d="M13.7512 0.0441171C14.2139 0.0441171 14.7845 0.0588228 15.463 0.0882342C16.1416 0.117646 16.8664 0.176469 17.6375 0.264705C18.4085 0.352939 19.1796 0.470587 19.9507 0.617647C20.7218 0.764706 21.4157 0.955881 22.0326 1.19117C22.3719 1.33823 22.5724 1.48529 22.6341 1.63235C22.6957 1.77941 22.6957 1.95588 22.6341 2.16176L22.3565 3.39706C22.2948 3.54412 22.2022 3.67647 22.0789 3.79412C21.9863 3.91176 21.7859 3.94118 21.4774 3.88235C20.4596 3.73529 19.2567 3.60294 17.8688 3.48529C16.5117 3.33824 15.1392 3.26471 13.7512 3.26471C11.9623 3.26471 10.5435 3.58823 9.49488 4.23529C8.44621 4.88235 7.64429 5.7647 7.08912 6.88235C6.53394 7.97059 6.17924 9.25 6.02503 10.7206C5.87081 12.1618 5.7937 13.6912 5.7937 15.3088C5.7937 16.7794 5.88623 18.2059 6.07129 19.5882C6.25635 20.9706 6.62647 22.1912 7.18164 23.25C7.76766 24.3088 8.58501 25.1618 9.63367 25.8088C10.6823 26.4265 12.0549 26.7353 13.7512 26.7353C15.17 26.7353 16.5271 26.6765 17.8225 26.5588C19.1179 26.4118 20.3208 26.2647 21.4312 26.1176C21.7704 26.0588 21.9863 26.1029 22.0789 26.25C22.2022 26.3676 22.2948 26.5 22.3565 26.6471L22.5878 27.7941C22.6495 28.0294 22.6495 28.2206 22.5878 28.3676C22.5569 28.5147 22.3873 28.6471 22.0789 28.7647C21.5237 29 20.8606 29.1912 20.0895 29.3382C19.3184 29.4853 18.5319 29.6029 17.73 29.6912C16.9589 29.7794 16.2187 29.8382 15.5093 29.8677C14.7999 29.9265 14.2139 29.9559 13.7512 29.9559C11.3146 29.9559 9.32524 29.5588 7.78309 28.7647C6.27177 27.9412 5.08431 26.8529 4.2207 25.5C3.3571 24.1471 2.77108 22.5882 2.46265 20.8235C2.15422 19.0588 2 17.2206 2 15.3088C2 13.3676 2.13879 11.4853 2.41638 9.66176C2.72481 7.80882 3.29541 6.17647 4.12818 4.76471C4.96094 3.35294 6.1484 2.22059 7.69056 1.36765C9.23271 0.485293 11.2529 0.0441171 13.7512 0.0441171Z" fill="#318F28"/>
<path d="M28.3748 28.8971C28.2823 29.1912 28.1589 29.3824 28.0047 29.4706C27.8505 29.5588 27.65 29.6029 27.4033 29.6029H24.9975C24.5657 29.6029 24.4423 29.3676 24.6274 28.8971L34.2967 1.05882C34.4201 0.617645 34.7131 0.397056 35.1758 0.397056H37.7666C38.075 0.397056 38.2755 0.45588 38.368 0.573527C38.4914 0.691175 38.5839 0.85294 38.6456 1.05882L48.3149 28.9853C48.4075 29.3971 48.2841 29.6029 47.9448 29.6029H45.1227C44.8759 29.6029 44.6909 29.5588 44.5675 29.4706C44.475 29.3824 44.3979 29.2353 44.3362 29.0294L42.0692 21.7941H30.7806L28.3748 28.8971ZM38.7381 11.2941L36.5174 4.14706H36.3786L34.2042 11.1618L31.8447 18.6618H41.0514L38.7381 11.2941Z" fill="#318F28"/>
<path d="M80.0456 28.8529C80.0456 29.3529 79.7835 29.6029 79.2591 29.6029H77.2697C76.7146 29.6029 76.437 29.3529 76.437 28.8529V7.94117H76.2982L74.6789 11.3382L67.9243 24.4853C67.7392 24.8676 67.4308 25.0588 66.999 25.0588H65.6573C65.3797 25.0588 65.1638 25.0147 65.0096 24.9265C64.8862 24.8382 64.7783 24.7059 64.6858 24.5294L57.6535 10.8529L56.2193 7.94117H56.1268V28.8529C56.1268 29.3529 55.88 29.6029 55.3866 29.6029H53.4434C52.9191 29.6029 52.6569 29.3529 52.6569 28.8529V1.01471C52.6569 0.573528 52.8883 0.352939 53.3509 0.352939H55.3866C55.695 0.352939 55.9109 0.411763 56.0343 0.52941C56.1576 0.617646 56.281 0.779411 56.4044 1.01471L64.0843 16.2353L66.305 20.8235H66.3976L68.6645 16.0588L76.3445 1.05882C76.4987 0.823528 76.6375 0.647058 76.7608 0.52941C76.9151 0.411763 77.1618 0.352939 77.5011 0.352939H79.3517C79.8143 0.352939 80.0456 0.573528 80.0456 1.01471V28.8529Z" fill="#318F28"/>
<path d="M110.083 14.5588C110.083 16.2941 109.975 18.0735 109.759 19.8971C109.544 21.7206 109.019 23.3824 108.187 24.8824C107.385 26.3824 106.182 27.6176 104.578 28.5882C102.974 29.5294 100.8 30 98.0545 30C96.2348 30 94.6772 29.7794 93.3818 29.3382C92.1172 28.8971 91.0531 28.3088 90.1895 27.5735C89.3259 26.8088 88.6319 25.9265 88.1076 24.9265C87.6141 23.8971 87.2286 22.8088 86.951 21.6618C86.6734 20.5147 86.4884 19.3382 86.3958 18.1324C86.3341 16.9265 86.3033 15.7353 86.3033 14.5588C86.3033 13.6471 86.3496 12.6618 86.4421 11.6029C86.5346 10.5147 86.7197 9.44117 86.9973 8.38235C87.2749 7.29412 87.6758 6.25 88.2001 5.25C88.7553 4.22059 89.4647 3.32353 90.3283 2.55882C91.1919 1.79412 92.256 1.17647 93.5206 0.705881C94.816 0.235294 96.3427 0 98.1008 0C100.722 0 102.82 0.42647 104.393 1.27941C105.997 2.13235 107.215 3.25 108.048 4.63235C108.88 5.98529 109.42 7.52941 109.667 9.26471C109.945 11 110.083 12.7647 110.083 14.5588ZM106.475 15C106.475 13.0882 106.336 11.3824 106.058 9.88235C105.812 8.38235 105.364 7.13235 104.717 6.13235C104.069 5.10294 103.205 4.32353 102.126 3.79412C101.046 3.2647 99.6892 3 98.0545 3C96.5124 3 95.217 3.27941 94.1683 3.83823C93.1505 4.39706 92.3331 5.20588 91.7163 6.2647C91.0994 7.29412 90.6522 8.54412 90.3746 10.0147C90.1278 11.4853 90.0045 13.1471 90.0045 15C90.0045 16.7941 90.1124 18.4265 90.3283 19.8971C90.5751 21.3382 90.9915 22.5882 91.5775 23.6471C92.1943 24.6765 93.0117 25.4853 94.0295 26.0735C95.0782 26.6324 96.4198 26.9118 98.0545 26.9118C99.7201 26.9118 101.093 26.6471 102.172 26.1176C103.252 25.5588 104.115 24.7794 104.763 23.7794C105.411 22.75 105.858 21.5 106.105 20.0294C106.351 18.5294 106.475 16.8529 106.475 15Z" fill="#318F28"/>
<path d="M122.885 13.2794C122.73 15.4559 122.592 17.5441 122.468 19.5441C122.345 21.5441 122.036 23.3235 121.543 24.8824C121.049 26.4118 120.247 27.6324 119.137 28.5441C118.027 29.4559 116.392 29.9265 114.233 29.9559C113.801 29.9559 113.524 29.8971 113.4 29.7794C113.277 29.6618 113.215 29.4559 113.215 29.1618L113.169 27.9265C113.169 27.6912 113.2 27.5441 113.262 27.4853C113.354 27.3971 113.539 27.3235 113.817 27.2647C114.649 27.1176 115.343 26.9265 115.899 26.6912C116.485 26.4559 116.963 26.1324 117.333 25.7206C117.734 25.3088 118.042 24.7647 118.258 24.0882C118.474 23.4118 118.659 22.5441 118.813 21.4853C118.968 20.4265 119.091 19.1471 119.183 17.6471C119.276 16.1471 119.399 14.3529 119.554 12.2647L120.294 1.14706C120.294 0.823528 120.355 0.617646 120.479 0.52941C120.633 0.411763 120.849 0.352939 121.127 0.352939H136.07C136.317 0.352939 136.502 0.411763 136.625 0.52941C136.749 0.617646 136.81 0.823528 136.81 1.14706V28.8529C136.81 29.3529 136.564 29.6029 136.07 29.6029H134.081C133.525 29.6029 133.248 29.3529 133.248 28.8529V3.52941H123.532L122.885 13.2794Z" fill="#318F28"/>
<path d="M147.68 28.8529C147.68 29.3529 147.417 29.6029 146.893 29.6029H144.857C144.302 29.6029 144.025 29.3529 144.025 28.8529V1.14706C144.025 0.823528 144.086 0.617646 144.21 0.52941C144.364 0.411763 144.58 0.352939 144.857 0.352939H146.893C147.14 0.352939 147.325 0.411763 147.448 0.52941C147.602 0.617646 147.68 0.823528 147.68 1.14706V28.8529Z" fill="#318F28"/>
<path d="M158.594 28.8529C158.594 29.3529 158.347 29.6029 157.853 29.6029H155.864C155.309 29.6029 155.031 29.3529 155.031 28.8529V1.14706C155.031 0.823528 155.093 0.617646 155.216 0.52941C155.371 0.411763 155.586 0.352939 155.864 0.352939H157.853C158.1 0.352939 158.285 0.411763 158.409 0.52941C158.532 0.617646 158.594 0.823528 158.594 1.14706V13.1471H163.59C164.084 13.1471 164.593 13.1029 165.117 13.0147C165.672 12.9265 166.197 12.7353 166.69 12.4412C167.183 12.1471 167.646 11.7206 168.078 11.1618C168.541 10.6029 168.926 9.83824 169.235 8.86765L171.733 1.23529C171.856 0.911764 171.995 0.691175 172.149 0.573527C172.334 0.45588 172.581 0.397056 172.889 0.397056H174.416C174.941 0.397056 175.234 0.499998 175.295 0.705881C175.388 0.882351 175.372 1.14706 175.249 1.5L172.843 8.95588C172.411 10.3971 171.81 11.6029 171.039 12.5735C170.268 13.5147 169.404 14.1471 168.448 14.4706C169.743 14.8529 170.73 15.5588 171.409 16.5882C172.118 17.5882 172.689 18.8088 173.121 20.25L175.712 28.5C175.835 28.8529 175.85 29.1324 175.758 29.3382C175.696 29.5147 175.403 29.6029 174.879 29.6029H173.121C172.812 29.6029 172.566 29.5441 172.381 29.4265C172.226 29.3088 172.088 29.0882 171.964 28.7647L169.512 20.8235C169.204 19.8529 168.834 19.0735 168.402 18.4853C168.001 17.8971 167.554 17.4412 167.06 17.1176C166.597 16.7941 166.089 16.5735 165.533 16.4559C164.978 16.3382 164.408 16.2794 163.822 16.2794H158.594V28.8529Z" fill="#318F28"/>
<path d="M189.952 19.3676L193.885 9.44118L197.308 0.882352C197.432 0.676469 197.555 0.544116 197.678 0.485293C197.802 0.397057 198.002 0.352939 198.28 0.352939H200.547C201.04 0.352939 201.179 0.573528 200.963 1.01471L191.571 23.3824C191.047 24.4706 190.554 25.4265 190.091 26.25C189.659 27.0735 189.181 27.7647 188.657 28.3235C188.163 28.8529 187.593 29.2647 186.945 29.5588C186.328 29.8235 185.588 29.9706 184.724 30C184.292 30 183.83 29.9853 183.336 29.9559C182.874 29.9265 182.365 29.8529 181.81 29.7353C181.162 29.6176 180.884 29.2941 180.977 28.7647L181.162 27.5735C181.224 27.1324 181.501 26.9265 181.995 26.9559C182.827 26.9853 183.506 26.9853 184.03 26.9559C184.585 26.8971 185.048 26.7794 185.418 26.6029C185.788 26.3971 186.112 26.1324 186.39 25.8088C186.667 25.4559 186.945 24.9853 187.222 24.3971L187.963 22.9853L178.478 0.970586C178.417 0.823528 178.417 0.691175 178.478 0.573527C178.54 0.45588 178.664 0.397056 178.849 0.397056H181.578C181.856 0.397056 182.041 0.441174 182.133 0.52941C182.257 0.617646 182.365 0.749999 182.457 0.926469L186.066 9.83824L189.813 19.3676H189.952Z" fill="#318F28"/>
<path d="M225.814 21.5735C225.814 22.8088 225.583 23.9265 225.12 24.9265C224.689 25.8971 224.087 26.7353 223.316 27.4412C222.545 28.1176 221.651 28.6471 220.633 29.0294C219.646 29.4118 218.582 29.6029 217.441 29.6029H206.291C205.921 29.6029 205.658 29.5441 205.504 29.4265C205.381 29.3088 205.319 29.1176 205.319 28.8529V1.10294C205.319 0.632351 205.597 0.397056 206.152 0.397056H215.914C218.906 0.397056 221.142 1.08823 222.622 2.47059C224.134 3.85294 224.889 5.66177 224.889 7.89706C224.889 8.36765 224.827 8.89706 224.704 9.48529C224.612 10.0735 224.411 10.6618 224.103 11.25C223.825 11.8382 223.424 12.3971 222.9 12.9265C222.406 13.4559 221.759 13.8971 220.957 14.25L221.003 14.2941C221.928 14.5588 222.699 14.9853 223.316 15.5735C223.933 16.1324 224.427 16.75 224.797 17.4265C225.167 18.1029 225.429 18.8088 225.583 19.5441C225.737 20.2794 225.814 20.9559 225.814 21.5735ZM221.095 8.16176C221.095 6.80882 220.648 5.69118 219.754 4.80882C218.859 3.92647 217.425 3.48529 215.451 3.48529H208.882V12.8824H216.145C216.824 12.8824 217.456 12.7647 218.042 12.5294C218.659 12.2647 219.183 11.9265 219.615 11.5147C220.078 11.1029 220.432 10.6176 220.679 10.0588C220.957 9.47059 221.095 8.83823 221.095 8.16176ZM222.021 21.2647C222.021 20.5882 221.913 19.9265 221.697 19.2794C221.481 18.6324 221.142 18.0735 220.679 17.6029C220.216 17.1029 219.615 16.7059 218.875 16.4118C218.165 16.1176 217.302 15.9706 216.284 15.9706H208.882V26.4706H216.284C217.425 26.4706 218.366 26.3382 219.106 26.0735C219.846 25.7794 220.432 25.3971 220.864 24.9265C221.296 24.4265 221.589 23.8676 221.743 23.25C221.928 22.6324 222.021 21.9706 222.021 21.2647Z" fill="#318F28"/>
<path d="M232.229 28.8971C232.136 29.1912 232.013 29.3824 231.859 29.4706C231.704 29.5588 231.504 29.6029 231.257 29.6029H228.851C228.42 29.6029 228.296 29.3676 228.481 28.8971L238.15 1.05882C238.274 0.617645 238.567 0.397056 239.03 0.397056H241.62C241.929 0.397056 242.129 0.45588 242.222 0.573527C242.345 0.691175 242.438 0.85294 242.499 1.05882L252.169 28.9853C252.261 29.3971 252.138 29.6029 251.799 29.6029H248.976C248.73 29.6029 248.545 29.5588 248.421 29.4706C248.329 29.3824 248.252 29.2353 248.19 29.0294L245.923 21.7941H234.634L232.229 28.8971ZM242.592 11.2941L240.371 4.14706H240.232L238.058 11.1618L235.698 18.6618H244.905L242.592 11.2941Z" fill="#318F28"/>
<path d="M277.284 28.8529C277.284 29.3529 277.037 29.6029 276.543 29.6029H274.554C273.999 29.6029 273.721 29.3529 273.721 28.8529V15.7059H259.981V28.8529C259.981 29.3529 259.734 29.6029 259.24 29.6029H257.251C256.696 29.6029 256.418 29.3529 256.418 28.8529V1.14706C256.418 0.823528 256.48 0.617646 256.603 0.52941C256.757 0.411763 256.973 0.352939 257.251 0.352939H259.24C259.487 0.352939 259.672 0.411763 259.796 0.52941C259.919 0.617646 259.981 0.823528 259.981 1.14706V12.5294H273.721V1.14706C273.721 0.823528 273.783 0.617646 273.906 0.52941C274.06 0.411763 274.276 0.352939 274.554 0.352939H276.543C276.79 0.352939 276.975 0.411763 277.099 0.52941C277.222 0.617646 277.284 0.823528 277.284 1.14706V28.8529Z" fill="#318F28"/>
<path d="M304.798 28.8529C304.798 29.3529 304.552 29.6029 304.058 29.6029H302.069C301.514 29.6029 301.236 29.3529 301.236 28.8529V15.7059H287.495V28.8529C287.495 29.3529 287.249 29.6029 286.755 29.6029H284.766C284.211 29.6029 283.933 29.3529 283.933 28.8529V1.14706C283.933 0.823528 283.995 0.617646 284.118 0.52941C284.272 0.411763 284.488 0.352939 284.766 0.352939H286.755C287.002 0.352939 287.187 0.411763 287.31 0.52941C287.434 0.617646 287.495 0.823528 287.495 1.14706V12.5294H301.236V1.14706C301.236 0.823528 301.298 0.617646 301.421 0.52941C301.575 0.411763 301.791 0.352939 302.069 0.352939H304.058C304.305 0.352939 304.49 0.411763 304.613 0.52941C304.737 0.617646 304.798 0.823528 304.798 1.14706V28.8529Z" fill="#318F28"/>
<path d="M310.846 9.04412C310.846 7.57353 311.109 6.29412 311.633 5.20588C312.188 4.11765 312.897 3.22059 313.761 2.51471C314.656 1.77941 315.658 1.23529 316.768 0.882352C317.909 0.52941 319.066 0.352939 320.238 0.352939H329.213C329.738 0.352939 330 0.588234 330 1.05882V28.8529C330 29.3529 329.738 29.6029 329.213 29.6029H327.224C326.7 29.6029 326.438 29.3382 326.438 28.8088V16.8971H320.932C320.377 16.9265 319.822 17.0147 319.267 17.1618C318.742 17.2794 318.233 17.5 317.74 17.8235C317.277 18.1471 316.83 18.6029 316.398 19.1912C315.997 19.75 315.658 20.4853 315.38 21.3971L313.252 28.7647C313.129 29.0882 312.975 29.3088 312.79 29.4265C312.635 29.5441 312.404 29.6029 312.096 29.6029H310.476C309.952 29.6029 309.644 29.5147 309.551 29.3382C309.489 29.1324 309.52 28.8529 309.644 28.5L311.91 20.8235C312.25 19.7941 312.682 18.8382 313.206 17.9559C313.73 17.0735 314.44 16.3824 315.334 15.8824C314.563 15.6471 313.9 15.2941 313.345 14.8235C312.79 14.3529 312.327 13.8088 311.957 13.1912C311.587 12.5735 311.309 11.9118 311.124 11.2059C310.939 10.4706 310.846 9.75 310.846 9.04412ZM314.594 8.73529C314.594 9.88235 314.794 10.7941 315.195 11.4706C315.627 12.1471 316.151 12.6618 316.768 13.0147C317.385 13.3676 318.048 13.6029 318.758 13.7206C319.498 13.8088 320.192 13.8529 320.84 13.8529H326.438V3.52941H320.562C320.007 3.52941 319.375 3.61765 318.665 3.79412C317.987 3.94117 317.339 4.22059 316.722 4.63235C316.136 5.0147 315.627 5.54412 315.195 6.22059C314.794 6.86765 314.594 7.70588 314.594 8.73529Z" fill="#318F28"/>
<path d="M16.6915 94.9866H2.70513L2.50767 99.2934C2.48573 99.585 2.43088 99.7757 2.34313 99.8654C2.27731 99.9551 2.14567 100 1.94822 100H0.697672C0.522157 100 0.401491 99.9551 0.335673 99.8654C0.291794 99.7757 0.258885 99.585 0.236945 99.2934L0.00658182 93.4725C-0.0153576 93.2257 0.0175515 93.0463 0.105309 92.9341C0.215006 92.7995 0.368582 92.7098 0.566036 92.6649L1.42167 92.4967C1.81658 92.1154 2.15664 91.7228 2.44185 91.319C2.72707 90.8928 2.9684 90.4218 3.16585 89.9059C3.36331 89.3675 3.52785 88.7619 3.65949 88.0889C3.79113 87.3936 3.90082 86.586 3.98858 85.6663L5.04167 73.3851C5.06361 73.1833 5.11846 73.015 5.20622 72.8804C5.31591 72.7458 5.52434 72.6785 5.83149 72.6785H17.2509C17.4265 72.6785 17.5581 72.7234 17.6458 72.8131C17.7336 72.8804 17.7775 73.0375 17.7775 73.2842V92.5303L18.9622 92.6649C19.2035 92.7098 19.3352 92.8219 19.3571 93.0014C19.401 93.1584 19.4229 93.2818 19.4229 93.3715L19.0938 99.2934C19.0719 99.585 19.028 99.7757 18.9622 99.8654C18.8964 99.9551 18.7977 100 18.666 100H17.3497C17.1742 100 17.0535 99.9551 16.9877 99.8654C16.9438 99.7757 16.9109 99.585 16.8889 99.2934L16.6915 94.9866ZM15.2435 92.564V75.1011H7.34531L6.52258 85.2289C6.43482 86.2383 6.33609 87.1356 6.2264 87.9207C6.13864 88.6834 6.01797 89.3563 5.8644 89.9395C5.71082 90.5003 5.52434 90.9938 5.30494 91.42C5.08555 91.8462 4.82228 92.2275 4.51513 92.564H15.2435Z" fill="#318F28"/>
<path d="M27.1918 82.5372C27.0821 84.1971 26.9834 85.7897 26.8956 87.315C26.8079 88.8404 26.5885 90.1975 26.2374 91.3863C25.8864 92.5528 25.316 93.4837 24.5262 94.179C23.7363 94.8744 22.5736 95.2333 21.0378 95.2557C20.7306 95.2557 20.5332 95.2109 20.4454 95.1212C20.3577 95.0314 20.3138 94.8744 20.3138 94.6501L20.2809 93.708C20.2809 93.5285 20.3028 93.4164 20.3467 93.3715C20.4125 93.3042 20.5442 93.2481 20.7416 93.2033C21.334 93.0911 21.8276 92.9453 22.2225 92.7659C22.6394 92.5864 22.9794 92.3397 23.2427 92.0256C23.5279 91.7116 23.7473 91.2966 23.9009 90.7807C24.0545 90.2648 24.1861 89.603 24.2958 88.7955C24.4055 87.988 24.4932 87.0122 24.5591 85.8682C24.6249 84.7242 24.7126 83.3559 24.8223 81.7633L25.3489 73.2842C25.3489 73.0375 25.3928 72.8804 25.4805 72.8131C25.5902 72.7234 25.7438 72.6785 25.9412 72.6785H36.5709C36.7464 72.6785 36.878 72.7234 36.9658 72.8131C37.0535 72.8804 37.0974 73.0375 37.0974 73.2842V94.4146C37.0974 94.7959 36.9219 94.9866 36.5709 94.9866H35.1558C34.7609 94.9866 34.5634 94.7959 34.5634 94.4146V75.1011H27.6525L27.1918 82.5372Z" fill="#318F28"/>
<path d="M41.3406 79.307C41.3406 78.1855 41.5271 77.2097 41.9001 76.3797C42.295 75.5498 42.7996 74.8656 43.4139 74.3273C44.0502 73.7665 44.7632 73.3515 45.553 73.0823C46.3648 72.8131 47.1875 72.6785 48.0212 72.6785H54.4055C54.7785 72.6785 54.965 72.858 54.965 73.2169V94.4146C54.965 94.7959 54.7785 94.9866 54.4055 94.9866H52.9905C52.6175 94.9866 52.431 94.7847 52.431 94.3809V85.2962H48.5148C48.1199 85.3186 47.725 85.3859 47.3301 85.4981C46.9571 85.5878 46.5951 85.7561 46.2441 86.0028C45.915 86.2495 45.5969 86.5972 45.2897 87.0459C45.0045 87.4721 44.7632 88.0328 44.5657 88.7282L43.0519 94.3473C42.9642 94.594 42.8545 94.7623 42.7228 94.852C42.6131 94.9417 42.4486 94.9866 42.2292 94.9866H41.0774C40.7044 94.9866 40.485 94.9193 40.4192 94.7847C40.3753 94.6277 40.3972 94.4146 40.485 94.1454L42.0975 88.2908C42.3389 87.5057 42.646 86.7767 43.019 86.1037C43.392 85.4308 43.8966 84.9037 44.5328 84.5223C43.9843 84.3429 43.5126 84.0737 43.1177 83.7148C42.7228 83.3559 42.3937 82.9409 42.1305 82.4699C41.8672 81.9988 41.6697 81.4941 41.5381 80.9557C41.4065 80.395 41.3406 79.8454 41.3406 79.307ZM44.0063 79.0715C44.0063 79.9463 44.1489 80.6417 44.4341 81.1576C44.7412 81.6735 45.1142 82.0661 45.553 82.3353C45.9918 82.6044 46.4635 82.7839 46.9681 82.8736C47.4946 82.9409 47.9883 82.9746 48.449 82.9746H52.431V75.1011H48.2515C47.8566 75.1011 47.4069 75.1684 46.9023 75.303C46.4196 75.4152 45.9589 75.6283 45.5201 75.9423C45.1032 76.2339 44.7412 76.6377 44.4341 77.1536C44.1489 77.6471 44.0063 78.2864 44.0063 79.0715Z" fill="#318F28"/>
<path d="M83.1501 88.8628C83.1501 89.8049 82.9855 90.6573 82.6564 91.42C82.3493 92.1602 81.9215 92.7995 81.373 93.3379C80.8245 93.8538 80.1883 94.2576 79.4643 94.5492C78.7622 94.8408 78.0053 94.9866 77.1935 94.9866H69.2624C68.9992 94.9866 68.8127 94.9417 68.703 94.852C68.6152 94.7623 68.5714 94.6165 68.5714 94.4146V73.2506C68.5714 72.8917 68.7688 72.7122 69.1637 72.7122H76.1075C78.2357 72.7122 79.8263 73.2393 80.8794 74.2936C81.9544 75.3479 82.4919 76.7274 82.4919 78.4322C82.4919 78.7911 82.448 79.1949 82.3603 79.6435C82.2944 80.0921 82.1518 80.5408 81.9324 80.9894C81.735 81.438 81.4498 81.8642 81.0768 82.268C80.7258 82.6717 80.2651 83.0082 79.6946 83.2774L79.7275 83.311C80.3857 83.5129 80.9342 83.8382 81.373 84.2868C81.8118 84.713 82.1628 85.1841 82.4261 85.7C82.6894 86.2159 82.8758 86.7543 82.9855 87.315C83.0952 87.8758 83.1501 88.3917 83.1501 88.8628ZM79.7934 78.6341C79.7934 77.6022 79.4752 76.7498 78.839 76.0769C78.2028 75.404 77.1826 75.0675 75.7784 75.0675H71.1054V82.2343H76.2721C76.7548 82.2343 77.2045 82.1446 77.6214 81.9651C78.0601 81.7633 78.4331 81.5053 78.7403 81.1913C79.0694 80.8772 79.3217 80.5071 79.4972 80.0809C79.6946 79.6323 79.7934 79.15 79.7934 78.6341ZM80.4515 88.6273C80.4515 88.1113 80.3748 87.6066 80.2212 87.1132C80.0676 86.6197 79.8263 86.1935 79.4972 85.8346C79.1681 85.4532 78.7403 85.1504 78.2137 84.9261C77.7091 84.7018 77.0948 84.5896 76.3708 84.5896H71.1054V92.5976H76.3708C77.1826 92.5976 77.8517 92.4967 78.3783 92.2948C78.9048 92.0705 79.3217 91.7789 79.6288 91.42C79.936 91.0387 80.1444 90.6125 80.2541 90.1414C80.3857 89.6703 80.4515 89.1656 80.4515 88.6273Z" fill="#318F28"/>
<path d="M87.7126 94.4482C87.6468 94.6725 87.559 94.8183 87.4493 94.8856C87.3396 94.9529 87.197 94.9866 87.0215 94.9866H85.3103C85.0031 94.9866 84.9153 94.8071 85.047 94.4482L91.925 73.2169C92.0127 72.8804 92.2212 72.7122 92.5503 72.7122H94.3932C94.6126 72.7122 94.7552 72.7571 94.821 72.8468C94.9087 72.9365 94.9746 73.0599 95.0184 73.2169L101.896 94.5155C101.962 94.8296 101.874 94.9866 101.633 94.9866H99.6257C99.4502 94.9866 99.3186 94.9529 99.2308 94.8856C99.165 94.8183 99.1101 94.7062 99.0662 94.5492L97.4537 89.031H89.4239L87.7126 94.4482ZM95.0843 81.023L93.5046 75.5722H93.4059L91.8592 80.9221L90.1808 86.6421H96.7297L95.0843 81.023Z" fill="#318F28"/>
<path d="M127.001 94.3473C127.001 94.7735 126.826 94.9866 126.475 94.9866H105.544C105.15 94.9866 104.952 94.7735 104.952 94.3473V73.2169C104.952 72.8356 105.15 72.6449 105.544 72.6449H106.96C107.311 72.6449 107.486 72.8356 107.486 73.2169V92.5303H114.759V73.2842C114.759 73.0375 114.803 72.8804 114.891 72.8131C115 72.7234 115.154 72.6785 115.351 72.6785H116.799C116.975 72.6785 117.107 72.7234 117.194 72.8131C117.304 72.8804 117.359 73.0375 117.359 73.2842V92.5303H124.467V73.2169C124.467 72.8356 124.665 72.6449 125.06 72.6449H126.475C126.826 72.6449 127.001 72.8356 127.001 73.2169V94.3473Z" fill="#318F28"/>
<path d="M148.373 83.5129C148.373 84.8364 148.296 86.1935 148.142 87.5842C147.989 88.975 147.616 90.2423 147.023 91.3863C146.453 92.5303 145.597 93.4725 144.456 94.2127C143.315 94.9305 141.769 95.2894 139.816 95.2894C138.522 95.2894 137.414 95.1212 136.492 94.7847C135.593 94.4482 134.836 93.9996 134.222 93.4388C133.607 92.8556 133.114 92.1827 132.741 91.42C132.39 90.6349 132.115 89.8049 131.918 88.9301C131.721 88.0553 131.589 87.158 131.523 86.2383C131.479 85.3186 131.457 84.4102 131.457 83.5129C131.457 82.8175 131.49 82.0661 131.556 81.2586C131.622 80.4286 131.753 79.6099 131.951 78.8023C132.148 77.9724 132.434 77.176 132.807 76.4134C133.201 75.6283 133.706 74.9441 134.32 74.3609C134.935 73.7777 135.692 73.3066 136.591 72.9477C137.513 72.5888 138.599 72.4094 139.849 72.4094C141.714 72.4094 143.206 72.7346 144.325 73.3851C145.466 74.0357 146.332 74.888 146.925 75.9423C147.517 76.9742 147.901 78.1518 148.076 79.4753C148.274 80.7987 148.373 82.1446 148.373 83.5129ZM145.806 83.8494C145.806 82.3913 145.707 81.0903 145.509 79.9463C145.334 78.8023 145.016 77.849 144.555 77.0863C144.094 76.3012 143.48 75.7068 142.712 75.303C141.944 74.8993 140.979 74.6974 139.816 74.6974C138.719 74.6974 137.798 74.9105 137.052 75.3367C136.328 75.7629 135.746 76.3797 135.308 77.1873C134.869 77.9724 134.551 78.9257 134.353 80.0473C134.178 81.1688 134.09 82.4362 134.09 83.8494C134.09 85.2177 134.167 86.4626 134.32 87.5842C134.496 88.6834 134.792 89.6367 135.209 90.4442C135.648 91.2293 136.229 91.8462 136.953 92.2948C137.699 92.721 138.653 92.9341 139.816 92.9341C141.001 92.9341 141.977 92.7322 142.745 92.3285C143.513 91.9023 144.127 91.3078 144.588 90.5452C145.049 89.7601 145.367 88.8067 145.542 87.6852C145.718 86.5412 145.806 85.2626 145.806 83.8494Z" fill="#318F28"/>
<path d="M165.245 74.5291C165.245 74.9105 165.047 75.1011 164.652 75.1011H155.471V94.4146C155.471 94.7959 155.295 94.9866 154.944 94.9866H153.496C153.101 94.9866 152.904 94.7959 152.904 94.4146V73.2169C152.904 72.858 153.101 72.6785 153.496 72.6785H164.685C165.058 72.6785 165.245 72.858 165.245 73.2169V74.5291Z" fill="#318F28"/>
<path d="M182.985 83.5129C182.985 84.8364 182.908 86.1935 182.755 87.5842C182.601 88.975 182.228 90.2423 181.636 91.3863C181.065 92.5303 180.21 93.4725 179.069 94.2127C177.928 94.9305 176.381 95.2894 174.429 95.2894C173.134 95.2894 172.026 95.1212 171.105 94.7847C170.205 94.4482 169.448 93.9996 168.834 93.4388C168.22 92.8556 167.726 92.1827 167.353 91.42C167.002 90.6349 166.728 89.8049 166.53 88.9301C166.333 88.0553 166.201 87.158 166.135 86.2383C166.092 85.3186 166.07 84.4102 166.07 83.5129C166.07 82.8175 166.103 82.0661 166.168 81.2586C166.234 80.4286 166.366 79.6099 166.563 78.8023C166.761 77.9724 167.046 77.176 167.419 76.4134C167.814 75.6283 168.318 74.9441 168.933 74.3609C169.547 73.7777 170.304 73.3066 171.203 72.9477C172.125 72.5888 173.211 72.4094 174.461 72.4094C176.326 72.4094 177.818 72.7346 178.937 73.3851C180.078 74.0357 180.945 74.888 181.537 75.9423C182.129 76.9742 182.513 78.1518 182.689 79.4753C182.886 80.7987 182.985 82.1446 182.985 83.5129ZM180.418 83.8494C180.418 82.3913 180.319 81.0903 180.122 79.9463C179.946 78.8023 179.628 77.849 179.167 77.0863C178.707 76.3012 178.092 75.7068 177.325 75.303C176.557 74.8993 175.591 74.6974 174.429 74.6974C173.332 74.6974 172.41 74.9105 171.664 75.3367C170.94 75.7629 170.359 76.3797 169.92 77.1873C169.481 77.9724 169.163 78.9257 168.966 80.0473C168.79 81.1688 168.702 82.4362 168.702 83.8494C168.702 85.2177 168.779 86.4626 168.933 87.5842C169.108 88.6834 169.404 89.6367 169.821 90.4442C170.26 91.2293 170.841 91.8462 171.565 92.2948C172.311 92.721 173.266 92.9341 174.429 92.9341C175.613 92.9341 176.59 92.7322 177.357 92.3285C178.125 91.9023 178.74 91.3078 179.2 90.5452C179.661 89.7601 179.979 88.8067 180.155 87.6852C180.33 86.5412 180.418 85.2626 180.418 83.8494Z" fill="#318F28"/>
<path d="M204.91 83.1764C205.436 83.311 205.93 83.5241 206.391 83.8157C206.851 84.1073 207.246 84.4775 207.575 84.9261C207.926 85.3747 208.201 85.9131 208.398 86.5412C208.618 87.1692 208.727 87.887 208.727 88.6946C208.727 89.7713 208.53 90.7246 208.135 91.5546C207.74 92.3621 207.181 93.0463 206.457 93.607C205.754 94.1678 204.91 94.594 203.923 94.8856C202.957 95.1548 201.893 95.2894 200.73 95.2894C200.379 95.2894 199.919 95.267 199.348 95.2221C198.8 95.1997 198.218 95.1436 197.604 95.0539C197.012 94.9866 196.419 94.8968 195.827 94.7847C195.256 94.6725 194.774 94.5267 194.379 94.3473C194.16 94.2576 194.028 94.1566 193.984 94.0445C193.962 93.9323 193.973 93.7865 194.017 93.607L194.181 92.7322C194.225 92.6201 194.28 92.5191 194.346 92.4294C194.434 92.3172 194.598 92.2836 194.84 92.3285C195.629 92.4406 196.529 92.564 197.538 92.6986C198.547 92.8332 199.557 92.9005 200.566 92.9005C202.518 92.9005 203.912 92.5191 204.745 91.7565C205.601 90.9938 206.029 89.9395 206.029 88.5936C206.029 87.0907 205.579 86.014 204.679 85.3635C203.78 84.713 202.507 84.3877 200.862 84.3877H200.039C199.798 84.3877 199.644 84.3541 199.579 84.2868C199.535 84.2195 199.513 84.0849 199.513 83.883V82.7054C199.513 82.5035 199.535 82.3577 199.579 82.268C199.644 82.1558 199.798 82.0997 200.039 82.0997H200.862C201.498 82.0997 202.091 82.0437 202.639 81.9315C203.21 81.8193 203.703 81.6287 204.12 81.3595C204.559 81.0679 204.899 80.6978 205.14 80.2491C205.382 79.7781 205.502 79.1949 205.502 78.4995C205.502 77.6471 205.36 76.9742 205.074 76.4807C204.789 75.9872 204.427 75.6171 203.988 75.3703C203.572 75.1236 203.1 74.9665 202.573 74.8993C202.069 74.832 201.586 74.7983 201.125 74.7983C200.884 74.7983 200.566 74.8207 200.171 74.8656C199.798 74.888 199.381 74.9217 198.92 74.9666C198.482 75.0114 198.021 75.0675 197.538 75.1348C197.077 75.1796 196.65 75.2245 196.255 75.2694C196.013 75.3142 195.849 75.2918 195.761 75.2021C195.695 75.0899 195.64 74.9778 195.597 74.8656L195.432 74.0244C195.388 73.845 195.377 73.6992 195.399 73.587C195.443 73.4749 195.575 73.3739 195.794 73.2842C196.255 73.1047 196.748 72.9589 197.275 72.8468C197.823 72.7122 198.361 72.6113 198.887 72.544C199.414 72.4767 199.908 72.4318 200.368 72.4094C200.829 72.3645 201.213 72.3421 201.52 72.3421C203.955 72.3421 205.689 72.8356 206.72 73.8226C207.751 74.8095 208.267 76.2564 208.267 78.163C208.267 78.7462 208.179 79.307 208.003 79.8454C207.828 80.3613 207.586 80.8324 207.279 81.2586C206.972 81.6848 206.61 82.0661 206.193 82.4026C205.798 82.7166 205.371 82.9521 204.91 83.1092V83.1764Z" fill="#318F28"/>
<path d="M226.873 94.9866H212.886L212.689 99.2934C212.667 99.585 212.612 99.7757 212.524 99.8654C212.458 99.9551 212.327 100 212.129 100H210.879C210.703 100 210.583 99.9551 210.517 99.8654C210.473 99.7757 210.44 99.585 210.418 99.2934L210.188 93.4725C210.166 93.2257 210.199 93.0463 210.286 92.9341C210.396 92.7995 210.55 92.7098 210.747 92.6649L211.603 92.4967C211.998 92.1154 212.338 91.7228 212.623 91.319C212.908 90.8928 213.149 90.4218 213.347 89.9059C213.544 89.3675 213.709 88.7619 213.841 88.0889C213.972 87.3936 214.082 86.586 214.17 85.6663L215.223 73.3851C215.245 73.1833 215.299 73.015 215.387 72.8804C215.497 72.7458 215.705 72.6785 216.013 72.6785H227.432C227.607 72.6785 227.739 72.7234 227.827 72.8131C227.915 72.8804 227.959 73.0375 227.959 73.2842V92.5303L229.143 92.6649C229.385 92.7098 229.516 92.8219 229.538 93.0014C229.582 93.1584 229.604 93.2818 229.604 93.3715L229.275 99.2934C229.253 99.585 229.209 99.7757 229.143 99.8654C229.077 99.9551 228.979 100 228.847 100H227.531C227.355 100 227.235 99.9551 227.169 99.8654C227.125 99.7757 227.092 99.585 227.07 99.2934L226.873 94.9866ZM225.425 92.564V75.1011H217.526L216.704 85.2289C216.616 86.2383 216.517 87.1356 216.407 87.9207C216.32 88.6834 216.199 89.3563 216.045 89.9395C215.892 90.5003 215.705 90.9938 215.486 91.42C215.267 91.8462 215.003 92.2275 214.696 92.564H225.425Z" fill="#318F28"/>
<path d="M249.253 83.5129C249.253 84.8364 249.176 86.1935 249.023 87.5842C248.869 88.975 248.496 90.2423 247.904 91.3863C247.333 92.5303 246.478 93.4725 245.337 94.2127C244.196 94.9305 242.649 95.2894 240.697 95.2894C239.402 95.2894 238.294 95.1212 237.373 94.7847C236.473 94.4482 235.716 93.9996 235.102 93.4388C234.488 92.8556 233.994 92.1827 233.621 91.42C233.27 90.6349 232.996 89.8049 232.798 88.9301C232.601 88.0553 232.469 87.158 232.404 86.2383C232.36 85.3186 232.338 84.4102 232.338 83.5129C232.338 82.8175 232.371 82.0661 232.436 81.2586C232.502 80.4286 232.634 79.6099 232.831 78.8023C233.029 77.9724 233.314 77.176 233.687 76.4134C234.082 75.6283 234.587 74.9441 235.201 74.3609C235.815 73.7777 236.572 73.3066 237.472 72.9477C238.393 72.5888 239.479 72.4094 240.73 72.4094C242.594 72.4094 244.086 72.7346 245.205 73.3851C246.346 74.0357 247.213 74.888 247.805 75.9423C248.397 76.9742 248.781 78.1518 248.957 79.4753C249.154 80.7987 249.253 82.1446 249.253 83.5129ZM246.686 83.8494C246.686 82.3913 246.587 81.0903 246.39 79.9463C246.214 78.8023 245.896 77.849 245.436 77.0863C244.975 76.3012 244.361 75.7068 243.593 75.303C242.825 74.8993 241.859 74.6974 240.697 74.6974C239.6 74.6974 238.678 74.9105 237.932 75.3367C237.208 75.7629 236.627 76.3797 236.188 77.1873C235.749 77.9724 235.431 78.9257 235.234 80.0473C235.058 81.1688 234.97 82.4362 234.97 83.8494C234.97 85.2177 235.047 86.4626 235.201 87.5842C235.376 88.6834 235.673 89.6367 236.089 90.4442C236.528 91.2293 237.11 91.8462 237.834 92.2948C238.579 92.721 239.534 92.9341 240.697 92.9341C241.881 92.9341 242.858 92.7322 243.626 92.3285C244.393 91.9023 245.008 91.3078 245.468 90.5452C245.929 89.7601 246.247 88.8067 246.423 87.6852C246.598 86.5412 246.686 85.2626 246.686 83.8494Z" fill="#318F28"/>
<path d="M267.277 79.1724C267.277 79.9351 267.167 80.7202 266.948 81.5277C266.751 82.3128 266.389 83.0419 265.862 83.7148C265.357 84.3653 264.666 84.9037 263.789 85.3299C262.933 85.7336 261.847 85.9355 260.531 85.9355H256.22V94.4146C256.22 94.7959 256.033 94.9866 255.66 94.9866H254.245C253.85 94.9866 253.653 94.7959 253.653 94.4146V73.2169C253.653 72.858 253.85 72.6785 254.245 72.6785H260.498C261.463 72.6785 262.363 72.8131 263.196 73.0823C264.03 73.3515 264.743 73.7553 265.335 74.2936C265.95 74.832 266.421 75.5161 266.751 76.3461C267.102 77.1536 267.277 78.0957 267.277 79.1724ZM264.743 79.2061C264.743 77.7929 264.337 76.7498 263.525 76.0769C262.714 75.404 261.639 75.0675 260.3 75.0675H256.22V83.6139H260.498C261.332 83.6139 262.023 83.4905 262.571 83.2437C263.12 82.997 263.547 82.6717 263.855 82.268C264.184 81.8418 264.414 81.3707 264.546 80.8548C264.677 80.3164 264.743 79.7669 264.743 79.2061Z" fill="#318F28"/>
<path d="M287.176 83.5129C287.176 84.8364 287.099 86.1935 286.945 87.5842C286.792 88.975 286.419 90.2423 285.826 91.3863C285.256 92.5303 284.4 93.4725 283.259 94.2127C282.119 94.9305 280.572 95.2894 278.619 95.2894C277.325 95.2894 276.217 95.1212 275.295 94.7847C274.396 94.4482 273.639 93.9996 273.025 93.4388C272.41 92.8556 271.917 92.1827 271.544 91.42C271.193 90.6349 270.918 89.8049 270.721 88.9301C270.524 88.0553 270.392 87.158 270.326 86.2383C270.282 85.3186 270.26 84.4102 270.26 83.5129C270.26 82.8175 270.293 82.0661 270.359 81.2586C270.425 80.4286 270.556 79.6099 270.754 78.8023C270.951 77.9724 271.237 77.176 271.61 76.4134C272.004 75.6283 272.509 74.9441 273.123 74.3609C273.738 73.7777 274.495 73.3066 275.394 72.9477C276.316 72.5888 277.402 72.4094 278.652 72.4094C280.517 72.4094 282.009 72.7346 283.128 73.3851C284.269 74.0357 285.135 74.888 285.728 75.9423C286.32 76.9742 286.704 78.1518 286.879 79.4753C287.077 80.7987 287.176 82.1446 287.176 83.5129ZM284.609 83.8494C284.609 82.3913 284.51 81.0903 284.312 79.9463C284.137 78.8023 283.819 77.849 283.358 77.0863C282.897 76.3012 282.283 75.7068 281.515 75.303C280.747 74.8993 279.782 74.6974 278.619 74.6974C277.522 74.6974 276.601 74.9105 275.855 75.3367C275.131 75.7629 274.549 76.3797 274.111 77.1873C273.672 77.9724 273.354 78.9257 273.156 80.0473C272.981 81.1688 272.893 82.4362 272.893 83.8494C272.893 85.2177 272.97 86.4626 273.123 87.5842C273.299 88.6834 273.595 89.6367 274.012 90.4442C274.451 91.2293 275.032 91.8462 275.756 92.2948C276.502 92.721 277.456 92.9341 278.619 92.9341C279.804 92.9341 280.78 92.7322 281.548 92.3285C282.316 91.9023 282.93 91.3078 283.391 90.5452C283.852 89.7601 284.17 88.8067 284.345 87.6852C284.521 86.5412 284.609 85.2626 284.609 83.8494Z" fill="#318F28"/>
<path d="M306.154 88.8628C306.154 89.8049 305.99 90.6573 305.66 91.42C305.353 92.1602 304.925 92.7995 304.377 93.3379C303.828 93.8538 303.192 94.2576 302.468 94.5492C301.766 94.8408 301.009 94.9866 300.197 94.9866H292.266C292.003 94.9866 291.817 94.9417 291.707 94.852C291.619 94.7623 291.575 94.6165 291.575 94.4146V73.2506C291.575 72.8917 291.773 72.7122 292.168 72.7122H299.111C301.24 72.7122 302.83 73.2393 303.883 74.2936C304.958 75.3479 305.496 76.7274 305.496 78.4322C305.496 78.7911 305.452 79.1949 305.364 79.6435C305.298 80.0921 305.156 80.5408 304.936 80.9894C304.739 81.438 304.454 81.8642 304.081 82.268C303.73 82.6717 303.269 83.0082 302.699 83.2774L302.732 83.311C303.39 83.5129 303.938 83.8382 304.377 84.2868C304.816 84.713 305.167 85.1841 305.43 85.7C305.693 86.2159 305.88 86.7543 305.99 87.315C306.099 87.8758 306.154 88.3917 306.154 88.8628ZM302.797 78.6341C302.797 77.6022 302.479 76.7498 301.843 76.0769C301.207 75.404 300.187 75.0675 298.782 75.0675H294.109V82.2343H299.276C299.759 82.2343 300.208 82.1446 300.625 81.9651C301.064 81.7633 301.437 81.5053 301.744 81.1913C302.073 80.8772 302.326 80.5071 302.501 80.0809C302.699 79.6323 302.797 79.15 302.797 78.6341ZM303.455 88.6273C303.455 88.1113 303.379 87.6066 303.225 87.1132C303.072 86.6197 302.83 86.1935 302.501 85.8346C302.172 85.4532 301.744 85.1504 301.218 84.9261C300.713 84.7018 300.099 84.5896 299.375 84.5896H294.109V92.5976H299.375C300.187 92.5976 300.856 92.4967 301.382 92.2948C301.909 92.0705 302.326 91.7789 302.633 91.42C302.94 91.0387 303.148 90.6125 303.258 90.1414C303.39 89.6703 303.455 89.1656 303.455 88.6273Z" fill="#318F28"/>
<path d="M312.79 74.2263C312.79 75.4152 312.516 76.4582 311.967 77.3555C311.419 78.2527 310.815 78.9257 310.157 79.3743C310.091 79.4192 310.004 79.464 309.894 79.5089C309.784 79.5313 309.707 79.5201 309.663 79.4753L309.203 79.0042C309.071 78.8696 309.104 78.7238 309.301 78.5668C309.696 78.2079 309.971 77.8266 310.124 77.4228C310.3 76.9966 310.387 76.5704 310.387 76.1442C310.387 75.7629 310.311 75.3703 310.157 74.9666C310.004 74.5404 309.806 74.1702 309.565 73.8562C309.499 73.7665 309.466 73.6655 309.466 73.5534C309.466 73.4188 309.554 73.2954 309.729 73.1833L311.013 72.1402C311.166 72.028 311.309 71.9832 311.441 72.0056C311.594 72.028 311.726 72.0841 311.835 72.1738C312.165 72.4879 312.406 72.8356 312.559 73.2169C312.713 73.5758 312.79 73.9123 312.79 74.2263Z" fill="#318F28"/>
<path d="M316.376 79.307C316.376 78.1855 316.562 77.2097 316.935 76.3797C317.33 75.5498 317.835 74.8656 318.449 74.3273C319.085 73.7665 319.798 73.3515 320.588 73.0823C321.4 72.8131 322.223 72.6785 323.056 72.6785H329.441C329.814 72.6785 330 72.858 330 73.2169V94.4146C330 94.7959 329.814 94.9866 329.441 94.9866H328.025C327.653 94.9866 327.466 94.7847 327.466 94.3809V85.2962H323.55C323.155 85.3186 322.76 85.3859 322.365 85.4981C321.992 85.5878 321.63 85.7561 321.279 86.0028C320.95 86.2495 320.632 86.5972 320.325 87.0459C320.04 87.4721 319.798 88.0328 319.601 88.7282L318.087 94.3473C317.999 94.594 317.889 94.7623 317.758 94.852C317.648 94.9417 317.484 94.9866 317.264 94.9866H316.112C315.739 94.9866 315.52 94.9193 315.454 94.7847C315.41 94.6277 315.432 94.4146 315.52 94.1454L317.133 88.2908C317.374 87.5057 317.681 86.7767 318.054 86.1037C318.427 85.4308 318.932 84.9037 319.568 84.5223C319.019 84.3429 318.548 84.0737 318.153 83.7148C317.758 83.3559 317.429 82.9409 317.165 82.4699C316.902 81.9988 316.705 81.4941 316.573 80.9557C316.441 80.395 316.376 79.8454 316.376 79.307ZM319.041 79.0715C319.041 79.9463 319.184 80.6417 319.469 81.1576C319.776 81.6735 320.149 82.0661 320.588 82.3353C321.027 82.6044 321.498 82.7839 322.003 82.8736C322.53 82.9409 323.023 82.9746 323.484 82.9746H327.466V75.1011H323.287C322.892 75.1011 322.442 75.1684 321.937 75.303C321.455 75.4152 320.994 75.6283 320.555 75.9423C320.138 76.2339 319.776 76.6377 319.469 77.1536C319.184 77.6471 319.041 78.2864 319.041 79.0715Z" fill="#318F28"/>
</svg>
