<svg width="980" height="244" viewBox="0 0 980 244" fill="none" xmlns="http://www.w3.org/2000/svg">
<path d="M848.517 243.97C814.736 244.097 782.182 232.047 757.523 210.288C732.863 188.529 717.965 158.708 715.879 126.934H715.621V126.046C715.621 70.9068 669.099 24.9599 610.605 24.2153C583.644 23.8988 557.557 33.2228 537.6 50.3089C517.642 67.395 505.297 90.9737 503.051 116.295V117.842C503.051 186.655 444.557 243.641 371.538 243.999C337.758 244.125 305.206 232.075 280.549 210.315C255.892 188.556 240.997 158.736 238.915 126.962H238.687V126.118C238.687 71.0357 192.272 25.0887 133.853 24.244C119.736 24.0524 105.718 26.5054 92.615 31.4607C79.5117 36.4159 67.5832 43.7746 57.5222 53.1096C47.4611 62.4446 39.4678 73.57 34.0062 85.8399C28.5447 98.1098 25.7238 111.28 25.7071 124.586V170.805C25.7071 174.017 24.3529 177.098 21.9424 179.37C19.5319 181.642 16.2625 182.918 12.8536 182.918C9.44458 182.918 6.17523 181.642 3.76472 179.37C1.35421 177.098 0 174.017 0 170.805V126.146C0 57.505 58.2208 0.590347 131.058 0.0032959C164.718 -0.227722 197.207 11.6369 221.913 33.1827C246.619 54.7284 261.685 84.3361 264.045 115.98H264.41V117.971C264.41 173.296 311.251 219.343 369.958 219.816C397.062 220.011 423.227 210.468 443.131 193.129C463.035 175.789 475.182 151.955 477.101 126.476H476.949V126.204C476.949 57.5623 535.17 0.647629 608.007 0.0605774C641.667 -0.170441 674.156 11.6942 698.862 33.24C723.568 54.7857 738.634 84.3934 740.994 116.038H741.343V117.999C741.343 173.081 787.744 219.028 846.177 219.873C860.304 220.063 874.33 217.604 887.44 212.64C900.55 207.675 912.482 200.305 922.542 190.956C932.602 181.607 940.589 170.467 946.04 158.183C951.491 145.9 954.296 132.717 954.293 119.402V45.3775C954.293 43.8088 954.621 42.2556 955.259 40.8067C955.897 39.3578 956.832 38.0416 958.01 36.9337C959.189 35.8258 960.588 34.9479 962.127 34.3502C963.666 33.7525 965.315 33.4468 966.979 33.4505H967.359C969.02 33.4505 970.666 33.7591 972.2 34.3587C973.735 34.9583 975.129 35.837 976.303 36.9447C977.477 38.0524 978.408 39.3674 979.042 40.8144C979.677 42.2613 980.002 43.8119 980 45.3775V117.842C980.015 186.698 921.521 243.641 848.517 243.97Z" fill="url(#paint0_linear_69_420)"/>
<defs>
<linearGradient id="paint0_linear_69_420" x1="-0.0151933" y1="121.994" x2="980.015" y2="121.994" gradientUnits="userSpaceOnUse">
<stop stop-color="#8C8F83"/>
<stop offset="0.40625" stop-color="#A5A89A"/>
<stop offset="0.73" stop-color="#BFC3B3"/>
<stop offset="1" stop-color="#D9DBD0"/>
</linearGradient>
</defs>
</svg>
