<svg width="920" height="245" viewBox="0 0 920 245" fill="none" xmlns="http://www.w3.org/2000/svg">
<path d="M796.567 244.127C764.854 244.254 734.293 232.196 711.144 210.424C687.994 188.652 674.008 158.814 672.05 127.02H671.807V126.131C671.807 70.9587 628.134 24.9838 573.221 24.2388C547.91 23.9221 523.421 33.2518 504.685 50.3483C485.95 67.4447 474.361 91.0378 472.252 116.375V117.922C472.252 186.777 417.339 243.798 348.79 244.156C317.079 244.282 286.52 232.224 263.373 210.452C240.225 188.68 226.242 158.841 224.288 127.048H224.074V126.203C224.074 71.0876 180.5 25.1128 125.658 24.2675C112.405 24.0759 99.2458 26.5304 86.9447 31.4886C74.6436 36.4468 63.4455 43.81 54.0004 53.1507C44.5553 62.4914 37.0514 73.6235 31.9242 85.9009C26.7971 98.1782 24.1488 111.356 24.1332 124.67V170.917C24.1332 174.132 22.8619 177.215 20.599 179.488C18.3361 181.761 15.2669 183.038 12.0666 183.038C8.86634 183.038 5.79715 181.761 3.53422 179.488C1.2713 177.215 0 174.132 0 170.917V126.232C0 57.5488 54.6563 0.599518 123.034 0.0121155C154.633 -0.21904 185.133 11.6528 208.326 33.2116C231.52 54.7705 245.663 84.3962 247.879 116.06H248.221V118.051C248.221 173.41 292.194 219.485 347.307 219.958C372.752 220.153 397.315 210.605 416.001 193.255C434.686 175.905 446.089 152.056 447.891 126.561H447.748V126.289C447.748 57.6061 502.404 0.656845 570.782 0.0694427C602.381 -0.161728 632.881 11.7101 656.074 33.269C679.268 54.8278 693.411 84.4535 695.627 116.117H695.955V118.08C695.955 173.195 739.514 219.17 794.37 220.015C807.633 220.205 820.8 217.745 833.107 212.778C845.414 207.81 856.615 200.435 866.06 191.081C875.504 181.726 883.002 170.58 888.119 158.288C893.237 145.997 895.87 132.806 895.867 119.484V45.4139C895.867 43.8443 896.175 42.2901 896.774 40.8403C897.373 39.3905 898.25 38.0735 899.357 36.965C900.463 35.8564 901.776 34.9779 903.221 34.3799C904.666 33.7818 906.214 33.4759 907.776 33.4797H908.133C909.693 33.4797 911.237 33.7885 912.678 34.3884C914.118 34.9883 915.427 35.8676 916.529 36.976C917.631 38.0844 918.505 39.4001 919.101 40.848C919.696 42.2958 920.002 43.8474 920 45.4139V117.922C920.014 186.82 865.101 243.798 796.567 244.127Z" fill="url(#paint0_linear_69_420)"/>
<defs>
<linearGradient id="paint0_linear_69_420" x1="-0.0142631" y1="122.077" x2="920.014" y2="122.077" gradientUnits="userSpaceOnUse">
<stop stop-color="#8C8F83"/>
<stop offset="0.40625" stop-color="#A5A89A"/>
<stop offset="0.73" stop-color="#BFC3B3"/>
<stop offset="1" stop-color="#D9DBD0"/>
</linearGradient>
</defs>
</svg>
